<?xml version="1.0" standalone="no"?>
 <!DOCTYPE svg PUBLIC "-//W3C//DTD SVG 1.1//EN" 
 "http://www.w3.org/Graphics/SVG/1.1/DTD/svg11.dtd"> 
<svg xmlns="http://www.w3.org/2000/svg" version="1.1" 
    width="3.29692cm" height="2.86512cm" viewBox="0 0 12980 11280 ">
<title>SVG Picture created as CANadapter.svg date 2017/10/21 14:22:40 </title>
  <desc>Picture generated by Eeschema-SVG </desc>
<g style="fill:#000000; fill-opacity:1;stroke:#000000; stroke-opacity:1;
stroke-linecap:round; stroke-linejoin:round; "
 transform="translate(0 0) scale(1 1)">
</g>
<g style="fill:#000000; fill-opacity:0.0; 
stroke:#000000; stroke-width:-10; stroke-opacity:1; 
stroke-linecap:round; stroke-linejoin:round;">
</g>
<g style="fill:#000000; fill-opacity:0.0; 
stroke:#000000; stroke-width:60; stroke-opacity:1; 
stroke-linecap:round; stroke-linejoin:round;">
<rect x="2990" y="4140" width="6500" height="4000" rx="0" />
<path d="M9490 4640
L11490 4640
" />
<path d="M6100 4840
L6170 4870
L6290 4870
L6330 4840
L6360 4820
L6380 4770
L6380 4720
L6360 4680
L6330 4650
L6290 4630
L6190 4600
L6140 4580
L6120 4560
L6100 4510
L6100 4460
L6120 4410
L6140 4390
L6190 4370
L6310 4370
L6380 4390
" />
<path d="M6860 4390
L6810 4370
L6740 4370
L6670 4390
L6620 4440
L6600 4490
L6580 4580
L6580 4650
L6600 4750
L6620 4790
L6670 4840
L6740 4870
L6790 4870
L6860 4840
L6880 4820
L6880 4650
L6790 4650
" />
<path d="M7100 4870
L7100 4530
" />
<path d="M7100 4630
L7120 4580
L7150 4560
L7190 4530
L7240 4530
" />
<path d="M7480 4870
L7430 4840
L7410 4820
L7390 4770
L7390 4630
L7410 4580
L7430 4560
L7480 4530
L7550 4530
L7600 4560
L7620 4580
L7650 4630
L7650 4770
L7620 4820
L7600 4840
L7550 4870
L7480 4870
" />
<path d="M8070 4530
L8070 4870
" />
<path d="M7860 4530
L7860 4790
L7880 4840
L7930 4870
L8000 4870
L8050 4840
L8070 4820
" />
<path d="M8310 4530
L8310 4870
" />
<path d="M8310 4580
L8330 4560
L8380 4530
L8450 4530
L8500 4560
L8520 4600
L8520 4870
" />
<path d="M8970 4870
L8970 4370
" />
<path d="M8970 4840
L8930 4870
L8830 4870
L8780 4840
L8760 4820
L8740 4770
L8740 4630
L8760 4580
L8780 4560
L8830 4530
L8930 4530
L8970 4560
" />
<path d="M10630 4520
L10350 4520
" />
<path d="M10490 4520
L10490 4020
L10440 4090
L10390 4140
L10350 4160
" />
<path d="M9490 5640
L11490 5640
" />
<path d="M8080 5870
L7800 5870
" />
<path d="M7940 5870
L7940 5370
L7890 5440
L7840 5490
L7800 5510
" />
<path d="M8280 5410
L8300 5390
L8350 5370
L8470 5370
L8510 5390
L8540 5410
L8560 5460
L8560 5510
L8540 5580
L8250 5870
L8560 5870
" />
<path d="M8710 5370
L8870 5870
L9040 5370
" />
<path d="M10350 5060
L10370 5040
L10420 5020
L10540 5020
L10580 5040
L10610 5060
L10630 5110
L10630 5160
L10610 5230
L10320 5520
L10630 5520
" />
<path d="M6490 8140
L6490 10140
" />
<path d="M6240 7360
L6220 7410
L6220 7480
L6240 7550
L6290 7600
L6340 7620
L6430 7640
L6500 7640
L6600 7620
L6640 7600
L6690 7550
L6720 7480
L6720 7430
L6690 7360
L6670 7340
L6500 7340
L6500 7430
" />
<path d="M6720 7120
L6380 7120
" />
<path d="M6480 7120
L6430 7100
L6410 7070
L6380 7030
L6380 6980
" />
<path d="M6720 6740
L6690 6790
L6670 6810
L6620 6830
L6480 6830
L6430 6810
L6410 6790
L6380 6740
L6380 6670
L6410 6620
L6430 6600
L6480 6570
L6620 6570
L6670 6600
L6690 6620
L6720 6670
L6720 6740
" />
<path d="M6380 6150
L6720 6150
" />
<path d="M6380 6360
L6640 6360
L6690 6340
L6720 6290
L6720 6220
L6690 6170
L6670 6150
" />
<path d="M6380 5910
L6720 5910
" />
<path d="M6430 5910
L6410 5890
L6380 5840
L6380 5770
L6410 5720
L6450 5700
L6720 5700
" />
<path d="M6720 5250
L6220 5250
" />
<path d="M6690 5250
L6720 5290
L6720 5390
L6690 5440
L6670 5460
L6620 5480
L6480 5480
L6430 5460
L6410 5440
L6380 5390
L6380 5290
L6410 5250
" />
<path d="M5870 9310
L5870 9000
L6060 9170
L6060 9090
L6080 9050
L6100 9020
L6150 9000
L6270 9000
L6320 9020
L6340 9050
L6370 9090
L6370 9240
L6340 9280
L6320 9310
" />
<path d="M2990 5640
L990 5640
" />
<path d="M3790 5820
L3770 5840
L3700 5870
L3650 5870
L3580 5840
L3530 5790
L3510 5750
L3490 5650
L3490 5580
L3510 5490
L3530 5440
L3580 5390
L3650 5370
L3700 5370
L3770 5390
L3790 5410
" />
<path d="M3990 5720
L4220 5720
" />
<path d="M3940 5870
L4100 5370
L4270 5870
" />
<path d="M4440 5870
L4440 5370
L4720 5870
L4720 5370
" />
<path d="M4840 5910
L5220 5910
" />
<path d="M5340 5870
L5340 5370
" />
<path d="M5340 5600
L5620 5600
" />
<path d="M5620 5870
L5620 5370
" />
<path d="M2080 5180
L2080 5520
" />
<path d="M1960 4990
L1850 5350
L2150 5350
" />
<path d="M2990 4640
L990 4640
" />
<path d="M3790 4820
L3770 4840
L3700 4870
L3650 4870
L3580 4840
L3530 4790
L3510 4750
L3490 4650
L3490 4580
L3510 4490
L3530 4440
L3580 4390
L3650 4370
L3700 4370
L3770 4390
L3790 4410
" />
<path d="M3990 4720
L4220 4720
" />
<path d="M3940 4870
L4100 4370
L4270 4870
" />
<path d="M4440 4870
L4440 4370
L4720 4870
L4720 4370
" />
<path d="M4840 4910
L5220 4910
" />
<path d="M5580 4870
L5340 4870
L5340 4370
" />
<path d="M2110 4020
L1870 4020
L1850 4250
L1870 4230
L1920 4210
L2040 4210
L2080 4230
L2110 4250
L2130 4300
L2130 4420
L2110 4470
L2080 4490
L2040 4520
L1920 4520
L1870 4490
L1850 4470
" />
<path d="M5810 11340
L5810 11830
L5840 11880
L5870 11910
L5930 11940
L6040 11940
L6100 11910
L6130 11880
L6160 11830
L6160 11340
" />
<path d="M6530 11880
L6560 11910
L6530 11940
L6500 11910
L6530 11880
L6530 11940
" />
<path d="M6410 11370
L6470 11340
L6610 11340
L6670 11370
L6700 11430
L6700 11480
L6670 11540
L6640 11570
L6590 11600
L6560 11630
L6530 11680
L6530 11710
" />
<path d="M6920 11770
L7210 11770
" />
<path d="M6870 11940
L7070 11340
L7270 11940
" />
<path d="M3920 3380
L3890 3410
L3800 3440
L3740 3440
L3660 3410
L3600 3360
L3570 3300
L3540 3180
L3540 3100
L3570 2980
L3600 2930
L3660 2870
L3740 2840
L3800 2840
L3890 2870
L3920 2900
" />
<path d="M4140 3270
L4430 3270
" />
<path d="M4090 3440
L4290 2840
L4490 3440
" />
<path d="M4680 3440
L4680 2840
L5030 3440
L5030 2840
" />
<path d="M5570 3440
L5570 3130
L5540 3070
L5480 3040
L5370 3040
L5310 3070
" />
<path d="M5570 3410
L5510 3440
L5370 3440
L5310 3410
L5280 3360
L5280 3300
L5310 3240
L5370 3210
L5510 3210
L5570 3180
" />
<path d="M6110 3440
L6110 2840
" />
<path d="M6110 3410
L6050 3440
L5940 3440
L5880 3410
L5850 3380
L5820 3330
L5820 3160
L5850 3100
L5880 3070
L5940 3040
L6050 3040
L6110 3070
" />
<path d="M6650 3440
L6650 3130
L6620 3070
L6560 3040
L6450 3040
L6390 3070
" />
<path d="M6650 3410
L6590 3440
L6450 3440
L6390 3410
L6360 3360
L6360 3300
L6390 3240
L6450 3210
L6590 3210
L6650 3180
" />
<path d="M6930 3040
L6930 3640
" />
<path d="M6930 3070
L6990 3040
L7100 3040
L7160 3070
L7190 3100
L7220 3160
L7220 3330
L7190 3380
L7160 3410
L7100 3440
L6990 3440
L6930 3410
" />
<path d="M7390 3040
L7620 3040
" />
<path d="M7470 2840
L7470 3360
L7500 3410
L7560 3440
L7620 3440
" />
<path d="M8040 3410
L7980 3440
L7870 3440
L7810 3410
L7780 3360
L7780 3130
L7810 3070
L7870 3040
L7980 3040
L8040 3070
L8070 3130
L8070 3180
L7780 3240
" />
<path d="M8320 3440
L8320 3040
" />
<path d="M8320 3160
L8350 3100
L8380 3070
L8440 3040
L8490 3040
" />
</g> 
</svg>
