G04 #@! TF.FileFunction,Copper,L1,Top,Signal*
%FSLAX46Y46*%
G04 Gerber Fmt 4.6, Leading zero omitted, Abs format (unit mm)*
G04 Created by KiCad (PCBNEW 4.0.7) date 10/31/17 21:38:08*
%MOMM*%
%LPD*%
G01*
G04 APERTURE LIST*
%ADD10C,0.100000*%
%ADD11R,1.250000X1.500000*%
%ADD12R,1.500000X1.250000*%
%ADD13R,1.520000X1.520000*%
%ADD14C,1.520000*%
%ADD15C,3.810000*%
%ADD16R,1.500000X1.300000*%
%ADD17R,1.300000X1.500000*%
%ADD18C,1.524000*%
%ADD19R,1.550000X0.600000*%
%ADD20C,1.000000*%
%ADD21R,0.900000X0.800000*%
%ADD22R,1.800000X1.800000*%
%ADD23C,1.800000*%
%ADD24C,0.600000*%
%ADD25C,0.250000*%
%ADD26C,0.350000*%
%ADD27C,0.254000*%
G04 APERTURE END LIST*
D10*
D11*
X192405000Y-93325000D03*
X192405000Y-90825000D03*
D12*
X187305000Y-108585000D03*
X184805000Y-108585000D03*
X175915000Y-97790000D03*
X178415000Y-97790000D03*
X165755000Y-107950000D03*
X168255000Y-107950000D03*
X198100000Y-113030000D03*
X195600000Y-113030000D03*
D13*
X201930000Y-127000000D03*
D14*
X199160000Y-127000000D03*
X196390000Y-127000000D03*
X193620000Y-127000000D03*
X190860000Y-127000000D03*
X188090000Y-127000000D03*
X185320000Y-127000000D03*
X182550000Y-127000000D03*
X179780000Y-127000000D03*
D15*
X208640000Y-128420000D03*
X145140000Y-128420000D03*
D14*
X177010000Y-127000000D03*
X174240000Y-127000000D03*
X171480000Y-127000000D03*
X168710000Y-127000000D03*
X165940000Y-127000000D03*
X163170000Y-127000000D03*
X160400000Y-127000000D03*
X157630000Y-127000000D03*
X154860000Y-127000000D03*
X152100000Y-127000000D03*
X200560000Y-129840000D03*
X197790000Y-129840000D03*
X195020000Y-129840000D03*
X192250000Y-129840000D03*
X189480000Y-129840000D03*
X186720000Y-129840000D03*
X183950000Y-129840000D03*
X181180000Y-129840000D03*
X178410000Y-129840000D03*
X175640000Y-129840000D03*
X172870000Y-129840000D03*
X170100000Y-129840000D03*
X167340000Y-129840000D03*
X164570000Y-129840000D03*
X161800000Y-129840000D03*
X159030000Y-129840000D03*
X156260000Y-129840000D03*
X153490000Y-129840000D03*
D16*
X184705000Y-111125000D03*
X187405000Y-111125000D03*
X184705000Y-114300000D03*
X187405000Y-114300000D03*
D17*
X178435000Y-112475000D03*
X178435000Y-109775000D03*
D16*
X175815000Y-102870000D03*
X178515000Y-102870000D03*
X175815000Y-100330000D03*
X178515000Y-100330000D03*
X165655000Y-99060000D03*
X168355000Y-99060000D03*
X165655000Y-113030000D03*
X168355000Y-113030000D03*
X165655000Y-110490000D03*
X168355000Y-110490000D03*
X156130000Y-114300000D03*
X158830000Y-114300000D03*
X194230000Y-121920000D03*
X196930000Y-121920000D03*
X198200000Y-109220000D03*
X195500000Y-109220000D03*
D18*
X153042000Y-87335000D03*
X153042000Y-89875000D03*
X153042000Y-92415000D03*
X153042000Y-94955000D03*
X153042000Y-97495000D03*
X153042000Y-100035000D03*
X153042000Y-102575000D03*
X153042000Y-105115000D03*
X153042000Y-110195000D03*
X201302000Y-105115000D03*
X153042000Y-112735000D03*
X153042000Y-115275000D03*
X153042000Y-117815000D03*
X153042000Y-120355000D03*
X153042000Y-122895000D03*
X201302000Y-78195000D03*
X201302000Y-80735000D03*
X201302000Y-83275000D03*
X201302000Y-85815000D03*
X201302000Y-88355000D03*
X201302000Y-90895000D03*
X201302000Y-93435000D03*
X201302000Y-95975000D03*
X201302000Y-98515000D03*
X201302000Y-101055000D03*
X201302000Y-107655000D03*
X201302000Y-110195000D03*
X201302000Y-112735000D03*
X201302000Y-115275000D03*
X201302000Y-117815000D03*
X201302000Y-120355000D03*
X201302000Y-122895000D03*
D19*
X188120000Y-94615000D03*
X188120000Y-93345000D03*
X188120000Y-92075000D03*
X188120000Y-90805000D03*
X182720000Y-90805000D03*
X182720000Y-92075000D03*
X182720000Y-93345000D03*
X182720000Y-94615000D03*
D20*
X179705000Y-81915000D03*
X176165000Y-81915000D03*
X179705000Y-85455000D03*
X176165000Y-85455000D03*
X177935000Y-83685000D03*
D21*
X180610000Y-112080000D03*
X180610000Y-113980000D03*
X182610000Y-113030000D03*
X171085000Y-102555000D03*
X171085000Y-104455000D03*
X173085000Y-103505000D03*
X160925000Y-107000000D03*
X160925000Y-108900000D03*
X162925000Y-107950000D03*
X180610000Y-107635000D03*
X180610000Y-109535000D03*
X182610000Y-108585000D03*
X171085000Y-97475000D03*
X171085000Y-99375000D03*
X173085000Y-98425000D03*
X160925000Y-112080000D03*
X160925000Y-113980000D03*
X162925000Y-113030000D03*
D18*
X144780000Y-107315000D03*
X144780000Y-104775000D03*
X144780000Y-94615000D03*
X144780000Y-92075000D03*
D21*
X195850000Y-117160000D03*
X195850000Y-119060000D03*
X197850000Y-118110000D03*
D22*
X184785000Y-120015000D03*
D23*
X184785000Y-122555000D03*
D22*
X173355000Y-120015000D03*
D23*
X173355000Y-122555000D03*
D22*
X163195000Y-120015000D03*
D23*
X163195000Y-122555000D03*
D24*
X178230000Y-104147500D03*
X168437100Y-114415100D03*
X177260300Y-109767500D03*
D25*
X187305000Y-110049700D02*
X187305000Y-108585000D01*
X187405000Y-110149700D02*
X187305000Y-110049700D01*
X187405000Y-111125000D02*
X187405000Y-110149700D01*
X187405000Y-111125000D02*
X187405000Y-114300000D01*
X184785000Y-117895300D02*
X187405000Y-115275300D01*
X184785000Y-120015000D02*
X184785000Y-117895300D01*
X187405000Y-114300000D02*
X187405000Y-115275300D01*
X175915000Y-97790000D02*
X175915000Y-98740300D01*
X178515000Y-100330000D02*
X178515000Y-102870000D01*
X176529400Y-99354700D02*
X175915000Y-98740300D01*
X178515000Y-99354700D02*
X176529400Y-99354700D01*
X178515000Y-100330000D02*
X178515000Y-99354700D01*
X178515000Y-103862500D02*
X178515000Y-102870000D01*
X178230000Y-104147500D02*
X178515000Y-103862500D01*
X168355000Y-114333000D02*
X168355000Y-113030000D01*
X168437100Y-114415100D02*
X168355000Y-114333000D01*
X168355000Y-113030000D02*
X168355000Y-110690000D01*
X168355000Y-110690000D02*
X168355000Y-110490000D01*
X166565300Y-108900300D02*
X165755000Y-108900300D01*
X168355000Y-110690000D02*
X166565300Y-108900300D01*
X165755000Y-107950000D02*
X165755000Y-108900300D01*
X195305300Y-121380000D02*
X195305300Y-121920000D01*
X197850000Y-118835300D02*
X195305300Y-121380000D01*
X194230000Y-121920000D02*
X195305300Y-121920000D01*
X192475100Y-121240400D02*
X193154700Y-121920000D01*
X156467400Y-121240400D02*
X192475100Y-121240400D01*
X153042000Y-117815000D02*
X156467400Y-121240400D01*
X194230000Y-121920000D02*
X193154700Y-121920000D01*
X198100000Y-110295300D02*
X198100000Y-113030000D01*
X198200000Y-110195300D02*
X198100000Y-110295300D01*
X198200000Y-109220000D02*
X198200000Y-110195300D01*
X197850000Y-118110000D02*
X197850000Y-118472600D01*
X197850000Y-118472600D02*
X197850000Y-118835300D01*
X198100000Y-118222600D02*
X198100000Y-113030000D01*
X197850000Y-118472600D02*
X198100000Y-118222600D01*
X196930000Y-126460000D02*
X196390000Y-127000000D01*
X196930000Y-121920000D02*
X196930000Y-126460000D01*
D26*
X160925000Y-108899900D02*
X160925000Y-108512300D01*
X184705000Y-111125000D02*
X184705000Y-110099700D01*
X180610000Y-113980000D02*
X180610000Y-113204700D01*
X175815000Y-102870000D02*
X175815000Y-103895300D01*
X164982300Y-104455000D02*
X160925000Y-108512300D01*
X171085000Y-104455000D02*
X164982300Y-104455000D01*
X181435400Y-112670000D02*
X181435400Y-108422000D01*
X180900700Y-113204700D02*
X181435400Y-112670000D01*
X180610000Y-113204700D02*
X180900700Y-113204700D01*
X184320400Y-110099700D02*
X184705000Y-110099700D01*
X183679700Y-109459000D02*
X184320400Y-110099700D01*
X183679700Y-108256300D02*
X183679700Y-109459000D01*
X183195200Y-107771800D02*
X183679700Y-108256300D01*
X181998100Y-107771800D02*
X183195200Y-107771800D01*
X181435400Y-108334500D02*
X181998100Y-107771800D01*
X181435400Y-108422000D02*
X181435400Y-108334500D01*
X179921900Y-108422000D02*
X175605100Y-104105200D01*
X181435400Y-108422000D02*
X179921900Y-108422000D01*
X175605100Y-104105200D02*
X175815000Y-103895300D01*
X160925000Y-108899900D02*
X160925000Y-108900000D01*
X151901900Y-126801900D02*
X151901900Y-111597800D01*
X152100000Y-127000000D02*
X151901900Y-126801900D01*
X147619100Y-107315000D02*
X144780000Y-107315000D01*
X151901900Y-111597800D02*
X147619100Y-107315000D01*
X160925000Y-108900000D02*
X160925000Y-109675300D01*
X165655000Y-113030000D02*
X164529700Y-113030000D01*
X151968300Y-111531400D02*
X159135300Y-111531400D01*
X151901900Y-111597800D02*
X151968300Y-111531400D01*
X159135300Y-111465000D02*
X159135300Y-111531400D01*
X160925000Y-109675300D02*
X159135300Y-111465000D01*
X163754300Y-113805400D02*
X164529700Y-113030000D01*
X162194400Y-113805400D02*
X163754300Y-113805400D01*
X161244400Y-112855400D02*
X162194400Y-113805400D01*
X160245100Y-112855400D02*
X161244400Y-112855400D01*
X159135300Y-111745600D02*
X160245100Y-112855400D01*
X159135300Y-111531400D02*
X159135300Y-111745600D01*
X172234500Y-85845500D02*
X176165000Y-81915000D01*
X172234500Y-104301900D02*
X172234500Y-85845500D01*
X172081400Y-104455000D02*
X172234500Y-104301900D01*
X171085000Y-104455000D02*
X172081400Y-104455000D01*
X175408400Y-104301900D02*
X175605100Y-104105200D01*
X172234500Y-104301900D02*
X175408400Y-104301900D01*
D25*
X179650300Y-109535000D02*
X179410300Y-109775000D01*
X180610000Y-109535000D02*
X179650300Y-109535000D01*
X178435000Y-109775000D02*
X179410300Y-109775000D01*
X177452200Y-109767500D02*
X177459700Y-109775000D01*
X177260300Y-109767500D02*
X177452200Y-109767500D01*
X178435000Y-109775000D02*
X177459700Y-109775000D01*
X169745300Y-99375000D02*
X169430300Y-99060000D01*
X171085000Y-99375000D02*
X169745300Y-99375000D01*
X168355000Y-99060000D02*
X169430300Y-99060000D01*
X163201700Y-100035300D02*
X168355000Y-100035300D01*
X153042000Y-110195000D02*
X163201700Y-100035300D01*
X168355000Y-99060000D02*
X168355000Y-100035300D01*
X158240300Y-112735000D02*
X158830000Y-113324700D01*
X153042000Y-112735000D02*
X158240300Y-112735000D01*
X158830000Y-114300000D02*
X158830000Y-113324700D01*
X160149700Y-114055600D02*
X159905300Y-114300000D01*
X160149700Y-113980000D02*
X160149700Y-114055600D01*
X158830000Y-114300000D02*
X159905300Y-114300000D01*
X160925000Y-113980000D02*
X160149700Y-113980000D01*
X202392100Y-79285100D02*
X201302000Y-78195000D01*
X202392100Y-81207400D02*
X202392100Y-79285100D01*
X201594500Y-82005000D02*
X202392100Y-81207400D01*
X201025200Y-82005000D02*
X201594500Y-82005000D01*
X193674000Y-89356200D02*
X201025200Y-82005000D01*
X193674000Y-91411200D02*
X193674000Y-89356200D01*
X193154200Y-91931000D02*
X193674000Y-91411200D01*
X191904300Y-91931000D02*
X193154200Y-91931000D01*
X189220300Y-94615000D02*
X191904300Y-91931000D01*
X188120000Y-94615000D02*
X189220300Y-94615000D01*
X199290300Y-80735000D02*
X201302000Y-80735000D01*
X189220300Y-90805000D02*
X199290300Y-80735000D01*
X188120000Y-90805000D02*
X189220300Y-90805000D01*
X177935000Y-88390300D02*
X181619700Y-92075000D01*
X177935000Y-83685000D02*
X177935000Y-88390300D01*
X182720000Y-92075000D02*
X181619700Y-92075000D01*
X176165000Y-87890300D02*
X181619700Y-93345000D01*
X176165000Y-85455000D02*
X176165000Y-87890300D01*
X182720000Y-93345000D02*
X181619700Y-93345000D01*
X145140000Y-128420000D02*
X208640000Y-128420000D01*
X192405000Y-90825000D02*
X191454700Y-90825000D01*
X165655000Y-99060000D02*
X165655000Y-98084700D01*
X190204700Y-92075000D02*
X188120000Y-92075000D01*
X191454700Y-90825000D02*
X190204700Y-92075000D01*
X188120000Y-92075000D02*
X187019700Y-92075000D01*
X146239100Y-96074100D02*
X163795300Y-96074100D01*
X144780000Y-94615000D02*
X146239100Y-96074100D01*
X163795300Y-96225000D02*
X163795300Y-96074100D01*
X165655000Y-98084700D02*
X163795300Y-96225000D01*
X187019700Y-91596800D02*
X187019700Y-92075000D01*
X176509400Y-81086500D02*
X187019700Y-91596800D01*
X175818300Y-81086500D02*
X176509400Y-81086500D01*
X163795300Y-93109500D02*
X175818300Y-81086500D01*
X163795300Y-96074100D02*
X163795300Y-93109500D01*
X195850000Y-119060000D02*
X195850000Y-118334700D01*
X178435000Y-112475000D02*
X178435000Y-113550300D01*
X180165000Y-115280300D02*
X178435000Y-113550300D01*
X185598600Y-115280300D02*
X180165000Y-115280300D01*
X186229600Y-114649300D02*
X185598600Y-115280300D01*
X186229600Y-107806100D02*
X186229600Y-114649300D01*
X187300200Y-106735500D02*
X186229600Y-107806100D01*
X187019700Y-106455000D02*
X187300200Y-106735500D01*
X187019700Y-92075000D02*
X187019700Y-106455000D01*
X195668700Y-118334700D02*
X195850000Y-118334700D01*
X191777500Y-114443500D02*
X195668700Y-118334700D01*
X191777500Y-111212800D02*
X191777500Y-114443500D01*
X187300200Y-106735500D02*
X191777500Y-111212800D01*
X176710000Y-115275300D02*
X178435000Y-113550300D01*
X156130000Y-115275300D02*
X176710000Y-115275300D01*
X156130000Y-114300000D02*
X156130000Y-115275300D01*
X182610000Y-108585000D02*
X182610000Y-113030000D01*
X183085000Y-113755300D02*
X183629700Y-114300000D01*
X182610000Y-113755300D02*
X183085000Y-113755300D01*
X182610000Y-113030000D02*
X182610000Y-113755300D01*
X184705000Y-114300000D02*
X183629700Y-114300000D01*
X175610600Y-99150300D02*
X175815000Y-99354700D01*
X173085000Y-99150300D02*
X175610600Y-99150300D01*
X173085000Y-98425000D02*
X173085000Y-99150300D01*
X175815000Y-100330000D02*
X175815000Y-99354700D01*
X174559400Y-101305300D02*
X175815000Y-101305300D01*
X173085000Y-102779700D02*
X174559400Y-101305300D01*
X173085000Y-103505000D02*
X173085000Y-102779700D01*
X175815000Y-100330000D02*
X175815000Y-101305300D01*
X162925000Y-113030000D02*
X162925000Y-112304700D01*
X165655000Y-110490000D02*
X165655000Y-111465300D01*
X162925000Y-110625900D02*
X162925000Y-107950000D01*
X163764400Y-111465300D02*
X162925000Y-110625900D01*
X162925000Y-112304700D02*
X163764400Y-111465300D01*
X163764400Y-111465300D02*
X165655000Y-111465300D01*
X181455000Y-122555000D02*
X177010000Y-127000000D01*
X184785000Y-122555000D02*
X181455000Y-122555000D01*
X173355000Y-125125000D02*
X173355000Y-122555000D01*
X171480000Y-127000000D02*
X173355000Y-125125000D01*
X165940000Y-125300000D02*
X163195000Y-122555000D01*
X165940000Y-127000000D02*
X165940000Y-125300000D01*
D27*
G36*
X200511697Y-77009990D02*
X200118371Y-77402630D01*
X199905243Y-77915900D01*
X199904758Y-78471661D01*
X200116990Y-78985303D01*
X200509630Y-79378629D01*
X200717512Y-79464949D01*
X200511697Y-79549990D01*
X200118371Y-79942630D01*
X200104930Y-79975000D01*
X199290300Y-79975000D01*
X198999461Y-80032852D01*
X198752899Y-80197599D01*
X189059605Y-89890893D01*
X188895000Y-89857560D01*
X187345000Y-89857560D01*
X187109683Y-89901838D01*
X186893559Y-90040910D01*
X186749479Y-90251777D01*
X179560758Y-83063056D01*
X180010375Y-83031217D01*
X180278352Y-82920217D01*
X180315499Y-82705104D01*
X179705000Y-82094605D01*
X179690858Y-82108748D01*
X179511253Y-81929143D01*
X179525395Y-81915000D01*
X179884605Y-81915000D01*
X180495104Y-82525499D01*
X180710217Y-82488352D01*
X180853112Y-82060028D01*
X180821217Y-81609625D01*
X180710217Y-81341648D01*
X180495104Y-81304501D01*
X179884605Y-81915000D01*
X179525395Y-81915000D01*
X178914896Y-81304501D01*
X178699783Y-81341648D01*
X178556888Y-81769972D01*
X178578929Y-82081227D01*
X177622598Y-81124896D01*
X179094501Y-81124896D01*
X179705000Y-81735395D01*
X180315499Y-81124896D01*
X180278352Y-80909783D01*
X179850028Y-80766888D01*
X179399625Y-80798783D01*
X179131648Y-80909783D01*
X179094501Y-81124896D01*
X177622598Y-81124896D01*
X177046801Y-80549099D01*
X176800239Y-80384352D01*
X176509400Y-80326500D01*
X175818300Y-80326500D01*
X175527461Y-80384352D01*
X175280899Y-80549099D01*
X163257899Y-92572099D01*
X163093152Y-92818661D01*
X163035300Y-93109500D01*
X163035300Y-95314100D01*
X154405538Y-95314100D01*
X154438757Y-95234100D01*
X154439242Y-94678339D01*
X154227010Y-94164697D01*
X153834370Y-93771371D01*
X153626488Y-93685051D01*
X153832303Y-93600010D01*
X154225629Y-93207370D01*
X154438757Y-92694100D01*
X154439242Y-92138339D01*
X154227010Y-91624697D01*
X153834370Y-91231371D01*
X153626488Y-91145051D01*
X153832303Y-91060010D01*
X154225629Y-90667370D01*
X154438757Y-90154100D01*
X154439242Y-89598339D01*
X154227010Y-89084697D01*
X153834370Y-88691371D01*
X153626488Y-88605051D01*
X153832303Y-88520010D01*
X154225629Y-88127370D01*
X154438757Y-87614100D01*
X154439242Y-87058339D01*
X154227010Y-86544697D01*
X153834370Y-86151371D01*
X153321100Y-85938243D01*
X152765339Y-85937758D01*
X152251697Y-86149990D01*
X151858371Y-86542630D01*
X151645243Y-87055900D01*
X151644758Y-87611661D01*
X151856990Y-88125303D01*
X152249630Y-88518629D01*
X152457512Y-88604949D01*
X152251697Y-88689990D01*
X151858371Y-89082630D01*
X151645243Y-89595900D01*
X151644758Y-90151661D01*
X151856990Y-90665303D01*
X152249630Y-91058629D01*
X152457512Y-91144949D01*
X152251697Y-91229990D01*
X151858371Y-91622630D01*
X151645243Y-92135900D01*
X151644758Y-92691661D01*
X151856990Y-93205303D01*
X152249630Y-93598629D01*
X152457512Y-93684949D01*
X152251697Y-93769990D01*
X151858371Y-94162630D01*
X151645243Y-94675900D01*
X151644758Y-95231661D01*
X151678821Y-95314100D01*
X146553902Y-95314100D01*
X146164183Y-94924381D01*
X146176757Y-94894100D01*
X146177242Y-94338339D01*
X145965010Y-93824697D01*
X145572370Y-93431371D01*
X145380273Y-93351605D01*
X145511143Y-93297397D01*
X145580608Y-93055213D01*
X144780000Y-92254605D01*
X143979392Y-93055213D01*
X144048857Y-93297397D01*
X144189318Y-93347509D01*
X143989697Y-93429990D01*
X143596371Y-93822630D01*
X143383243Y-94335900D01*
X143382758Y-94891661D01*
X143594990Y-95405303D01*
X143987630Y-95798629D01*
X144500900Y-96011757D01*
X145056661Y-96012242D01*
X145089055Y-95998857D01*
X145701699Y-96611501D01*
X145948261Y-96776248D01*
X146239100Y-96834100D01*
X151803780Y-96834100D01*
X151645243Y-97215900D01*
X151644758Y-97771661D01*
X151856990Y-98285303D01*
X152249630Y-98678629D01*
X152441727Y-98758395D01*
X152310857Y-98812603D01*
X152241392Y-99054787D01*
X153042000Y-99855395D01*
X153842608Y-99054787D01*
X153773143Y-98812603D01*
X153632682Y-98762491D01*
X153832303Y-98680010D01*
X154225629Y-98287370D01*
X154438757Y-97774100D01*
X154439242Y-97218339D01*
X154280478Y-96834100D01*
X163329598Y-96834100D01*
X164448627Y-97953129D01*
X164308569Y-98158110D01*
X164257560Y-98410000D01*
X164257560Y-99275300D01*
X163201700Y-99275300D01*
X162910861Y-99333152D01*
X162664299Y-99497899D01*
X153351381Y-108810817D01*
X153321100Y-108798243D01*
X152765339Y-108797758D01*
X152251697Y-109009990D01*
X151858371Y-109402630D01*
X151645243Y-109915900D01*
X151644999Y-110195386D01*
X148191856Y-106742244D01*
X148123654Y-106696673D01*
X147929074Y-106566658D01*
X147619100Y-106505000D01*
X145945347Y-106505000D01*
X145572370Y-106131371D01*
X145380273Y-106051605D01*
X145511143Y-105997397D01*
X145580608Y-105755213D01*
X144780000Y-104954605D01*
X143979392Y-105755213D01*
X144048857Y-105997397D01*
X144189318Y-106047509D01*
X143989697Y-106129990D01*
X143596371Y-106522630D01*
X143383243Y-107035900D01*
X143382758Y-107591661D01*
X143594990Y-108105303D01*
X143987630Y-108498629D01*
X144500900Y-108711757D01*
X145056661Y-108712242D01*
X145570303Y-108500010D01*
X145945968Y-108125000D01*
X147283588Y-108125000D01*
X151091900Y-111933313D01*
X151091900Y-126035233D01*
X150918066Y-126208764D01*
X150705242Y-126721300D01*
X150704758Y-127276265D01*
X150863314Y-127660000D01*
X147574258Y-127660000D01*
X147294563Y-126983085D01*
X146580673Y-126267948D01*
X145647454Y-125880441D01*
X144636979Y-125879560D01*
X143703085Y-126265437D01*
X142987948Y-126979327D01*
X142600441Y-127912546D01*
X142599560Y-128923021D01*
X142985437Y-129856915D01*
X143699327Y-130572052D01*
X144632546Y-130959559D01*
X145643021Y-130960440D01*
X146576915Y-130574563D01*
X147292052Y-129860673D01*
X147574693Y-129180000D01*
X152253572Y-129180000D01*
X152095242Y-129561300D01*
X152094758Y-130116265D01*
X152306687Y-130629172D01*
X152698764Y-131021934D01*
X153211300Y-131234758D01*
X153766265Y-131235242D01*
X154279172Y-131023313D01*
X154671934Y-130631236D01*
X154875238Y-130141628D01*
X155076687Y-130629172D01*
X155468764Y-131021934D01*
X155981300Y-131234758D01*
X156536265Y-131235242D01*
X157049172Y-131023313D01*
X157441934Y-130631236D01*
X157645238Y-130141628D01*
X157846687Y-130629172D01*
X158238764Y-131021934D01*
X158751300Y-131234758D01*
X159306265Y-131235242D01*
X159819172Y-131023313D01*
X160211934Y-130631236D01*
X160415238Y-130141628D01*
X160616687Y-130629172D01*
X161008764Y-131021934D01*
X161521300Y-131234758D01*
X162076265Y-131235242D01*
X162589172Y-131023313D01*
X162981934Y-130631236D01*
X163185238Y-130141628D01*
X163386687Y-130629172D01*
X163778764Y-131021934D01*
X164291300Y-131234758D01*
X164846265Y-131235242D01*
X165359172Y-131023313D01*
X165751934Y-130631236D01*
X165955238Y-130141628D01*
X166156687Y-130629172D01*
X166548764Y-131021934D01*
X167061300Y-131234758D01*
X167616265Y-131235242D01*
X168129172Y-131023313D01*
X168521934Y-130631236D01*
X168720225Y-130153699D01*
X168916687Y-130629172D01*
X169308764Y-131021934D01*
X169821300Y-131234758D01*
X170376265Y-131235242D01*
X170889172Y-131023313D01*
X171281934Y-130631236D01*
X171485238Y-130141628D01*
X171686687Y-130629172D01*
X172078764Y-131021934D01*
X172591300Y-131234758D01*
X173146265Y-131235242D01*
X173659172Y-131023313D01*
X174051934Y-130631236D01*
X174255238Y-130141628D01*
X174456687Y-130629172D01*
X174848764Y-131021934D01*
X175361300Y-131234758D01*
X175916265Y-131235242D01*
X176429172Y-131023313D01*
X176821934Y-130631236D01*
X177025238Y-130141628D01*
X177226687Y-130629172D01*
X177618764Y-131021934D01*
X178131300Y-131234758D01*
X178686265Y-131235242D01*
X179199172Y-131023313D01*
X179591934Y-130631236D01*
X179795238Y-130141628D01*
X179996687Y-130629172D01*
X180388764Y-131021934D01*
X180901300Y-131234758D01*
X181456265Y-131235242D01*
X181969172Y-131023313D01*
X182361934Y-130631236D01*
X182565238Y-130141628D01*
X182766687Y-130629172D01*
X183158764Y-131021934D01*
X183671300Y-131234758D01*
X184226265Y-131235242D01*
X184739172Y-131023313D01*
X185131934Y-130631236D01*
X185335238Y-130141628D01*
X185536687Y-130629172D01*
X185928764Y-131021934D01*
X186441300Y-131234758D01*
X186996265Y-131235242D01*
X187509172Y-131023313D01*
X187901934Y-130631236D01*
X188100225Y-130153699D01*
X188296687Y-130629172D01*
X188688764Y-131021934D01*
X189201300Y-131234758D01*
X189756265Y-131235242D01*
X190269172Y-131023313D01*
X190661934Y-130631236D01*
X190865238Y-130141628D01*
X191066687Y-130629172D01*
X191458764Y-131021934D01*
X191971300Y-131234758D01*
X192526265Y-131235242D01*
X193039172Y-131023313D01*
X193431934Y-130631236D01*
X193635238Y-130141628D01*
X193836687Y-130629172D01*
X194228764Y-131021934D01*
X194741300Y-131234758D01*
X195296265Y-131235242D01*
X195809172Y-131023313D01*
X196201934Y-130631236D01*
X196405238Y-130141628D01*
X196606687Y-130629172D01*
X196998764Y-131021934D01*
X197511300Y-131234758D01*
X198066265Y-131235242D01*
X198579172Y-131023313D01*
X198971934Y-130631236D01*
X199175238Y-130141628D01*
X199376687Y-130629172D01*
X199768764Y-131021934D01*
X200281300Y-131234758D01*
X200836265Y-131235242D01*
X201349172Y-131023313D01*
X201741934Y-130631236D01*
X201954758Y-130118700D01*
X201955242Y-129563735D01*
X201796686Y-129180000D01*
X206205742Y-129180000D01*
X206485437Y-129856915D01*
X207199327Y-130572052D01*
X208132546Y-130959559D01*
X209143021Y-130960440D01*
X210076915Y-130574563D01*
X210792052Y-129860673D01*
X211179559Y-128927454D01*
X211180440Y-127916979D01*
X210794563Y-126983085D01*
X210080673Y-126267948D01*
X209147454Y-125880441D01*
X208136979Y-125879560D01*
X207203085Y-126265437D01*
X206487948Y-126979327D01*
X206205307Y-127660000D01*
X203337440Y-127660000D01*
X203337440Y-126240000D01*
X203293162Y-126004683D01*
X203154090Y-125788559D01*
X202941890Y-125643569D01*
X202690000Y-125592560D01*
X201170000Y-125592560D01*
X200934683Y-125636838D01*
X200718559Y-125775910D01*
X200573569Y-125988110D01*
X200522560Y-126240000D01*
X200522560Y-126644639D01*
X200343313Y-126210828D01*
X199951236Y-125818066D01*
X199438700Y-125605242D01*
X198883735Y-125604758D01*
X198370828Y-125816687D01*
X197978066Y-126208764D01*
X197774762Y-126698372D01*
X197685538Y-126482433D01*
X197690000Y-126460000D01*
X197690000Y-123215558D01*
X197915317Y-123173162D01*
X198131441Y-123034090D01*
X198276431Y-122821890D01*
X198327440Y-122570000D01*
X198327440Y-121270000D01*
X198283162Y-121034683D01*
X198144090Y-120818559D01*
X197931890Y-120673569D01*
X197680000Y-120622560D01*
X197137542Y-120622560D01*
X198387401Y-119372701D01*
X198552148Y-119126140D01*
X198557579Y-119098837D01*
X198751441Y-118974090D01*
X198896431Y-118761890D01*
X198947440Y-118510000D01*
X198947440Y-117710000D01*
X198903162Y-117474683D01*
X198860000Y-117407607D01*
X198860000Y-114300558D01*
X199085317Y-114258162D01*
X199301441Y-114119090D01*
X199446431Y-113906890D01*
X199497440Y-113655000D01*
X199497440Y-112405000D01*
X199453162Y-112169683D01*
X199314090Y-111953559D01*
X199101890Y-111808569D01*
X198860000Y-111759585D01*
X198860000Y-110549219D01*
X198881234Y-110517440D01*
X198950000Y-110517440D01*
X199185317Y-110473162D01*
X199401441Y-110334090D01*
X199546431Y-110121890D01*
X199597440Y-109870000D01*
X199597440Y-108570000D01*
X199553162Y-108334683D01*
X199414090Y-108118559D01*
X199201890Y-107973569D01*
X198950000Y-107922560D01*
X197450000Y-107922560D01*
X197214683Y-107966838D01*
X196998559Y-108105910D01*
X196853569Y-108318110D01*
X196846809Y-108351490D01*
X196788327Y-108210301D01*
X196609698Y-108031673D01*
X196376309Y-107935000D01*
X195785750Y-107935000D01*
X195627000Y-108093750D01*
X195627000Y-109093000D01*
X195647000Y-109093000D01*
X195647000Y-109347000D01*
X195627000Y-109347000D01*
X195627000Y-110346250D01*
X195785750Y-110505000D01*
X196376309Y-110505000D01*
X196609698Y-110408327D01*
X196788327Y-110229699D01*
X196844654Y-110093713D01*
X196846838Y-110105317D01*
X196985910Y-110321441D01*
X197198110Y-110466431D01*
X197340000Y-110495164D01*
X197340000Y-111759442D01*
X197114683Y-111801838D01*
X196898559Y-111940910D01*
X196852031Y-112009006D01*
X196709698Y-111866673D01*
X196476309Y-111770000D01*
X195885750Y-111770000D01*
X195727000Y-111928750D01*
X195727000Y-112903000D01*
X195747000Y-112903000D01*
X195747000Y-113157000D01*
X195727000Y-113157000D01*
X195727000Y-114131250D01*
X195885750Y-114290000D01*
X196476309Y-114290000D01*
X196709698Y-114193327D01*
X196850936Y-114052090D01*
X196885910Y-114106441D01*
X197098110Y-114251431D01*
X197340000Y-114300415D01*
X197340000Y-117073850D01*
X197164683Y-117106838D01*
X196948559Y-117245910D01*
X196861936Y-117372686D01*
X196776250Y-117287000D01*
X195977000Y-117287000D01*
X195977000Y-117307000D01*
X195723000Y-117307000D01*
X195723000Y-117287000D01*
X195703000Y-117287000D01*
X195703000Y-117033000D01*
X195723000Y-117033000D01*
X195723000Y-116283750D01*
X195977000Y-116283750D01*
X195977000Y-117033000D01*
X196776250Y-117033000D01*
X196935000Y-116874250D01*
X196935000Y-116633690D01*
X196838327Y-116400301D01*
X196659698Y-116221673D01*
X196426309Y-116125000D01*
X196135750Y-116125000D01*
X195977000Y-116283750D01*
X195723000Y-116283750D01*
X195564250Y-116125000D01*
X195273691Y-116125000D01*
X195040302Y-116221673D01*
X194861673Y-116400301D01*
X194846276Y-116437474D01*
X192537500Y-114128698D01*
X192537500Y-113315750D01*
X194215000Y-113315750D01*
X194215000Y-113781310D01*
X194311673Y-114014699D01*
X194490302Y-114193327D01*
X194723691Y-114290000D01*
X195314250Y-114290000D01*
X195473000Y-114131250D01*
X195473000Y-113157000D01*
X194373750Y-113157000D01*
X194215000Y-113315750D01*
X192537500Y-113315750D01*
X192537500Y-112278690D01*
X194215000Y-112278690D01*
X194215000Y-112744250D01*
X194373750Y-112903000D01*
X195473000Y-112903000D01*
X195473000Y-111928750D01*
X195314250Y-111770000D01*
X194723691Y-111770000D01*
X194490302Y-111866673D01*
X194311673Y-112045301D01*
X194215000Y-112278690D01*
X192537500Y-112278690D01*
X192537500Y-111212800D01*
X192500153Y-111025044D01*
X192479648Y-110921960D01*
X192314901Y-110675399D01*
X191145252Y-109505750D01*
X194115000Y-109505750D01*
X194115000Y-109996310D01*
X194211673Y-110229699D01*
X194390302Y-110408327D01*
X194623691Y-110505000D01*
X195214250Y-110505000D01*
X195373000Y-110346250D01*
X195373000Y-109347000D01*
X194273750Y-109347000D01*
X194115000Y-109505750D01*
X191145252Y-109505750D01*
X190083192Y-108443690D01*
X194115000Y-108443690D01*
X194115000Y-108934250D01*
X194273750Y-109093000D01*
X195373000Y-109093000D01*
X195373000Y-108093750D01*
X195214250Y-107935000D01*
X194623691Y-107935000D01*
X194390302Y-108031673D01*
X194211673Y-108210301D01*
X194115000Y-108443690D01*
X190083192Y-108443690D01*
X187779700Y-106140198D01*
X187779700Y-105391661D01*
X199904758Y-105391661D01*
X200116990Y-105905303D01*
X200509630Y-106298629D01*
X200717512Y-106384949D01*
X200511697Y-106469990D01*
X200118371Y-106862630D01*
X199905243Y-107375900D01*
X199904758Y-107931661D01*
X200116990Y-108445303D01*
X200509630Y-108838629D01*
X200717512Y-108924949D01*
X200511697Y-109009990D01*
X200118371Y-109402630D01*
X199905243Y-109915900D01*
X199904758Y-110471661D01*
X200116990Y-110985303D01*
X200509630Y-111378629D01*
X200717512Y-111464949D01*
X200511697Y-111549990D01*
X200118371Y-111942630D01*
X199905243Y-112455900D01*
X199904758Y-113011661D01*
X200116990Y-113525303D01*
X200509630Y-113918629D01*
X200717512Y-114004949D01*
X200511697Y-114089990D01*
X200118371Y-114482630D01*
X199905243Y-114995900D01*
X199904758Y-115551661D01*
X200116990Y-116065303D01*
X200509630Y-116458629D01*
X200717512Y-116544949D01*
X200511697Y-116629990D01*
X200118371Y-117022630D01*
X199905243Y-117535900D01*
X199904758Y-118091661D01*
X200116990Y-118605303D01*
X200509630Y-118998629D01*
X200717512Y-119084949D01*
X200511697Y-119169990D01*
X200118371Y-119562630D01*
X199905243Y-120075900D01*
X199904758Y-120631661D01*
X200116990Y-121145303D01*
X200509630Y-121538629D01*
X200717512Y-121624949D01*
X200511697Y-121709990D01*
X200118371Y-122102630D01*
X199905243Y-122615900D01*
X199904758Y-123171661D01*
X200116990Y-123685303D01*
X200509630Y-124078629D01*
X201022900Y-124291757D01*
X201578661Y-124292242D01*
X202092303Y-124080010D01*
X202485629Y-123687370D01*
X202698757Y-123174100D01*
X202699242Y-122618339D01*
X202487010Y-122104697D01*
X202094370Y-121711371D01*
X201886488Y-121625051D01*
X202092303Y-121540010D01*
X202485629Y-121147370D01*
X202698757Y-120634100D01*
X202699242Y-120078339D01*
X202487010Y-119564697D01*
X202094370Y-119171371D01*
X201886488Y-119085051D01*
X202092303Y-119000010D01*
X202485629Y-118607370D01*
X202698757Y-118094100D01*
X202699242Y-117538339D01*
X202487010Y-117024697D01*
X202094370Y-116631371D01*
X201886488Y-116545051D01*
X202092303Y-116460010D01*
X202485629Y-116067370D01*
X202698757Y-115554100D01*
X202699242Y-114998339D01*
X202487010Y-114484697D01*
X202094370Y-114091371D01*
X201886488Y-114005051D01*
X202092303Y-113920010D01*
X202485629Y-113527370D01*
X202698757Y-113014100D01*
X202699242Y-112458339D01*
X202487010Y-111944697D01*
X202094370Y-111551371D01*
X201886488Y-111465051D01*
X202092303Y-111380010D01*
X202485629Y-110987370D01*
X202698757Y-110474100D01*
X202699242Y-109918339D01*
X202487010Y-109404697D01*
X202094370Y-109011371D01*
X201886488Y-108925051D01*
X202092303Y-108840010D01*
X202485629Y-108447370D01*
X202698757Y-107934100D01*
X202699242Y-107378339D01*
X202487010Y-106864697D01*
X202094370Y-106471371D01*
X201886488Y-106385051D01*
X202092303Y-106300010D01*
X202485629Y-105907370D01*
X202698757Y-105394100D01*
X202699242Y-104838339D01*
X202487010Y-104324697D01*
X202094370Y-103931371D01*
X201581100Y-103718243D01*
X201025339Y-103717758D01*
X200511697Y-103929990D01*
X200118371Y-104322630D01*
X199905243Y-104835900D01*
X199904758Y-105391661D01*
X187779700Y-105391661D01*
X187779700Y-95562440D01*
X188895000Y-95562440D01*
X189130317Y-95518162D01*
X189346441Y-95379090D01*
X189369516Y-95345319D01*
X189511139Y-95317148D01*
X189757701Y-95152401D01*
X191145000Y-93765102D01*
X191145000Y-94201309D01*
X191241673Y-94434698D01*
X191420301Y-94613327D01*
X191653690Y-94710000D01*
X192119250Y-94710000D01*
X192278000Y-94551250D01*
X192278000Y-93452000D01*
X192532000Y-93452000D01*
X192532000Y-94551250D01*
X192690750Y-94710000D01*
X193156310Y-94710000D01*
X193389699Y-94613327D01*
X193568327Y-94434698D01*
X193665000Y-94201309D01*
X193665000Y-93610750D01*
X193506250Y-93452000D01*
X192532000Y-93452000D01*
X192278000Y-93452000D01*
X192258000Y-93452000D01*
X192258000Y-93198000D01*
X192278000Y-93198000D01*
X192278000Y-93178000D01*
X192532000Y-93178000D01*
X192532000Y-93198000D01*
X193506250Y-93198000D01*
X193665000Y-93039250D01*
X193665000Y-92486175D01*
X193691601Y-92468401D01*
X194211401Y-91948601D01*
X194376148Y-91702040D01*
X194434000Y-91411200D01*
X194434000Y-89671002D01*
X200094392Y-84010610D01*
X200116990Y-84065303D01*
X200509630Y-84458629D01*
X200717512Y-84544949D01*
X200511697Y-84629990D01*
X200118371Y-85022630D01*
X199905243Y-85535900D01*
X199904758Y-86091661D01*
X200116990Y-86605303D01*
X200509630Y-86998629D01*
X200717512Y-87084949D01*
X200511697Y-87169990D01*
X200118371Y-87562630D01*
X199905243Y-88075900D01*
X199904758Y-88631661D01*
X200116990Y-89145303D01*
X200509630Y-89538629D01*
X200717512Y-89624949D01*
X200511697Y-89709990D01*
X200118371Y-90102630D01*
X199905243Y-90615900D01*
X199904758Y-91171661D01*
X200116990Y-91685303D01*
X200509630Y-92078629D01*
X200717512Y-92164949D01*
X200511697Y-92249990D01*
X200118371Y-92642630D01*
X199905243Y-93155900D01*
X199904758Y-93711661D01*
X200116990Y-94225303D01*
X200509630Y-94618629D01*
X200717512Y-94704949D01*
X200511697Y-94789990D01*
X200118371Y-95182630D01*
X199905243Y-95695900D01*
X199904758Y-96251661D01*
X200116990Y-96765303D01*
X200509630Y-97158629D01*
X200717512Y-97244949D01*
X200511697Y-97329990D01*
X200118371Y-97722630D01*
X199905243Y-98235900D01*
X199904758Y-98791661D01*
X200116990Y-99305303D01*
X200509630Y-99698629D01*
X200717512Y-99784949D01*
X200511697Y-99869990D01*
X200118371Y-100262630D01*
X199905243Y-100775900D01*
X199904758Y-101331661D01*
X200116990Y-101845303D01*
X200509630Y-102238629D01*
X201022900Y-102451757D01*
X201578661Y-102452242D01*
X202092303Y-102240010D01*
X202485629Y-101847370D01*
X202698757Y-101334100D01*
X202699242Y-100778339D01*
X202487010Y-100264697D01*
X202094370Y-99871371D01*
X201886488Y-99785051D01*
X202092303Y-99700010D01*
X202485629Y-99307370D01*
X202698757Y-98794100D01*
X202699242Y-98238339D01*
X202487010Y-97724697D01*
X202094370Y-97331371D01*
X201886488Y-97245051D01*
X202092303Y-97160010D01*
X202485629Y-96767370D01*
X202698757Y-96254100D01*
X202699242Y-95698339D01*
X202487010Y-95184697D01*
X202094370Y-94791371D01*
X201886488Y-94705051D01*
X202092303Y-94620010D01*
X202485629Y-94227370D01*
X202698757Y-93714100D01*
X202699242Y-93158339D01*
X202487010Y-92644697D01*
X202094370Y-92251371D01*
X201886488Y-92165051D01*
X202092303Y-92080010D01*
X202485629Y-91687370D01*
X202698757Y-91174100D01*
X202699242Y-90618339D01*
X202487010Y-90104697D01*
X202094370Y-89711371D01*
X201886488Y-89625051D01*
X202092303Y-89540010D01*
X202485629Y-89147370D01*
X202698757Y-88634100D01*
X202699242Y-88078339D01*
X202487010Y-87564697D01*
X202094370Y-87171371D01*
X201886488Y-87085051D01*
X202092303Y-87000010D01*
X202485629Y-86607370D01*
X202698757Y-86094100D01*
X202699242Y-85538339D01*
X202487010Y-85024697D01*
X202094370Y-84631371D01*
X201886488Y-84545051D01*
X202092303Y-84460010D01*
X202485629Y-84067370D01*
X202698757Y-83554100D01*
X202699242Y-82998339D01*
X202487010Y-82484697D01*
X202338437Y-82335865D01*
X202929501Y-81744801D01*
X203094248Y-81498239D01*
X203152100Y-81207400D01*
X203152100Y-79285100D01*
X203094248Y-78994261D01*
X203094248Y-78994260D01*
X202929501Y-78747699D01*
X202686183Y-78504381D01*
X202698757Y-78474100D01*
X202699242Y-77918339D01*
X202487010Y-77404697D01*
X202094370Y-77011371D01*
X201850241Y-76910000D01*
X211790000Y-76910000D01*
X211790000Y-132640000D01*
X141680000Y-132640000D01*
X141680000Y-104567302D01*
X143370856Y-104567302D01*
X143398638Y-105122368D01*
X143557603Y-105506143D01*
X143799787Y-105575608D01*
X144600395Y-104775000D01*
X144959605Y-104775000D01*
X145760213Y-105575608D01*
X146002397Y-105506143D01*
X146043240Y-105391661D01*
X151644758Y-105391661D01*
X151856990Y-105905303D01*
X152249630Y-106298629D01*
X152762900Y-106511757D01*
X153318661Y-106512242D01*
X153832303Y-106300010D01*
X154225629Y-105907370D01*
X154438757Y-105394100D01*
X154439242Y-104838339D01*
X154227010Y-104324697D01*
X153834370Y-103931371D01*
X153642273Y-103851605D01*
X153773143Y-103797397D01*
X153842608Y-103555213D01*
X153042000Y-102754605D01*
X152241392Y-103555213D01*
X152310857Y-103797397D01*
X152451318Y-103847509D01*
X152251697Y-103929990D01*
X151858371Y-104322630D01*
X151645243Y-104835900D01*
X151644758Y-105391661D01*
X146043240Y-105391661D01*
X146189144Y-104982698D01*
X146161362Y-104427632D01*
X146002397Y-104043857D01*
X145760213Y-103974392D01*
X144959605Y-104775000D01*
X144600395Y-104775000D01*
X143799787Y-103974392D01*
X143557603Y-104043857D01*
X143370856Y-104567302D01*
X141680000Y-104567302D01*
X141680000Y-103794787D01*
X143979392Y-103794787D01*
X144780000Y-104595395D01*
X145580608Y-103794787D01*
X145511143Y-103552603D01*
X144987698Y-103365856D01*
X144432632Y-103393638D01*
X144048857Y-103552603D01*
X143979392Y-103794787D01*
X141680000Y-103794787D01*
X141680000Y-102367302D01*
X151632856Y-102367302D01*
X151660638Y-102922368D01*
X151819603Y-103306143D01*
X152061787Y-103375608D01*
X152862395Y-102575000D01*
X153221605Y-102575000D01*
X154022213Y-103375608D01*
X154264397Y-103306143D01*
X154451144Y-102782698D01*
X154423362Y-102227632D01*
X154264397Y-101843857D01*
X154022213Y-101774392D01*
X153221605Y-102575000D01*
X152862395Y-102575000D01*
X152061787Y-101774392D01*
X151819603Y-101843857D01*
X151632856Y-102367302D01*
X141680000Y-102367302D01*
X141680000Y-101015213D01*
X152241392Y-101015213D01*
X152310857Y-101257397D01*
X152434344Y-101301453D01*
X152310857Y-101352603D01*
X152241392Y-101594787D01*
X153042000Y-102395395D01*
X153842608Y-101594787D01*
X153773143Y-101352603D01*
X153649656Y-101308547D01*
X153773143Y-101257397D01*
X153842608Y-101015213D01*
X153042000Y-100214605D01*
X152241392Y-101015213D01*
X141680000Y-101015213D01*
X141680000Y-99827302D01*
X151632856Y-99827302D01*
X151660638Y-100382368D01*
X151819603Y-100766143D01*
X152061787Y-100835608D01*
X152862395Y-100035000D01*
X153221605Y-100035000D01*
X154022213Y-100835608D01*
X154264397Y-100766143D01*
X154451144Y-100242698D01*
X154423362Y-99687632D01*
X154264397Y-99303857D01*
X154022213Y-99234392D01*
X153221605Y-100035000D01*
X152862395Y-100035000D01*
X152061787Y-99234392D01*
X151819603Y-99303857D01*
X151632856Y-99827302D01*
X141680000Y-99827302D01*
X141680000Y-91867302D01*
X143370856Y-91867302D01*
X143398638Y-92422368D01*
X143557603Y-92806143D01*
X143799787Y-92875608D01*
X144600395Y-92075000D01*
X144959605Y-92075000D01*
X145760213Y-92875608D01*
X146002397Y-92806143D01*
X146189144Y-92282698D01*
X146161362Y-91727632D01*
X146002397Y-91343857D01*
X145760213Y-91274392D01*
X144959605Y-92075000D01*
X144600395Y-92075000D01*
X143799787Y-91274392D01*
X143557603Y-91343857D01*
X143370856Y-91867302D01*
X141680000Y-91867302D01*
X141680000Y-91094787D01*
X143979392Y-91094787D01*
X144780000Y-91895395D01*
X145580608Y-91094787D01*
X145511143Y-90852603D01*
X144987698Y-90665856D01*
X144432632Y-90693638D01*
X144048857Y-90852603D01*
X143979392Y-91094787D01*
X141680000Y-91094787D01*
X141680000Y-76910000D01*
X200753692Y-76910000D01*
X200511697Y-77009990D01*
X200511697Y-77009990D01*
G37*
X200511697Y-77009990D02*
X200118371Y-77402630D01*
X199905243Y-77915900D01*
X199904758Y-78471661D01*
X200116990Y-78985303D01*
X200509630Y-79378629D01*
X200717512Y-79464949D01*
X200511697Y-79549990D01*
X200118371Y-79942630D01*
X200104930Y-79975000D01*
X199290300Y-79975000D01*
X198999461Y-80032852D01*
X198752899Y-80197599D01*
X189059605Y-89890893D01*
X188895000Y-89857560D01*
X187345000Y-89857560D01*
X187109683Y-89901838D01*
X186893559Y-90040910D01*
X186749479Y-90251777D01*
X179560758Y-83063056D01*
X180010375Y-83031217D01*
X180278352Y-82920217D01*
X180315499Y-82705104D01*
X179705000Y-82094605D01*
X179690858Y-82108748D01*
X179511253Y-81929143D01*
X179525395Y-81915000D01*
X179884605Y-81915000D01*
X180495104Y-82525499D01*
X180710217Y-82488352D01*
X180853112Y-82060028D01*
X180821217Y-81609625D01*
X180710217Y-81341648D01*
X180495104Y-81304501D01*
X179884605Y-81915000D01*
X179525395Y-81915000D01*
X178914896Y-81304501D01*
X178699783Y-81341648D01*
X178556888Y-81769972D01*
X178578929Y-82081227D01*
X177622598Y-81124896D01*
X179094501Y-81124896D01*
X179705000Y-81735395D01*
X180315499Y-81124896D01*
X180278352Y-80909783D01*
X179850028Y-80766888D01*
X179399625Y-80798783D01*
X179131648Y-80909783D01*
X179094501Y-81124896D01*
X177622598Y-81124896D01*
X177046801Y-80549099D01*
X176800239Y-80384352D01*
X176509400Y-80326500D01*
X175818300Y-80326500D01*
X175527461Y-80384352D01*
X175280899Y-80549099D01*
X163257899Y-92572099D01*
X163093152Y-92818661D01*
X163035300Y-93109500D01*
X163035300Y-95314100D01*
X154405538Y-95314100D01*
X154438757Y-95234100D01*
X154439242Y-94678339D01*
X154227010Y-94164697D01*
X153834370Y-93771371D01*
X153626488Y-93685051D01*
X153832303Y-93600010D01*
X154225629Y-93207370D01*
X154438757Y-92694100D01*
X154439242Y-92138339D01*
X154227010Y-91624697D01*
X153834370Y-91231371D01*
X153626488Y-91145051D01*
X153832303Y-91060010D01*
X154225629Y-90667370D01*
X154438757Y-90154100D01*
X154439242Y-89598339D01*
X154227010Y-89084697D01*
X153834370Y-88691371D01*
X153626488Y-88605051D01*
X153832303Y-88520010D01*
X154225629Y-88127370D01*
X154438757Y-87614100D01*
X154439242Y-87058339D01*
X154227010Y-86544697D01*
X153834370Y-86151371D01*
X153321100Y-85938243D01*
X152765339Y-85937758D01*
X152251697Y-86149990D01*
X151858371Y-86542630D01*
X151645243Y-87055900D01*
X151644758Y-87611661D01*
X151856990Y-88125303D01*
X152249630Y-88518629D01*
X152457512Y-88604949D01*
X152251697Y-88689990D01*
X151858371Y-89082630D01*
X151645243Y-89595900D01*
X151644758Y-90151661D01*
X151856990Y-90665303D01*
X152249630Y-91058629D01*
X152457512Y-91144949D01*
X152251697Y-91229990D01*
X151858371Y-91622630D01*
X151645243Y-92135900D01*
X151644758Y-92691661D01*
X151856990Y-93205303D01*
X152249630Y-93598629D01*
X152457512Y-93684949D01*
X152251697Y-93769990D01*
X151858371Y-94162630D01*
X151645243Y-94675900D01*
X151644758Y-95231661D01*
X151678821Y-95314100D01*
X146553902Y-95314100D01*
X146164183Y-94924381D01*
X146176757Y-94894100D01*
X146177242Y-94338339D01*
X145965010Y-93824697D01*
X145572370Y-93431371D01*
X145380273Y-93351605D01*
X145511143Y-93297397D01*
X145580608Y-93055213D01*
X144780000Y-92254605D01*
X143979392Y-93055213D01*
X144048857Y-93297397D01*
X144189318Y-93347509D01*
X143989697Y-93429990D01*
X143596371Y-93822630D01*
X143383243Y-94335900D01*
X143382758Y-94891661D01*
X143594990Y-95405303D01*
X143987630Y-95798629D01*
X144500900Y-96011757D01*
X145056661Y-96012242D01*
X145089055Y-95998857D01*
X145701699Y-96611501D01*
X145948261Y-96776248D01*
X146239100Y-96834100D01*
X151803780Y-96834100D01*
X151645243Y-97215900D01*
X151644758Y-97771661D01*
X151856990Y-98285303D01*
X152249630Y-98678629D01*
X152441727Y-98758395D01*
X152310857Y-98812603D01*
X152241392Y-99054787D01*
X153042000Y-99855395D01*
X153842608Y-99054787D01*
X153773143Y-98812603D01*
X153632682Y-98762491D01*
X153832303Y-98680010D01*
X154225629Y-98287370D01*
X154438757Y-97774100D01*
X154439242Y-97218339D01*
X154280478Y-96834100D01*
X163329598Y-96834100D01*
X164448627Y-97953129D01*
X164308569Y-98158110D01*
X164257560Y-98410000D01*
X164257560Y-99275300D01*
X163201700Y-99275300D01*
X162910861Y-99333152D01*
X162664299Y-99497899D01*
X153351381Y-108810817D01*
X153321100Y-108798243D01*
X152765339Y-108797758D01*
X152251697Y-109009990D01*
X151858371Y-109402630D01*
X151645243Y-109915900D01*
X151644999Y-110195386D01*
X148191856Y-106742244D01*
X148123654Y-106696673D01*
X147929074Y-106566658D01*
X147619100Y-106505000D01*
X145945347Y-106505000D01*
X145572370Y-106131371D01*
X145380273Y-106051605D01*
X145511143Y-105997397D01*
X145580608Y-105755213D01*
X144780000Y-104954605D01*
X143979392Y-105755213D01*
X144048857Y-105997397D01*
X144189318Y-106047509D01*
X143989697Y-106129990D01*
X143596371Y-106522630D01*
X143383243Y-107035900D01*
X143382758Y-107591661D01*
X143594990Y-108105303D01*
X143987630Y-108498629D01*
X144500900Y-108711757D01*
X145056661Y-108712242D01*
X145570303Y-108500010D01*
X145945968Y-108125000D01*
X147283588Y-108125000D01*
X151091900Y-111933313D01*
X151091900Y-126035233D01*
X150918066Y-126208764D01*
X150705242Y-126721300D01*
X150704758Y-127276265D01*
X150863314Y-127660000D01*
X147574258Y-127660000D01*
X147294563Y-126983085D01*
X146580673Y-126267948D01*
X145647454Y-125880441D01*
X144636979Y-125879560D01*
X143703085Y-126265437D01*
X142987948Y-126979327D01*
X142600441Y-127912546D01*
X142599560Y-128923021D01*
X142985437Y-129856915D01*
X143699327Y-130572052D01*
X144632546Y-130959559D01*
X145643021Y-130960440D01*
X146576915Y-130574563D01*
X147292052Y-129860673D01*
X147574693Y-129180000D01*
X152253572Y-129180000D01*
X152095242Y-129561300D01*
X152094758Y-130116265D01*
X152306687Y-130629172D01*
X152698764Y-131021934D01*
X153211300Y-131234758D01*
X153766265Y-131235242D01*
X154279172Y-131023313D01*
X154671934Y-130631236D01*
X154875238Y-130141628D01*
X155076687Y-130629172D01*
X155468764Y-131021934D01*
X155981300Y-131234758D01*
X156536265Y-131235242D01*
X157049172Y-131023313D01*
X157441934Y-130631236D01*
X157645238Y-130141628D01*
X157846687Y-130629172D01*
X158238764Y-131021934D01*
X158751300Y-131234758D01*
X159306265Y-131235242D01*
X159819172Y-131023313D01*
X160211934Y-130631236D01*
X160415238Y-130141628D01*
X160616687Y-130629172D01*
X161008764Y-131021934D01*
X161521300Y-131234758D01*
X162076265Y-131235242D01*
X162589172Y-131023313D01*
X162981934Y-130631236D01*
X163185238Y-130141628D01*
X163386687Y-130629172D01*
X163778764Y-131021934D01*
X164291300Y-131234758D01*
X164846265Y-131235242D01*
X165359172Y-131023313D01*
X165751934Y-130631236D01*
X165955238Y-130141628D01*
X166156687Y-130629172D01*
X166548764Y-131021934D01*
X167061300Y-131234758D01*
X167616265Y-131235242D01*
X168129172Y-131023313D01*
X168521934Y-130631236D01*
X168720225Y-130153699D01*
X168916687Y-130629172D01*
X169308764Y-131021934D01*
X169821300Y-131234758D01*
X170376265Y-131235242D01*
X170889172Y-131023313D01*
X171281934Y-130631236D01*
X171485238Y-130141628D01*
X171686687Y-130629172D01*
X172078764Y-131021934D01*
X172591300Y-131234758D01*
X173146265Y-131235242D01*
X173659172Y-131023313D01*
X174051934Y-130631236D01*
X174255238Y-130141628D01*
X174456687Y-130629172D01*
X174848764Y-131021934D01*
X175361300Y-131234758D01*
X175916265Y-131235242D01*
X176429172Y-131023313D01*
X176821934Y-130631236D01*
X177025238Y-130141628D01*
X177226687Y-130629172D01*
X177618764Y-131021934D01*
X178131300Y-131234758D01*
X178686265Y-131235242D01*
X179199172Y-131023313D01*
X179591934Y-130631236D01*
X179795238Y-130141628D01*
X179996687Y-130629172D01*
X180388764Y-131021934D01*
X180901300Y-131234758D01*
X181456265Y-131235242D01*
X181969172Y-131023313D01*
X182361934Y-130631236D01*
X182565238Y-130141628D01*
X182766687Y-130629172D01*
X183158764Y-131021934D01*
X183671300Y-131234758D01*
X184226265Y-131235242D01*
X184739172Y-131023313D01*
X185131934Y-130631236D01*
X185335238Y-130141628D01*
X185536687Y-130629172D01*
X185928764Y-131021934D01*
X186441300Y-131234758D01*
X186996265Y-131235242D01*
X187509172Y-131023313D01*
X187901934Y-130631236D01*
X188100225Y-130153699D01*
X188296687Y-130629172D01*
X188688764Y-131021934D01*
X189201300Y-131234758D01*
X189756265Y-131235242D01*
X190269172Y-131023313D01*
X190661934Y-130631236D01*
X190865238Y-130141628D01*
X191066687Y-130629172D01*
X191458764Y-131021934D01*
X191971300Y-131234758D01*
X192526265Y-131235242D01*
X193039172Y-131023313D01*
X193431934Y-130631236D01*
X193635238Y-130141628D01*
X193836687Y-130629172D01*
X194228764Y-131021934D01*
X194741300Y-131234758D01*
X195296265Y-131235242D01*
X195809172Y-131023313D01*
X196201934Y-130631236D01*
X196405238Y-130141628D01*
X196606687Y-130629172D01*
X196998764Y-131021934D01*
X197511300Y-131234758D01*
X198066265Y-131235242D01*
X198579172Y-131023313D01*
X198971934Y-130631236D01*
X199175238Y-130141628D01*
X199376687Y-130629172D01*
X199768764Y-131021934D01*
X200281300Y-131234758D01*
X200836265Y-131235242D01*
X201349172Y-131023313D01*
X201741934Y-130631236D01*
X201954758Y-130118700D01*
X201955242Y-129563735D01*
X201796686Y-129180000D01*
X206205742Y-129180000D01*
X206485437Y-129856915D01*
X207199327Y-130572052D01*
X208132546Y-130959559D01*
X209143021Y-130960440D01*
X210076915Y-130574563D01*
X210792052Y-129860673D01*
X211179559Y-128927454D01*
X211180440Y-127916979D01*
X210794563Y-126983085D01*
X210080673Y-126267948D01*
X209147454Y-125880441D01*
X208136979Y-125879560D01*
X207203085Y-126265437D01*
X206487948Y-126979327D01*
X206205307Y-127660000D01*
X203337440Y-127660000D01*
X203337440Y-126240000D01*
X203293162Y-126004683D01*
X203154090Y-125788559D01*
X202941890Y-125643569D01*
X202690000Y-125592560D01*
X201170000Y-125592560D01*
X200934683Y-125636838D01*
X200718559Y-125775910D01*
X200573569Y-125988110D01*
X200522560Y-126240000D01*
X200522560Y-126644639D01*
X200343313Y-126210828D01*
X199951236Y-125818066D01*
X199438700Y-125605242D01*
X198883735Y-125604758D01*
X198370828Y-125816687D01*
X197978066Y-126208764D01*
X197774762Y-126698372D01*
X197685538Y-126482433D01*
X197690000Y-126460000D01*
X197690000Y-123215558D01*
X197915317Y-123173162D01*
X198131441Y-123034090D01*
X198276431Y-122821890D01*
X198327440Y-122570000D01*
X198327440Y-121270000D01*
X198283162Y-121034683D01*
X198144090Y-120818559D01*
X197931890Y-120673569D01*
X197680000Y-120622560D01*
X197137542Y-120622560D01*
X198387401Y-119372701D01*
X198552148Y-119126140D01*
X198557579Y-119098837D01*
X198751441Y-118974090D01*
X198896431Y-118761890D01*
X198947440Y-118510000D01*
X198947440Y-117710000D01*
X198903162Y-117474683D01*
X198860000Y-117407607D01*
X198860000Y-114300558D01*
X199085317Y-114258162D01*
X199301441Y-114119090D01*
X199446431Y-113906890D01*
X199497440Y-113655000D01*
X199497440Y-112405000D01*
X199453162Y-112169683D01*
X199314090Y-111953559D01*
X199101890Y-111808569D01*
X198860000Y-111759585D01*
X198860000Y-110549219D01*
X198881234Y-110517440D01*
X198950000Y-110517440D01*
X199185317Y-110473162D01*
X199401441Y-110334090D01*
X199546431Y-110121890D01*
X199597440Y-109870000D01*
X199597440Y-108570000D01*
X199553162Y-108334683D01*
X199414090Y-108118559D01*
X199201890Y-107973569D01*
X198950000Y-107922560D01*
X197450000Y-107922560D01*
X197214683Y-107966838D01*
X196998559Y-108105910D01*
X196853569Y-108318110D01*
X196846809Y-108351490D01*
X196788327Y-108210301D01*
X196609698Y-108031673D01*
X196376309Y-107935000D01*
X195785750Y-107935000D01*
X195627000Y-108093750D01*
X195627000Y-109093000D01*
X195647000Y-109093000D01*
X195647000Y-109347000D01*
X195627000Y-109347000D01*
X195627000Y-110346250D01*
X195785750Y-110505000D01*
X196376309Y-110505000D01*
X196609698Y-110408327D01*
X196788327Y-110229699D01*
X196844654Y-110093713D01*
X196846838Y-110105317D01*
X196985910Y-110321441D01*
X197198110Y-110466431D01*
X197340000Y-110495164D01*
X197340000Y-111759442D01*
X197114683Y-111801838D01*
X196898559Y-111940910D01*
X196852031Y-112009006D01*
X196709698Y-111866673D01*
X196476309Y-111770000D01*
X195885750Y-111770000D01*
X195727000Y-111928750D01*
X195727000Y-112903000D01*
X195747000Y-112903000D01*
X195747000Y-113157000D01*
X195727000Y-113157000D01*
X195727000Y-114131250D01*
X195885750Y-114290000D01*
X196476309Y-114290000D01*
X196709698Y-114193327D01*
X196850936Y-114052090D01*
X196885910Y-114106441D01*
X197098110Y-114251431D01*
X197340000Y-114300415D01*
X197340000Y-117073850D01*
X197164683Y-117106838D01*
X196948559Y-117245910D01*
X196861936Y-117372686D01*
X196776250Y-117287000D01*
X195977000Y-117287000D01*
X195977000Y-117307000D01*
X195723000Y-117307000D01*
X195723000Y-117287000D01*
X195703000Y-117287000D01*
X195703000Y-117033000D01*
X195723000Y-117033000D01*
X195723000Y-116283750D01*
X195977000Y-116283750D01*
X195977000Y-117033000D01*
X196776250Y-117033000D01*
X196935000Y-116874250D01*
X196935000Y-116633690D01*
X196838327Y-116400301D01*
X196659698Y-116221673D01*
X196426309Y-116125000D01*
X196135750Y-116125000D01*
X195977000Y-116283750D01*
X195723000Y-116283750D01*
X195564250Y-116125000D01*
X195273691Y-116125000D01*
X195040302Y-116221673D01*
X194861673Y-116400301D01*
X194846276Y-116437474D01*
X192537500Y-114128698D01*
X192537500Y-113315750D01*
X194215000Y-113315750D01*
X194215000Y-113781310D01*
X194311673Y-114014699D01*
X194490302Y-114193327D01*
X194723691Y-114290000D01*
X195314250Y-114290000D01*
X195473000Y-114131250D01*
X195473000Y-113157000D01*
X194373750Y-113157000D01*
X194215000Y-113315750D01*
X192537500Y-113315750D01*
X192537500Y-112278690D01*
X194215000Y-112278690D01*
X194215000Y-112744250D01*
X194373750Y-112903000D01*
X195473000Y-112903000D01*
X195473000Y-111928750D01*
X195314250Y-111770000D01*
X194723691Y-111770000D01*
X194490302Y-111866673D01*
X194311673Y-112045301D01*
X194215000Y-112278690D01*
X192537500Y-112278690D01*
X192537500Y-111212800D01*
X192500153Y-111025044D01*
X192479648Y-110921960D01*
X192314901Y-110675399D01*
X191145252Y-109505750D01*
X194115000Y-109505750D01*
X194115000Y-109996310D01*
X194211673Y-110229699D01*
X194390302Y-110408327D01*
X194623691Y-110505000D01*
X195214250Y-110505000D01*
X195373000Y-110346250D01*
X195373000Y-109347000D01*
X194273750Y-109347000D01*
X194115000Y-109505750D01*
X191145252Y-109505750D01*
X190083192Y-108443690D01*
X194115000Y-108443690D01*
X194115000Y-108934250D01*
X194273750Y-109093000D01*
X195373000Y-109093000D01*
X195373000Y-108093750D01*
X195214250Y-107935000D01*
X194623691Y-107935000D01*
X194390302Y-108031673D01*
X194211673Y-108210301D01*
X194115000Y-108443690D01*
X190083192Y-108443690D01*
X187779700Y-106140198D01*
X187779700Y-105391661D01*
X199904758Y-105391661D01*
X200116990Y-105905303D01*
X200509630Y-106298629D01*
X200717512Y-106384949D01*
X200511697Y-106469990D01*
X200118371Y-106862630D01*
X199905243Y-107375900D01*
X199904758Y-107931661D01*
X200116990Y-108445303D01*
X200509630Y-108838629D01*
X200717512Y-108924949D01*
X200511697Y-109009990D01*
X200118371Y-109402630D01*
X199905243Y-109915900D01*
X199904758Y-110471661D01*
X200116990Y-110985303D01*
X200509630Y-111378629D01*
X200717512Y-111464949D01*
X200511697Y-111549990D01*
X200118371Y-111942630D01*
X199905243Y-112455900D01*
X199904758Y-113011661D01*
X200116990Y-113525303D01*
X200509630Y-113918629D01*
X200717512Y-114004949D01*
X200511697Y-114089990D01*
X200118371Y-114482630D01*
X199905243Y-114995900D01*
X199904758Y-115551661D01*
X200116990Y-116065303D01*
X200509630Y-116458629D01*
X200717512Y-116544949D01*
X200511697Y-116629990D01*
X200118371Y-117022630D01*
X199905243Y-117535900D01*
X199904758Y-118091661D01*
X200116990Y-118605303D01*
X200509630Y-118998629D01*
X200717512Y-119084949D01*
X200511697Y-119169990D01*
X200118371Y-119562630D01*
X199905243Y-120075900D01*
X199904758Y-120631661D01*
X200116990Y-121145303D01*
X200509630Y-121538629D01*
X200717512Y-121624949D01*
X200511697Y-121709990D01*
X200118371Y-122102630D01*
X199905243Y-122615900D01*
X199904758Y-123171661D01*
X200116990Y-123685303D01*
X200509630Y-124078629D01*
X201022900Y-124291757D01*
X201578661Y-124292242D01*
X202092303Y-124080010D01*
X202485629Y-123687370D01*
X202698757Y-123174100D01*
X202699242Y-122618339D01*
X202487010Y-122104697D01*
X202094370Y-121711371D01*
X201886488Y-121625051D01*
X202092303Y-121540010D01*
X202485629Y-121147370D01*
X202698757Y-120634100D01*
X202699242Y-120078339D01*
X202487010Y-119564697D01*
X202094370Y-119171371D01*
X201886488Y-119085051D01*
X202092303Y-119000010D01*
X202485629Y-118607370D01*
X202698757Y-118094100D01*
X202699242Y-117538339D01*
X202487010Y-117024697D01*
X202094370Y-116631371D01*
X201886488Y-116545051D01*
X202092303Y-116460010D01*
X202485629Y-116067370D01*
X202698757Y-115554100D01*
X202699242Y-114998339D01*
X202487010Y-114484697D01*
X202094370Y-114091371D01*
X201886488Y-114005051D01*
X202092303Y-113920010D01*
X202485629Y-113527370D01*
X202698757Y-113014100D01*
X202699242Y-112458339D01*
X202487010Y-111944697D01*
X202094370Y-111551371D01*
X201886488Y-111465051D01*
X202092303Y-111380010D01*
X202485629Y-110987370D01*
X202698757Y-110474100D01*
X202699242Y-109918339D01*
X202487010Y-109404697D01*
X202094370Y-109011371D01*
X201886488Y-108925051D01*
X202092303Y-108840010D01*
X202485629Y-108447370D01*
X202698757Y-107934100D01*
X202699242Y-107378339D01*
X202487010Y-106864697D01*
X202094370Y-106471371D01*
X201886488Y-106385051D01*
X202092303Y-106300010D01*
X202485629Y-105907370D01*
X202698757Y-105394100D01*
X202699242Y-104838339D01*
X202487010Y-104324697D01*
X202094370Y-103931371D01*
X201581100Y-103718243D01*
X201025339Y-103717758D01*
X200511697Y-103929990D01*
X200118371Y-104322630D01*
X199905243Y-104835900D01*
X199904758Y-105391661D01*
X187779700Y-105391661D01*
X187779700Y-95562440D01*
X188895000Y-95562440D01*
X189130317Y-95518162D01*
X189346441Y-95379090D01*
X189369516Y-95345319D01*
X189511139Y-95317148D01*
X189757701Y-95152401D01*
X191145000Y-93765102D01*
X191145000Y-94201309D01*
X191241673Y-94434698D01*
X191420301Y-94613327D01*
X191653690Y-94710000D01*
X192119250Y-94710000D01*
X192278000Y-94551250D01*
X192278000Y-93452000D01*
X192532000Y-93452000D01*
X192532000Y-94551250D01*
X192690750Y-94710000D01*
X193156310Y-94710000D01*
X193389699Y-94613327D01*
X193568327Y-94434698D01*
X193665000Y-94201309D01*
X193665000Y-93610750D01*
X193506250Y-93452000D01*
X192532000Y-93452000D01*
X192278000Y-93452000D01*
X192258000Y-93452000D01*
X192258000Y-93198000D01*
X192278000Y-93198000D01*
X192278000Y-93178000D01*
X192532000Y-93178000D01*
X192532000Y-93198000D01*
X193506250Y-93198000D01*
X193665000Y-93039250D01*
X193665000Y-92486175D01*
X193691601Y-92468401D01*
X194211401Y-91948601D01*
X194376148Y-91702040D01*
X194434000Y-91411200D01*
X194434000Y-89671002D01*
X200094392Y-84010610D01*
X200116990Y-84065303D01*
X200509630Y-84458629D01*
X200717512Y-84544949D01*
X200511697Y-84629990D01*
X200118371Y-85022630D01*
X199905243Y-85535900D01*
X199904758Y-86091661D01*
X200116990Y-86605303D01*
X200509630Y-86998629D01*
X200717512Y-87084949D01*
X200511697Y-87169990D01*
X200118371Y-87562630D01*
X199905243Y-88075900D01*
X199904758Y-88631661D01*
X200116990Y-89145303D01*
X200509630Y-89538629D01*
X200717512Y-89624949D01*
X200511697Y-89709990D01*
X200118371Y-90102630D01*
X199905243Y-90615900D01*
X199904758Y-91171661D01*
X200116990Y-91685303D01*
X200509630Y-92078629D01*
X200717512Y-92164949D01*
X200511697Y-92249990D01*
X200118371Y-92642630D01*
X199905243Y-93155900D01*
X199904758Y-93711661D01*
X200116990Y-94225303D01*
X200509630Y-94618629D01*
X200717512Y-94704949D01*
X200511697Y-94789990D01*
X200118371Y-95182630D01*
X199905243Y-95695900D01*
X199904758Y-96251661D01*
X200116990Y-96765303D01*
X200509630Y-97158629D01*
X200717512Y-97244949D01*
X200511697Y-97329990D01*
X200118371Y-97722630D01*
X199905243Y-98235900D01*
X199904758Y-98791661D01*
X200116990Y-99305303D01*
X200509630Y-99698629D01*
X200717512Y-99784949D01*
X200511697Y-99869990D01*
X200118371Y-100262630D01*
X199905243Y-100775900D01*
X199904758Y-101331661D01*
X200116990Y-101845303D01*
X200509630Y-102238629D01*
X201022900Y-102451757D01*
X201578661Y-102452242D01*
X202092303Y-102240010D01*
X202485629Y-101847370D01*
X202698757Y-101334100D01*
X202699242Y-100778339D01*
X202487010Y-100264697D01*
X202094370Y-99871371D01*
X201886488Y-99785051D01*
X202092303Y-99700010D01*
X202485629Y-99307370D01*
X202698757Y-98794100D01*
X202699242Y-98238339D01*
X202487010Y-97724697D01*
X202094370Y-97331371D01*
X201886488Y-97245051D01*
X202092303Y-97160010D01*
X202485629Y-96767370D01*
X202698757Y-96254100D01*
X202699242Y-95698339D01*
X202487010Y-95184697D01*
X202094370Y-94791371D01*
X201886488Y-94705051D01*
X202092303Y-94620010D01*
X202485629Y-94227370D01*
X202698757Y-93714100D01*
X202699242Y-93158339D01*
X202487010Y-92644697D01*
X202094370Y-92251371D01*
X201886488Y-92165051D01*
X202092303Y-92080010D01*
X202485629Y-91687370D01*
X202698757Y-91174100D01*
X202699242Y-90618339D01*
X202487010Y-90104697D01*
X202094370Y-89711371D01*
X201886488Y-89625051D01*
X202092303Y-89540010D01*
X202485629Y-89147370D01*
X202698757Y-88634100D01*
X202699242Y-88078339D01*
X202487010Y-87564697D01*
X202094370Y-87171371D01*
X201886488Y-87085051D01*
X202092303Y-87000010D01*
X202485629Y-86607370D01*
X202698757Y-86094100D01*
X202699242Y-85538339D01*
X202487010Y-85024697D01*
X202094370Y-84631371D01*
X201886488Y-84545051D01*
X202092303Y-84460010D01*
X202485629Y-84067370D01*
X202698757Y-83554100D01*
X202699242Y-82998339D01*
X202487010Y-82484697D01*
X202338437Y-82335865D01*
X202929501Y-81744801D01*
X203094248Y-81498239D01*
X203152100Y-81207400D01*
X203152100Y-79285100D01*
X203094248Y-78994261D01*
X203094248Y-78994260D01*
X202929501Y-78747699D01*
X202686183Y-78504381D01*
X202698757Y-78474100D01*
X202699242Y-77918339D01*
X202487010Y-77404697D01*
X202094370Y-77011371D01*
X201850241Y-76910000D01*
X211790000Y-76910000D01*
X211790000Y-132640000D01*
X141680000Y-132640000D01*
X141680000Y-104567302D01*
X143370856Y-104567302D01*
X143398638Y-105122368D01*
X143557603Y-105506143D01*
X143799787Y-105575608D01*
X144600395Y-104775000D01*
X144959605Y-104775000D01*
X145760213Y-105575608D01*
X146002397Y-105506143D01*
X146043240Y-105391661D01*
X151644758Y-105391661D01*
X151856990Y-105905303D01*
X152249630Y-106298629D01*
X152762900Y-106511757D01*
X153318661Y-106512242D01*
X153832303Y-106300010D01*
X154225629Y-105907370D01*
X154438757Y-105394100D01*
X154439242Y-104838339D01*
X154227010Y-104324697D01*
X153834370Y-103931371D01*
X153642273Y-103851605D01*
X153773143Y-103797397D01*
X153842608Y-103555213D01*
X153042000Y-102754605D01*
X152241392Y-103555213D01*
X152310857Y-103797397D01*
X152451318Y-103847509D01*
X152251697Y-103929990D01*
X151858371Y-104322630D01*
X151645243Y-104835900D01*
X151644758Y-105391661D01*
X146043240Y-105391661D01*
X146189144Y-104982698D01*
X146161362Y-104427632D01*
X146002397Y-104043857D01*
X145760213Y-103974392D01*
X144959605Y-104775000D01*
X144600395Y-104775000D01*
X143799787Y-103974392D01*
X143557603Y-104043857D01*
X143370856Y-104567302D01*
X141680000Y-104567302D01*
X141680000Y-103794787D01*
X143979392Y-103794787D01*
X144780000Y-104595395D01*
X145580608Y-103794787D01*
X145511143Y-103552603D01*
X144987698Y-103365856D01*
X144432632Y-103393638D01*
X144048857Y-103552603D01*
X143979392Y-103794787D01*
X141680000Y-103794787D01*
X141680000Y-102367302D01*
X151632856Y-102367302D01*
X151660638Y-102922368D01*
X151819603Y-103306143D01*
X152061787Y-103375608D01*
X152862395Y-102575000D01*
X153221605Y-102575000D01*
X154022213Y-103375608D01*
X154264397Y-103306143D01*
X154451144Y-102782698D01*
X154423362Y-102227632D01*
X154264397Y-101843857D01*
X154022213Y-101774392D01*
X153221605Y-102575000D01*
X152862395Y-102575000D01*
X152061787Y-101774392D01*
X151819603Y-101843857D01*
X151632856Y-102367302D01*
X141680000Y-102367302D01*
X141680000Y-101015213D01*
X152241392Y-101015213D01*
X152310857Y-101257397D01*
X152434344Y-101301453D01*
X152310857Y-101352603D01*
X152241392Y-101594787D01*
X153042000Y-102395395D01*
X153842608Y-101594787D01*
X153773143Y-101352603D01*
X153649656Y-101308547D01*
X153773143Y-101257397D01*
X153842608Y-101015213D01*
X153042000Y-100214605D01*
X152241392Y-101015213D01*
X141680000Y-101015213D01*
X141680000Y-99827302D01*
X151632856Y-99827302D01*
X151660638Y-100382368D01*
X151819603Y-100766143D01*
X152061787Y-100835608D01*
X152862395Y-100035000D01*
X153221605Y-100035000D01*
X154022213Y-100835608D01*
X154264397Y-100766143D01*
X154451144Y-100242698D01*
X154423362Y-99687632D01*
X154264397Y-99303857D01*
X154022213Y-99234392D01*
X153221605Y-100035000D01*
X152862395Y-100035000D01*
X152061787Y-99234392D01*
X151819603Y-99303857D01*
X151632856Y-99827302D01*
X141680000Y-99827302D01*
X141680000Y-91867302D01*
X143370856Y-91867302D01*
X143398638Y-92422368D01*
X143557603Y-92806143D01*
X143799787Y-92875608D01*
X144600395Y-92075000D01*
X144959605Y-92075000D01*
X145760213Y-92875608D01*
X146002397Y-92806143D01*
X146189144Y-92282698D01*
X146161362Y-91727632D01*
X146002397Y-91343857D01*
X145760213Y-91274392D01*
X144959605Y-92075000D01*
X144600395Y-92075000D01*
X143799787Y-91274392D01*
X143557603Y-91343857D01*
X143370856Y-91867302D01*
X141680000Y-91867302D01*
X141680000Y-91094787D01*
X143979392Y-91094787D01*
X144780000Y-91895395D01*
X145580608Y-91094787D01*
X145511143Y-90852603D01*
X144987698Y-90665856D01*
X144432632Y-90693638D01*
X144048857Y-90852603D01*
X143979392Y-91094787D01*
X141680000Y-91094787D01*
X141680000Y-76910000D01*
X200753692Y-76910000D01*
X200511697Y-77009990D01*
G36*
X178731947Y-108377560D02*
X177785000Y-108377560D01*
X177549683Y-108421838D01*
X177333559Y-108560910D01*
X177188569Y-108773110D01*
X177176557Y-108832426D01*
X177075133Y-108832338D01*
X176731357Y-108974383D01*
X176468108Y-109237173D01*
X176325462Y-109580701D01*
X176325138Y-109952667D01*
X176467183Y-110296443D01*
X176729973Y-110559692D01*
X177073501Y-110702338D01*
X177170944Y-110702423D01*
X177181838Y-110760317D01*
X177320910Y-110976441D01*
X177533110Y-111121431D01*
X177546197Y-111124081D01*
X177333559Y-111260910D01*
X177188569Y-111473110D01*
X177137560Y-111725000D01*
X177137560Y-113225000D01*
X177181838Y-113460317D01*
X177286904Y-113623594D01*
X176395198Y-114515300D01*
X169372013Y-114515300D01*
X169372234Y-114262624D01*
X169556441Y-114144090D01*
X169701431Y-113931890D01*
X169752440Y-113680000D01*
X169752440Y-112380000D01*
X169708162Y-112144683D01*
X169569090Y-111928559D01*
X169356890Y-111783569D01*
X169245477Y-111761007D01*
X169340317Y-111743162D01*
X169556441Y-111604090D01*
X169701431Y-111391890D01*
X169752440Y-111140000D01*
X169752440Y-109840000D01*
X169708162Y-109604683D01*
X169569090Y-109388559D01*
X169356890Y-109243569D01*
X169150949Y-109201865D01*
X169364698Y-109113327D01*
X169543327Y-108934699D01*
X169640000Y-108701310D01*
X169640000Y-108235750D01*
X169481250Y-108077000D01*
X168382000Y-108077000D01*
X168382000Y-108097000D01*
X168128000Y-108097000D01*
X168128000Y-108077000D01*
X168108000Y-108077000D01*
X168108000Y-107823000D01*
X168128000Y-107823000D01*
X168128000Y-106848750D01*
X168382000Y-106848750D01*
X168382000Y-107823000D01*
X169481250Y-107823000D01*
X169640000Y-107664250D01*
X169640000Y-107198690D01*
X169543327Y-106965301D01*
X169364698Y-106786673D01*
X169131309Y-106690000D01*
X168540750Y-106690000D01*
X168382000Y-106848750D01*
X168128000Y-106848750D01*
X167969250Y-106690000D01*
X167378691Y-106690000D01*
X167145302Y-106786673D01*
X167004064Y-106927910D01*
X166969090Y-106873559D01*
X166756890Y-106728569D01*
X166505000Y-106677560D01*
X165005000Y-106677560D01*
X164769683Y-106721838D01*
X164553559Y-106860910D01*
X164408569Y-107073110D01*
X164357560Y-107325000D01*
X164357560Y-108575000D01*
X164401838Y-108810317D01*
X164540910Y-109026441D01*
X164753110Y-109171431D01*
X164880351Y-109197198D01*
X164669683Y-109236838D01*
X164453559Y-109375910D01*
X164308569Y-109588110D01*
X164257560Y-109840000D01*
X164257560Y-110705300D01*
X164079202Y-110705300D01*
X163685000Y-110311098D01*
X163685000Y-108905105D01*
X163826441Y-108814090D01*
X163971431Y-108601890D01*
X164022440Y-108350000D01*
X164022440Y-107550000D01*
X163978162Y-107314683D01*
X163839090Y-107098559D01*
X163628288Y-106954524D01*
X165317813Y-105265000D01*
X170144243Y-105265000D01*
X170170910Y-105306441D01*
X170383110Y-105451431D01*
X170635000Y-105502440D01*
X171535000Y-105502440D01*
X171770317Y-105458162D01*
X171986441Y-105319090D01*
X172023399Y-105265000D01*
X172081400Y-105265000D01*
X172391374Y-105203342D01*
X172528226Y-105111900D01*
X175408400Y-105111900D01*
X175456684Y-105102296D01*
X178731947Y-108377560D01*
X178731947Y-108377560D01*
G37*
X178731947Y-108377560D02*
X177785000Y-108377560D01*
X177549683Y-108421838D01*
X177333559Y-108560910D01*
X177188569Y-108773110D01*
X177176557Y-108832426D01*
X177075133Y-108832338D01*
X176731357Y-108974383D01*
X176468108Y-109237173D01*
X176325462Y-109580701D01*
X176325138Y-109952667D01*
X176467183Y-110296443D01*
X176729973Y-110559692D01*
X177073501Y-110702338D01*
X177170944Y-110702423D01*
X177181838Y-110760317D01*
X177320910Y-110976441D01*
X177533110Y-111121431D01*
X177546197Y-111124081D01*
X177333559Y-111260910D01*
X177188569Y-111473110D01*
X177137560Y-111725000D01*
X177137560Y-113225000D01*
X177181838Y-113460317D01*
X177286904Y-113623594D01*
X176395198Y-114515300D01*
X169372013Y-114515300D01*
X169372234Y-114262624D01*
X169556441Y-114144090D01*
X169701431Y-113931890D01*
X169752440Y-113680000D01*
X169752440Y-112380000D01*
X169708162Y-112144683D01*
X169569090Y-111928559D01*
X169356890Y-111783569D01*
X169245477Y-111761007D01*
X169340317Y-111743162D01*
X169556441Y-111604090D01*
X169701431Y-111391890D01*
X169752440Y-111140000D01*
X169752440Y-109840000D01*
X169708162Y-109604683D01*
X169569090Y-109388559D01*
X169356890Y-109243569D01*
X169150949Y-109201865D01*
X169364698Y-109113327D01*
X169543327Y-108934699D01*
X169640000Y-108701310D01*
X169640000Y-108235750D01*
X169481250Y-108077000D01*
X168382000Y-108077000D01*
X168382000Y-108097000D01*
X168128000Y-108097000D01*
X168128000Y-108077000D01*
X168108000Y-108077000D01*
X168108000Y-107823000D01*
X168128000Y-107823000D01*
X168128000Y-106848750D01*
X168382000Y-106848750D01*
X168382000Y-107823000D01*
X169481250Y-107823000D01*
X169640000Y-107664250D01*
X169640000Y-107198690D01*
X169543327Y-106965301D01*
X169364698Y-106786673D01*
X169131309Y-106690000D01*
X168540750Y-106690000D01*
X168382000Y-106848750D01*
X168128000Y-106848750D01*
X167969250Y-106690000D01*
X167378691Y-106690000D01*
X167145302Y-106786673D01*
X167004064Y-106927910D01*
X166969090Y-106873559D01*
X166756890Y-106728569D01*
X166505000Y-106677560D01*
X165005000Y-106677560D01*
X164769683Y-106721838D01*
X164553559Y-106860910D01*
X164408569Y-107073110D01*
X164357560Y-107325000D01*
X164357560Y-108575000D01*
X164401838Y-108810317D01*
X164540910Y-109026441D01*
X164753110Y-109171431D01*
X164880351Y-109197198D01*
X164669683Y-109236838D01*
X164453559Y-109375910D01*
X164308569Y-109588110D01*
X164257560Y-109840000D01*
X164257560Y-110705300D01*
X164079202Y-110705300D01*
X163685000Y-110311098D01*
X163685000Y-108905105D01*
X163826441Y-108814090D01*
X163971431Y-108601890D01*
X164022440Y-108350000D01*
X164022440Y-107550000D01*
X163978162Y-107314683D01*
X163839090Y-107098559D01*
X163628288Y-106954524D01*
X165317813Y-105265000D01*
X170144243Y-105265000D01*
X170170910Y-105306441D01*
X170383110Y-105451431D01*
X170635000Y-105502440D01*
X171535000Y-105502440D01*
X171770317Y-105458162D01*
X171986441Y-105319090D01*
X172023399Y-105265000D01*
X172081400Y-105265000D01*
X172391374Y-105203342D01*
X172528226Y-105111900D01*
X175408400Y-105111900D01*
X175456684Y-105102296D01*
X178731947Y-108377560D01*
G36*
X179908110Y-110531431D02*
X180160000Y-110582440D01*
X180625400Y-110582440D01*
X180625400Y-112227000D01*
X180483000Y-112227000D01*
X180483000Y-112207000D01*
X180463000Y-112207000D01*
X180463000Y-111953000D01*
X180483000Y-111953000D01*
X180483000Y-111203750D01*
X180324250Y-111045000D01*
X180033691Y-111045000D01*
X179800302Y-111141673D01*
X179621673Y-111320301D01*
X179605027Y-111360488D01*
X179549090Y-111273559D01*
X179336890Y-111128569D01*
X179323803Y-111125919D01*
X179536441Y-110989090D01*
X179681431Y-110776890D01*
X179732440Y-110525000D01*
X179732440Y-110456233D01*
X179765614Y-110434067D01*
X179908110Y-110531431D01*
X179908110Y-110531431D01*
G37*
X179908110Y-110531431D02*
X180160000Y-110582440D01*
X180625400Y-110582440D01*
X180625400Y-112227000D01*
X180483000Y-112227000D01*
X180483000Y-112207000D01*
X180463000Y-112207000D01*
X180463000Y-111953000D01*
X180483000Y-111953000D01*
X180483000Y-111203750D01*
X180324250Y-111045000D01*
X180033691Y-111045000D01*
X179800302Y-111141673D01*
X179621673Y-111320301D01*
X179605027Y-111360488D01*
X179549090Y-111273559D01*
X179336890Y-111128569D01*
X179323803Y-111125919D01*
X179536441Y-110989090D01*
X179681431Y-110776890D01*
X179732440Y-110525000D01*
X179732440Y-110456233D01*
X179765614Y-110434067D01*
X179908110Y-110531431D01*
G36*
X169745300Y-100135000D02*
X170112069Y-100135000D01*
X170170910Y-100226441D01*
X170383110Y-100371431D01*
X170635000Y-100422440D01*
X171424500Y-100422440D01*
X171424500Y-101520000D01*
X171370750Y-101520000D01*
X171212000Y-101678750D01*
X171212000Y-102428000D01*
X171232000Y-102428000D01*
X171232000Y-102682000D01*
X171212000Y-102682000D01*
X171212000Y-102702000D01*
X170958000Y-102702000D01*
X170958000Y-102682000D01*
X170158750Y-102682000D01*
X170000000Y-102840750D01*
X170000000Y-103081310D01*
X170096673Y-103314699D01*
X170275302Y-103493327D01*
X170311747Y-103508423D01*
X170183559Y-103590910D01*
X170146601Y-103645000D01*
X164982300Y-103645000D01*
X164672327Y-103706657D01*
X164409544Y-103882243D01*
X161953793Y-106337995D01*
X161913327Y-106240301D01*
X161734698Y-106061673D01*
X161501309Y-105965000D01*
X161210750Y-105965000D01*
X161052000Y-106123750D01*
X161052000Y-106873000D01*
X161072000Y-106873000D01*
X161072000Y-107127000D01*
X161052000Y-107127000D01*
X161052000Y-107147000D01*
X160798000Y-107147000D01*
X160798000Y-107127000D01*
X159998750Y-107127000D01*
X159840000Y-107285750D01*
X159840000Y-107526310D01*
X159936673Y-107759699D01*
X160115302Y-107938327D01*
X160151747Y-107953423D01*
X160023559Y-108035910D01*
X159878569Y-108248110D01*
X159827560Y-108500000D01*
X159827560Y-109300000D01*
X159871838Y-109535317D01*
X159890488Y-109564300D01*
X158733388Y-110721400D01*
X154336069Y-110721400D01*
X154438757Y-110474100D01*
X154439242Y-109918339D01*
X154425857Y-109885945D01*
X157838112Y-106473690D01*
X159840000Y-106473690D01*
X159840000Y-106714250D01*
X159998750Y-106873000D01*
X160798000Y-106873000D01*
X160798000Y-106123750D01*
X160639250Y-105965000D01*
X160348691Y-105965000D01*
X160115302Y-106061673D01*
X159936673Y-106240301D01*
X159840000Y-106473690D01*
X157838112Y-106473690D01*
X162283112Y-102028690D01*
X170000000Y-102028690D01*
X170000000Y-102269250D01*
X170158750Y-102428000D01*
X170958000Y-102428000D01*
X170958000Y-101678750D01*
X170799250Y-101520000D01*
X170508691Y-101520000D01*
X170275302Y-101616673D01*
X170096673Y-101795301D01*
X170000000Y-102028690D01*
X162283112Y-102028690D01*
X163516502Y-100795300D01*
X168355000Y-100795300D01*
X168645839Y-100737448D01*
X168892401Y-100572701D01*
X169036233Y-100357440D01*
X169105000Y-100357440D01*
X169340317Y-100313162D01*
X169556441Y-100174090D01*
X169602551Y-100106605D01*
X169745300Y-100135000D01*
X169745300Y-100135000D01*
G37*
X169745300Y-100135000D02*
X170112069Y-100135000D01*
X170170910Y-100226441D01*
X170383110Y-100371431D01*
X170635000Y-100422440D01*
X171424500Y-100422440D01*
X171424500Y-101520000D01*
X171370750Y-101520000D01*
X171212000Y-101678750D01*
X171212000Y-102428000D01*
X171232000Y-102428000D01*
X171232000Y-102682000D01*
X171212000Y-102682000D01*
X171212000Y-102702000D01*
X170958000Y-102702000D01*
X170958000Y-102682000D01*
X170158750Y-102682000D01*
X170000000Y-102840750D01*
X170000000Y-103081310D01*
X170096673Y-103314699D01*
X170275302Y-103493327D01*
X170311747Y-103508423D01*
X170183559Y-103590910D01*
X170146601Y-103645000D01*
X164982300Y-103645000D01*
X164672327Y-103706657D01*
X164409544Y-103882243D01*
X161953793Y-106337995D01*
X161913327Y-106240301D01*
X161734698Y-106061673D01*
X161501309Y-105965000D01*
X161210750Y-105965000D01*
X161052000Y-106123750D01*
X161052000Y-106873000D01*
X161072000Y-106873000D01*
X161072000Y-107127000D01*
X161052000Y-107127000D01*
X161052000Y-107147000D01*
X160798000Y-107147000D01*
X160798000Y-107127000D01*
X159998750Y-107127000D01*
X159840000Y-107285750D01*
X159840000Y-107526310D01*
X159936673Y-107759699D01*
X160115302Y-107938327D01*
X160151747Y-107953423D01*
X160023559Y-108035910D01*
X159878569Y-108248110D01*
X159827560Y-108500000D01*
X159827560Y-109300000D01*
X159871838Y-109535317D01*
X159890488Y-109564300D01*
X158733388Y-110721400D01*
X154336069Y-110721400D01*
X154438757Y-110474100D01*
X154439242Y-109918339D01*
X154425857Y-109885945D01*
X157838112Y-106473690D01*
X159840000Y-106473690D01*
X159840000Y-106714250D01*
X159998750Y-106873000D01*
X160798000Y-106873000D01*
X160798000Y-106123750D01*
X160639250Y-105965000D01*
X160348691Y-105965000D01*
X160115302Y-106061673D01*
X159936673Y-106240301D01*
X159840000Y-106473690D01*
X157838112Y-106473690D01*
X162283112Y-102028690D01*
X170000000Y-102028690D01*
X170000000Y-102269250D01*
X170158750Y-102428000D01*
X170958000Y-102428000D01*
X170958000Y-101678750D01*
X170799250Y-101520000D01*
X170508691Y-101520000D01*
X170275302Y-101616673D01*
X170096673Y-101795301D01*
X170000000Y-102028690D01*
X162283112Y-102028690D01*
X163516502Y-100795300D01*
X168355000Y-100795300D01*
X168645839Y-100737448D01*
X168892401Y-100572701D01*
X169036233Y-100357440D01*
X169105000Y-100357440D01*
X169340317Y-100313162D01*
X169556441Y-100174090D01*
X169602551Y-100106605D01*
X169745300Y-100135000D01*
G36*
X177181525Y-82833427D02*
X176973355Y-83041235D01*
X176800197Y-83458244D01*
X176799803Y-83909775D01*
X176972233Y-84327086D01*
X177175000Y-84530207D01*
X177175000Y-84927226D01*
X177127767Y-84812914D01*
X176808765Y-84493355D01*
X176391756Y-84320197D01*
X175940225Y-84319803D01*
X175522914Y-84492233D01*
X175203355Y-84811235D01*
X175030197Y-85228244D01*
X175029803Y-85679775D01*
X175202233Y-86097086D01*
X175405000Y-86300207D01*
X175405000Y-87890300D01*
X175462852Y-88181139D01*
X175627599Y-88427701D01*
X181082299Y-93882401D01*
X181328861Y-94047148D01*
X181355812Y-94052509D01*
X181348569Y-94063110D01*
X181297560Y-94315000D01*
X181297560Y-94915000D01*
X181341838Y-95150317D01*
X181480910Y-95366441D01*
X181693110Y-95511431D01*
X181945000Y-95562440D01*
X183495000Y-95562440D01*
X183730317Y-95518162D01*
X183946441Y-95379090D01*
X184091431Y-95166890D01*
X184142440Y-94915000D01*
X184142440Y-94315000D01*
X184098162Y-94079683D01*
X184034322Y-93980472D01*
X184091431Y-93896890D01*
X184142440Y-93645000D01*
X184142440Y-93045000D01*
X184098162Y-92809683D01*
X184034322Y-92710472D01*
X184091431Y-92626890D01*
X184142440Y-92375000D01*
X184142440Y-91775000D01*
X184098162Y-91539683D01*
X184034322Y-91440472D01*
X184091431Y-91356890D01*
X184142440Y-91105000D01*
X184142440Y-90505000D01*
X184098162Y-90269683D01*
X183959090Y-90053559D01*
X183746890Y-89908569D01*
X183495000Y-89857560D01*
X181945000Y-89857560D01*
X181709683Y-89901838D01*
X181493559Y-90040910D01*
X181348569Y-90253110D01*
X181297560Y-90505000D01*
X181297560Y-90678058D01*
X178695000Y-88075498D01*
X178695000Y-86245104D01*
X179094501Y-86245104D01*
X179131648Y-86460217D01*
X179559972Y-86603112D01*
X180010375Y-86571217D01*
X180278352Y-86460217D01*
X180315499Y-86245104D01*
X179705000Y-85634605D01*
X179094501Y-86245104D01*
X178695000Y-86245104D01*
X178695000Y-86016805D01*
X178699783Y-86028352D01*
X178914896Y-86065499D01*
X179525395Y-85455000D01*
X178914896Y-84844501D01*
X178699783Y-84881648D01*
X178695000Y-84895985D01*
X178695000Y-84530059D01*
X178786658Y-84438560D01*
X186259700Y-91911602D01*
X186259700Y-106455000D01*
X186300547Y-106660351D01*
X185692199Y-107268699D01*
X185654580Y-107325000D01*
X185090750Y-107325000D01*
X184932000Y-107483750D01*
X184932000Y-108458000D01*
X184952000Y-108458000D01*
X184952000Y-108712000D01*
X184932000Y-108712000D01*
X184932000Y-108732000D01*
X184678000Y-108732000D01*
X184678000Y-108712000D01*
X184658000Y-108712000D01*
X184658000Y-108458000D01*
X184678000Y-108458000D01*
X184678000Y-107483750D01*
X184519250Y-107325000D01*
X183928691Y-107325000D01*
X183904099Y-107335186D01*
X183767956Y-107199044D01*
X183604286Y-107089683D01*
X183505174Y-107023458D01*
X183195200Y-106961800D01*
X181998100Y-106961800D01*
X181688126Y-107023458D01*
X181665859Y-107038337D01*
X181598327Y-106875301D01*
X181419698Y-106696673D01*
X181186309Y-106600000D01*
X180895750Y-106600000D01*
X180737000Y-106758750D01*
X180737000Y-107508000D01*
X180757000Y-107508000D01*
X180757000Y-107612000D01*
X180463000Y-107612000D01*
X180463000Y-107508000D01*
X180483000Y-107508000D01*
X180483000Y-106758750D01*
X180324250Y-106600000D01*
X180033691Y-106600000D01*
X179800302Y-106696673D01*
X179621673Y-106875301D01*
X179592103Y-106946690D01*
X176773601Y-104128189D01*
X176800317Y-104123162D01*
X177016441Y-103984090D01*
X177161431Y-103771890D01*
X177164081Y-103758803D01*
X177295160Y-103962506D01*
X177294838Y-104332667D01*
X177436883Y-104676443D01*
X177699673Y-104939692D01*
X178043201Y-105082338D01*
X178415167Y-105082662D01*
X178758943Y-104940617D01*
X179022192Y-104677827D01*
X179164838Y-104334299D01*
X179164928Y-104231493D01*
X179207726Y-104167440D01*
X179265000Y-104167440D01*
X179500317Y-104123162D01*
X179716441Y-103984090D01*
X179861431Y-103771890D01*
X179912440Y-103520000D01*
X179912440Y-102220000D01*
X179868162Y-101984683D01*
X179729090Y-101768559D01*
X179516890Y-101623569D01*
X179405477Y-101601007D01*
X179500317Y-101583162D01*
X179716441Y-101444090D01*
X179861431Y-101231890D01*
X179912440Y-100980000D01*
X179912440Y-99680000D01*
X179868162Y-99444683D01*
X179729090Y-99228559D01*
X179516890Y-99083569D01*
X179310949Y-99041865D01*
X179524698Y-98953327D01*
X179703327Y-98774699D01*
X179800000Y-98541310D01*
X179800000Y-98075750D01*
X179641250Y-97917000D01*
X178542000Y-97917000D01*
X178542000Y-97937000D01*
X178288000Y-97937000D01*
X178288000Y-97917000D01*
X178268000Y-97917000D01*
X178268000Y-97663000D01*
X178288000Y-97663000D01*
X178288000Y-96688750D01*
X178542000Y-96688750D01*
X178542000Y-97663000D01*
X179641250Y-97663000D01*
X179800000Y-97504250D01*
X179800000Y-97038690D01*
X179703327Y-96805301D01*
X179524698Y-96626673D01*
X179291309Y-96530000D01*
X178700750Y-96530000D01*
X178542000Y-96688750D01*
X178288000Y-96688750D01*
X178129250Y-96530000D01*
X177538691Y-96530000D01*
X177305302Y-96626673D01*
X177164064Y-96767910D01*
X177129090Y-96713559D01*
X176916890Y-96568569D01*
X176665000Y-96517560D01*
X175165000Y-96517560D01*
X174929683Y-96561838D01*
X174713559Y-96700910D01*
X174568569Y-96913110D01*
X174517560Y-97165000D01*
X174517560Y-98390300D01*
X174182440Y-98390300D01*
X174182440Y-98025000D01*
X174138162Y-97789683D01*
X173999090Y-97573559D01*
X173786890Y-97428569D01*
X173535000Y-97377560D01*
X173044500Y-97377560D01*
X173044500Y-86181012D01*
X176175503Y-83050010D01*
X176389775Y-83050197D01*
X176807086Y-82877767D01*
X177016658Y-82668560D01*
X177181525Y-82833427D01*
X177181525Y-82833427D01*
G37*
X177181525Y-82833427D02*
X176973355Y-83041235D01*
X176800197Y-83458244D01*
X176799803Y-83909775D01*
X176972233Y-84327086D01*
X177175000Y-84530207D01*
X177175000Y-84927226D01*
X177127767Y-84812914D01*
X176808765Y-84493355D01*
X176391756Y-84320197D01*
X175940225Y-84319803D01*
X175522914Y-84492233D01*
X175203355Y-84811235D01*
X175030197Y-85228244D01*
X175029803Y-85679775D01*
X175202233Y-86097086D01*
X175405000Y-86300207D01*
X175405000Y-87890300D01*
X175462852Y-88181139D01*
X175627599Y-88427701D01*
X181082299Y-93882401D01*
X181328861Y-94047148D01*
X181355812Y-94052509D01*
X181348569Y-94063110D01*
X181297560Y-94315000D01*
X181297560Y-94915000D01*
X181341838Y-95150317D01*
X181480910Y-95366441D01*
X181693110Y-95511431D01*
X181945000Y-95562440D01*
X183495000Y-95562440D01*
X183730317Y-95518162D01*
X183946441Y-95379090D01*
X184091431Y-95166890D01*
X184142440Y-94915000D01*
X184142440Y-94315000D01*
X184098162Y-94079683D01*
X184034322Y-93980472D01*
X184091431Y-93896890D01*
X184142440Y-93645000D01*
X184142440Y-93045000D01*
X184098162Y-92809683D01*
X184034322Y-92710472D01*
X184091431Y-92626890D01*
X184142440Y-92375000D01*
X184142440Y-91775000D01*
X184098162Y-91539683D01*
X184034322Y-91440472D01*
X184091431Y-91356890D01*
X184142440Y-91105000D01*
X184142440Y-90505000D01*
X184098162Y-90269683D01*
X183959090Y-90053559D01*
X183746890Y-89908569D01*
X183495000Y-89857560D01*
X181945000Y-89857560D01*
X181709683Y-89901838D01*
X181493559Y-90040910D01*
X181348569Y-90253110D01*
X181297560Y-90505000D01*
X181297560Y-90678058D01*
X178695000Y-88075498D01*
X178695000Y-86245104D01*
X179094501Y-86245104D01*
X179131648Y-86460217D01*
X179559972Y-86603112D01*
X180010375Y-86571217D01*
X180278352Y-86460217D01*
X180315499Y-86245104D01*
X179705000Y-85634605D01*
X179094501Y-86245104D01*
X178695000Y-86245104D01*
X178695000Y-86016805D01*
X178699783Y-86028352D01*
X178914896Y-86065499D01*
X179525395Y-85455000D01*
X178914896Y-84844501D01*
X178699783Y-84881648D01*
X178695000Y-84895985D01*
X178695000Y-84530059D01*
X178786658Y-84438560D01*
X186259700Y-91911602D01*
X186259700Y-106455000D01*
X186300547Y-106660351D01*
X185692199Y-107268699D01*
X185654580Y-107325000D01*
X185090750Y-107325000D01*
X184932000Y-107483750D01*
X184932000Y-108458000D01*
X184952000Y-108458000D01*
X184952000Y-108712000D01*
X184932000Y-108712000D01*
X184932000Y-108732000D01*
X184678000Y-108732000D01*
X184678000Y-108712000D01*
X184658000Y-108712000D01*
X184658000Y-108458000D01*
X184678000Y-108458000D01*
X184678000Y-107483750D01*
X184519250Y-107325000D01*
X183928691Y-107325000D01*
X183904099Y-107335186D01*
X183767956Y-107199044D01*
X183604286Y-107089683D01*
X183505174Y-107023458D01*
X183195200Y-106961800D01*
X181998100Y-106961800D01*
X181688126Y-107023458D01*
X181665859Y-107038337D01*
X181598327Y-106875301D01*
X181419698Y-106696673D01*
X181186309Y-106600000D01*
X180895750Y-106600000D01*
X180737000Y-106758750D01*
X180737000Y-107508000D01*
X180757000Y-107508000D01*
X180757000Y-107612000D01*
X180463000Y-107612000D01*
X180463000Y-107508000D01*
X180483000Y-107508000D01*
X180483000Y-106758750D01*
X180324250Y-106600000D01*
X180033691Y-106600000D01*
X179800302Y-106696673D01*
X179621673Y-106875301D01*
X179592103Y-106946690D01*
X176773601Y-104128189D01*
X176800317Y-104123162D01*
X177016441Y-103984090D01*
X177161431Y-103771890D01*
X177164081Y-103758803D01*
X177295160Y-103962506D01*
X177294838Y-104332667D01*
X177436883Y-104676443D01*
X177699673Y-104939692D01*
X178043201Y-105082338D01*
X178415167Y-105082662D01*
X178758943Y-104940617D01*
X179022192Y-104677827D01*
X179164838Y-104334299D01*
X179164928Y-104231493D01*
X179207726Y-104167440D01*
X179265000Y-104167440D01*
X179500317Y-104123162D01*
X179716441Y-103984090D01*
X179861431Y-103771890D01*
X179912440Y-103520000D01*
X179912440Y-102220000D01*
X179868162Y-101984683D01*
X179729090Y-101768559D01*
X179516890Y-101623569D01*
X179405477Y-101601007D01*
X179500317Y-101583162D01*
X179716441Y-101444090D01*
X179861431Y-101231890D01*
X179912440Y-100980000D01*
X179912440Y-99680000D01*
X179868162Y-99444683D01*
X179729090Y-99228559D01*
X179516890Y-99083569D01*
X179310949Y-99041865D01*
X179524698Y-98953327D01*
X179703327Y-98774699D01*
X179800000Y-98541310D01*
X179800000Y-98075750D01*
X179641250Y-97917000D01*
X178542000Y-97917000D01*
X178542000Y-97937000D01*
X178288000Y-97937000D01*
X178288000Y-97917000D01*
X178268000Y-97917000D01*
X178268000Y-97663000D01*
X178288000Y-97663000D01*
X178288000Y-96688750D01*
X178542000Y-96688750D01*
X178542000Y-97663000D01*
X179641250Y-97663000D01*
X179800000Y-97504250D01*
X179800000Y-97038690D01*
X179703327Y-96805301D01*
X179524698Y-96626673D01*
X179291309Y-96530000D01*
X178700750Y-96530000D01*
X178542000Y-96688750D01*
X178288000Y-96688750D01*
X178129250Y-96530000D01*
X177538691Y-96530000D01*
X177305302Y-96626673D01*
X177164064Y-96767910D01*
X177129090Y-96713559D01*
X176916890Y-96568569D01*
X176665000Y-96517560D01*
X175165000Y-96517560D01*
X174929683Y-96561838D01*
X174713559Y-96700910D01*
X174568569Y-96913110D01*
X174517560Y-97165000D01*
X174517560Y-98390300D01*
X174182440Y-98390300D01*
X174182440Y-98025000D01*
X174138162Y-97789683D01*
X173999090Y-97573559D01*
X173786890Y-97428569D01*
X173535000Y-97377560D01*
X173044500Y-97377560D01*
X173044500Y-86181012D01*
X176175503Y-83050010D01*
X176389775Y-83050197D01*
X176807086Y-82877767D01*
X177016658Y-82668560D01*
X177181525Y-82833427D01*
G36*
X171424500Y-96440000D02*
X171370750Y-96440000D01*
X171212000Y-96598750D01*
X171212000Y-97348000D01*
X171232000Y-97348000D01*
X171232000Y-97602000D01*
X171212000Y-97602000D01*
X171212000Y-97622000D01*
X170958000Y-97622000D01*
X170958000Y-97602000D01*
X170158750Y-97602000D01*
X170000000Y-97760750D01*
X170000000Y-98001310D01*
X170096673Y-98234699D01*
X170275302Y-98413327D01*
X170311747Y-98428423D01*
X170183559Y-98510910D01*
X170112437Y-98615000D01*
X170060102Y-98615000D01*
X169967701Y-98522599D01*
X169745718Y-98374275D01*
X169708162Y-98174683D01*
X169569090Y-97958559D01*
X169356890Y-97813569D01*
X169105000Y-97762560D01*
X167605000Y-97762560D01*
X167369683Y-97806838D01*
X167153559Y-97945910D01*
X167008569Y-98158110D01*
X167005919Y-98171197D01*
X166869090Y-97958559D01*
X166656890Y-97813569D01*
X166405000Y-97762560D01*
X166336233Y-97762560D01*
X166192401Y-97547299D01*
X165593792Y-96948690D01*
X170000000Y-96948690D01*
X170000000Y-97189250D01*
X170158750Y-97348000D01*
X170958000Y-97348000D01*
X170958000Y-96598750D01*
X170799250Y-96440000D01*
X170508691Y-96440000D01*
X170275302Y-96536673D01*
X170096673Y-96715301D01*
X170000000Y-96948690D01*
X165593792Y-96948690D01*
X164555300Y-95910198D01*
X164555300Y-93424302D01*
X171424500Y-86555102D01*
X171424500Y-96440000D01*
X171424500Y-96440000D01*
G37*
X171424500Y-96440000D02*
X171370750Y-96440000D01*
X171212000Y-96598750D01*
X171212000Y-97348000D01*
X171232000Y-97348000D01*
X171232000Y-97602000D01*
X171212000Y-97602000D01*
X171212000Y-97622000D01*
X170958000Y-97622000D01*
X170958000Y-97602000D01*
X170158750Y-97602000D01*
X170000000Y-97760750D01*
X170000000Y-98001310D01*
X170096673Y-98234699D01*
X170275302Y-98413327D01*
X170311747Y-98428423D01*
X170183559Y-98510910D01*
X170112437Y-98615000D01*
X170060102Y-98615000D01*
X169967701Y-98522599D01*
X169745718Y-98374275D01*
X169708162Y-98174683D01*
X169569090Y-97958559D01*
X169356890Y-97813569D01*
X169105000Y-97762560D01*
X167605000Y-97762560D01*
X167369683Y-97806838D01*
X167153559Y-97945910D01*
X167008569Y-98158110D01*
X167005919Y-98171197D01*
X166869090Y-97958559D01*
X166656890Y-97813569D01*
X166405000Y-97762560D01*
X166336233Y-97762560D01*
X166192401Y-97547299D01*
X165593792Y-96948690D01*
X170000000Y-96948690D01*
X170000000Y-97189250D01*
X170158750Y-97348000D01*
X170958000Y-97348000D01*
X170958000Y-96598750D01*
X170799250Y-96440000D01*
X170508691Y-96440000D01*
X170275302Y-96536673D01*
X170096673Y-96715301D01*
X170000000Y-96948690D01*
X165593792Y-96948690D01*
X164555300Y-95910198D01*
X164555300Y-93424302D01*
X171424500Y-86555102D01*
X171424500Y-96440000D01*
G36*
X188247000Y-93218000D02*
X188267000Y-93218000D01*
X188267000Y-93472000D01*
X188247000Y-93472000D01*
X188247000Y-93492000D01*
X187993000Y-93492000D01*
X187993000Y-93472000D01*
X187973000Y-93472000D01*
X187973000Y-93218000D01*
X187993000Y-93218000D01*
X187993000Y-93198000D01*
X188247000Y-93198000D01*
X188247000Y-93218000D01*
X188247000Y-93218000D01*
G37*
X188247000Y-93218000D02*
X188267000Y-93218000D01*
X188267000Y-93472000D01*
X188247000Y-93472000D01*
X188247000Y-93492000D01*
X187993000Y-93492000D01*
X187993000Y-93472000D01*
X187973000Y-93472000D01*
X187973000Y-93218000D01*
X187993000Y-93218000D01*
X187993000Y-93198000D01*
X188247000Y-93198000D01*
X188247000Y-93218000D01*
M02*
