G04 #@! TF.FileFunction,Legend,Top*
%FSLAX46Y46*%
G04 Gerber Fmt 4.6, Leading zero omitted, Abs format (unit mm)*
G04 Created by KiCad (PCBNEW 4.0.7) date 10/31/17 21:38:08*
%MOMM*%
%LPD*%
G01*
G04 APERTURE LIST*
%ADD10C,0.100000*%
%ADD11C,0.300000*%
%ADD12C,0.120000*%
%ADD13C,0.150000*%
G04 APERTURE END LIST*
D10*
D11*
X132821429Y-99663930D02*
X132821429Y-98949644D01*
X132107143Y-98878215D01*
X132178571Y-98949644D01*
X132250000Y-99092501D01*
X132250000Y-99449644D01*
X132178571Y-99592501D01*
X132107143Y-99663930D01*
X131964286Y-99735358D01*
X131607143Y-99735358D01*
X131464286Y-99663930D01*
X131392857Y-99592501D01*
X131321429Y-99449644D01*
X131321429Y-99092501D01*
X131392857Y-98949644D01*
X131464286Y-98878215D01*
X132821429Y-100235358D02*
X132821429Y-101235358D01*
X131321429Y-100592501D01*
X131464286Y-101806786D02*
X131392857Y-101878214D01*
X131321429Y-101806786D01*
X131392857Y-101735357D01*
X131464286Y-101806786D01*
X131321429Y-101806786D01*
X132821429Y-102378215D02*
X132821429Y-103378215D01*
X131321429Y-102735358D01*
X132178571Y-104163929D02*
X132250000Y-104021071D01*
X132321429Y-103949643D01*
X132464286Y-103878214D01*
X132535714Y-103878214D01*
X132678571Y-103949643D01*
X132750000Y-104021071D01*
X132821429Y-104163929D01*
X132821429Y-104449643D01*
X132750000Y-104592500D01*
X132678571Y-104663929D01*
X132535714Y-104735357D01*
X132464286Y-104735357D01*
X132321429Y-104663929D01*
X132250000Y-104592500D01*
X132178571Y-104449643D01*
X132178571Y-104163929D01*
X132107143Y-104021071D01*
X132035714Y-103949643D01*
X131892857Y-103878214D01*
X131607143Y-103878214D01*
X131464286Y-103949643D01*
X131392857Y-104021071D01*
X131321429Y-104163929D01*
X131321429Y-104449643D01*
X131392857Y-104592500D01*
X131464286Y-104663929D01*
X131607143Y-104735357D01*
X131892857Y-104735357D01*
X132035714Y-104663929D01*
X132107143Y-104592500D01*
X132178571Y-104449643D01*
X132821429Y-106092500D02*
X132821429Y-105378214D01*
X132107143Y-105306785D01*
X132178571Y-105378214D01*
X132250000Y-105521071D01*
X132250000Y-105878214D01*
X132178571Y-106021071D01*
X132107143Y-106092500D01*
X131964286Y-106163928D01*
X131607143Y-106163928D01*
X131464286Y-106092500D01*
X131392857Y-106021071D01*
X131321429Y-105878214D01*
X131321429Y-105521071D01*
X131392857Y-105378214D01*
X131464286Y-105306785D01*
X131321429Y-107949642D02*
X132321429Y-107949642D01*
X132178571Y-107949642D02*
X132250000Y-108021070D01*
X132321429Y-108163928D01*
X132321429Y-108378213D01*
X132250000Y-108521070D01*
X132107143Y-108592499D01*
X131321429Y-108592499D01*
X132107143Y-108592499D02*
X132250000Y-108663928D01*
X132321429Y-108806785D01*
X132321429Y-109021070D01*
X132250000Y-109163928D01*
X132107143Y-109235356D01*
X131321429Y-109235356D01*
X131321429Y-109949642D02*
X132321429Y-109949642D01*
X132178571Y-109949642D02*
X132250000Y-110021070D01*
X132321429Y-110163928D01*
X132321429Y-110378213D01*
X132250000Y-110521070D01*
X132107143Y-110592499D01*
X131321429Y-110592499D01*
X132107143Y-110592499D02*
X132250000Y-110663928D01*
X132321429Y-110806785D01*
X132321429Y-111021070D01*
X132250000Y-111163928D01*
X132107143Y-111235356D01*
X131321429Y-111235356D01*
X133350000Y-76200000D02*
X133350000Y-133985000D01*
X140335000Y-76200000D02*
X130650000Y-76200000D01*
X140335000Y-133985000D02*
X130650000Y-133985000D01*
X133350000Y-133985000D02*
X132763579Y-132858496D01*
X133350000Y-133985000D02*
X133936421Y-132858496D01*
X133350000Y-76200000D02*
X132763579Y-77326504D01*
X133350000Y-76200000D02*
X133936421Y-77326504D01*
X170561787Y-133163571D02*
X171561787Y-133163571D01*
X170918930Y-134663571D01*
X172918929Y-134663571D02*
X172061786Y-134663571D01*
X172490358Y-134663571D02*
X172490358Y-133163571D01*
X172347501Y-133377857D01*
X172204643Y-133520714D01*
X172061786Y-133592143D01*
X173561786Y-134520714D02*
X173633214Y-134592143D01*
X173561786Y-134663571D01*
X173490357Y-134592143D01*
X173561786Y-134520714D01*
X173561786Y-134663571D01*
X174133215Y-133163571D02*
X175133215Y-133163571D01*
X174490358Y-134663571D01*
X176418929Y-133163571D02*
X175704643Y-133163571D01*
X175633214Y-133877857D01*
X175704643Y-133806429D01*
X175847500Y-133735000D01*
X176204643Y-133735000D01*
X176347500Y-133806429D01*
X176418929Y-133877857D01*
X176490357Y-134020714D01*
X176490357Y-134377857D01*
X176418929Y-134520714D01*
X176347500Y-134592143D01*
X176204643Y-134663571D01*
X175847500Y-134663571D01*
X175704643Y-134592143D01*
X175633214Y-134520714D01*
X177847500Y-133163571D02*
X177133214Y-133163571D01*
X177061785Y-133877857D01*
X177133214Y-133806429D01*
X177276071Y-133735000D01*
X177633214Y-133735000D01*
X177776071Y-133806429D01*
X177847500Y-133877857D01*
X177918928Y-134020714D01*
X177918928Y-134377857D01*
X177847500Y-134520714D01*
X177776071Y-134592143D01*
X177633214Y-134663571D01*
X177276071Y-134663571D01*
X177133214Y-134592143D01*
X177061785Y-134520714D01*
X179704642Y-134663571D02*
X179704642Y-133663571D01*
X179704642Y-133806429D02*
X179776070Y-133735000D01*
X179918928Y-133663571D01*
X180133213Y-133663571D01*
X180276070Y-133735000D01*
X180347499Y-133877857D01*
X180347499Y-134663571D01*
X180347499Y-133877857D02*
X180418928Y-133735000D01*
X180561785Y-133663571D01*
X180776070Y-133663571D01*
X180918928Y-133735000D01*
X180990356Y-133877857D01*
X180990356Y-134663571D01*
X181704642Y-134663571D02*
X181704642Y-133663571D01*
X181704642Y-133806429D02*
X181776070Y-133735000D01*
X181918928Y-133663571D01*
X182133213Y-133663571D01*
X182276070Y-133735000D01*
X182347499Y-133877857D01*
X182347499Y-134663571D01*
X182347499Y-133877857D02*
X182418928Y-133735000D01*
X182561785Y-133663571D01*
X182776070Y-133663571D01*
X182918928Y-133735000D01*
X182990356Y-133877857D01*
X182990356Y-134663571D01*
X140970000Y-133985000D02*
X212725000Y-133985000D01*
X140970000Y-134620000D02*
X140970000Y-133985000D01*
X212725000Y-134620000D02*
X212725000Y-133985000D01*
X212725000Y-133985000D02*
X211598496Y-134571421D01*
X212725000Y-133985000D02*
X211598496Y-133398579D01*
X140970000Y-133985000D02*
X142096504Y-134571421D01*
X140970000Y-133985000D02*
X142096504Y-133398579D01*
D12*
X191555000Y-91575000D02*
X191555000Y-92575000D01*
X193255000Y-92575000D02*
X193255000Y-91575000D01*
X185555000Y-109435000D02*
X186555000Y-109435000D01*
X186555000Y-107735000D02*
X185555000Y-107735000D01*
X177665000Y-96940000D02*
X176665000Y-96940000D01*
X176665000Y-98640000D02*
X177665000Y-98640000D01*
X167505000Y-107100000D02*
X166505000Y-107100000D01*
X166505000Y-108800000D02*
X167505000Y-108800000D01*
X196350000Y-113880000D02*
X197350000Y-113880000D01*
X197350000Y-112180000D02*
X196350000Y-112180000D01*
X186655000Y-112005000D02*
X185455000Y-112005000D01*
X185455000Y-110245000D02*
X186655000Y-110245000D01*
X186655000Y-115180000D02*
X185455000Y-115180000D01*
X185455000Y-113420000D02*
X186655000Y-113420000D01*
X179315000Y-110525000D02*
X179315000Y-111725000D01*
X177555000Y-111725000D02*
X177555000Y-110525000D01*
X177765000Y-103750000D02*
X176565000Y-103750000D01*
X176565000Y-101990000D02*
X177765000Y-101990000D01*
X177765000Y-101210000D02*
X176565000Y-101210000D01*
X176565000Y-99450000D02*
X177765000Y-99450000D01*
X167605000Y-99940000D02*
X166405000Y-99940000D01*
X166405000Y-98180000D02*
X167605000Y-98180000D01*
X167605000Y-113910000D02*
X166405000Y-113910000D01*
X166405000Y-112150000D02*
X167605000Y-112150000D01*
X167605000Y-111370000D02*
X166405000Y-111370000D01*
X166405000Y-109610000D02*
X167605000Y-109610000D01*
X158080000Y-115180000D02*
X156880000Y-115180000D01*
X156880000Y-113420000D02*
X158080000Y-113420000D01*
X196180000Y-122800000D02*
X194980000Y-122800000D01*
X194980000Y-121040000D02*
X196180000Y-121040000D01*
X196250000Y-108340000D02*
X197450000Y-108340000D01*
X197450000Y-110100000D02*
X196250000Y-110100000D01*
D13*
X187495000Y-95285000D02*
X187495000Y-95235000D01*
X183345000Y-95285000D02*
X183345000Y-95140000D01*
X183345000Y-90135000D02*
X183345000Y-90280000D01*
X187495000Y-90135000D02*
X187495000Y-90280000D01*
X187495000Y-95285000D02*
X183345000Y-95285000D01*
X187495000Y-90135000D02*
X183345000Y-90135000D01*
X187495000Y-95235000D02*
X188895000Y-95235000D01*
X168185000Y-76685000D02*
X187685000Y-76685000D01*
X168545000Y-84455000D02*
X174895000Y-84455000D01*
X174895000Y-84455000D02*
X174895000Y-86995000D01*
X174895000Y-86995000D02*
X180975000Y-86995000D01*
X180975000Y-86995000D02*
X180975000Y-84455000D01*
X180975000Y-84455000D02*
X187685000Y-84455000D01*
X187685000Y-84455000D02*
X187685000Y-76685000D01*
X168095000Y-76685000D02*
X168095000Y-84455000D01*
X168185000Y-84455000D02*
X169545000Y-84455000D01*
D12*
X182370000Y-114610000D02*
X182370000Y-113680000D01*
X182370000Y-111450000D02*
X182370000Y-112380000D01*
X182370000Y-111450000D02*
X180210000Y-111450000D01*
X182370000Y-114610000D02*
X180910000Y-114610000D01*
X172845000Y-105085000D02*
X172845000Y-104155000D01*
X172845000Y-101925000D02*
X172845000Y-102855000D01*
X172845000Y-101925000D02*
X170685000Y-101925000D01*
X172845000Y-105085000D02*
X171385000Y-105085000D01*
X162685000Y-109530000D02*
X162685000Y-108600000D01*
X162685000Y-106370000D02*
X162685000Y-107300000D01*
X162685000Y-106370000D02*
X160525000Y-106370000D01*
X162685000Y-109530000D02*
X161225000Y-109530000D01*
X182370000Y-110165000D02*
X182370000Y-109235000D01*
X182370000Y-107005000D02*
X182370000Y-107935000D01*
X182370000Y-107005000D02*
X180210000Y-107005000D01*
X182370000Y-110165000D02*
X180910000Y-110165000D01*
X172845000Y-100005000D02*
X172845000Y-99075000D01*
X172845000Y-96845000D02*
X172845000Y-97775000D01*
X172845000Y-96845000D02*
X170685000Y-96845000D01*
X172845000Y-100005000D02*
X171385000Y-100005000D01*
X162685000Y-114610000D02*
X162685000Y-113680000D01*
X162685000Y-111450000D02*
X162685000Y-112380000D01*
X162685000Y-111450000D02*
X160525000Y-111450000D01*
X162685000Y-114610000D02*
X161225000Y-114610000D01*
D13*
X143510000Y-108585000D02*
X148590000Y-108585000D01*
X148590000Y-108585000D02*
X148590000Y-90805000D01*
X148590000Y-90805000D02*
X143510000Y-90805000D01*
X143510000Y-90805000D02*
X143510000Y-108585000D01*
D12*
X197610000Y-119690000D02*
X197610000Y-118760000D01*
X197610000Y-116530000D02*
X197610000Y-117460000D01*
X197610000Y-116530000D02*
X195450000Y-116530000D01*
X197610000Y-119690000D02*
X196150000Y-119690000D01*
X179715000Y-122845000D02*
G75*
G02X179715000Y-119725000I0J1560000D01*
G01*
X183575000Y-119725000D02*
X179715000Y-119725000D01*
X183575000Y-122845000D02*
X179715000Y-122845000D01*
X183575000Y-119725000D02*
X183575000Y-122845000D01*
X183575000Y-123245000D02*
X182455000Y-123245000D01*
X182455000Y-123245000D02*
X182455000Y-122845000D01*
X182455000Y-122845000D02*
X183575000Y-122845000D01*
X183575000Y-122845000D02*
X183575000Y-123245000D01*
X183705000Y-120015000D02*
X183575000Y-120015000D01*
X183575000Y-120015000D02*
X183575000Y-120015000D01*
X183575000Y-120015000D02*
X183705000Y-120015000D01*
X183705000Y-120015000D02*
X183705000Y-120015000D01*
X183705000Y-122555000D02*
X183575000Y-122555000D01*
X183575000Y-122555000D02*
X183575000Y-122555000D01*
X183575000Y-122555000D02*
X183705000Y-122555000D01*
X183705000Y-122555000D02*
X183705000Y-122555000D01*
X168285000Y-122845000D02*
G75*
G02X168285000Y-119725000I0J1560000D01*
G01*
X172145000Y-119725000D02*
X168285000Y-119725000D01*
X172145000Y-122845000D02*
X168285000Y-122845000D01*
X172145000Y-119725000D02*
X172145000Y-122845000D01*
X172145000Y-123245000D02*
X171025000Y-123245000D01*
X171025000Y-123245000D02*
X171025000Y-122845000D01*
X171025000Y-122845000D02*
X172145000Y-122845000D01*
X172145000Y-122845000D02*
X172145000Y-123245000D01*
X172275000Y-120015000D02*
X172145000Y-120015000D01*
X172145000Y-120015000D02*
X172145000Y-120015000D01*
X172145000Y-120015000D02*
X172275000Y-120015000D01*
X172275000Y-120015000D02*
X172275000Y-120015000D01*
X172275000Y-122555000D02*
X172145000Y-122555000D01*
X172145000Y-122555000D02*
X172145000Y-122555000D01*
X172145000Y-122555000D02*
X172275000Y-122555000D01*
X172275000Y-122555000D02*
X172275000Y-122555000D01*
X158125000Y-122845000D02*
G75*
G02X158125000Y-119725000I0J1560000D01*
G01*
X161985000Y-119725000D02*
X158125000Y-119725000D01*
X161985000Y-122845000D02*
X158125000Y-122845000D01*
X161985000Y-119725000D02*
X161985000Y-122845000D01*
X161985000Y-123245000D02*
X160865000Y-123245000D01*
X160865000Y-123245000D02*
X160865000Y-122845000D01*
X160865000Y-122845000D02*
X161985000Y-122845000D01*
X161985000Y-122845000D02*
X161985000Y-123245000D01*
X162115000Y-120015000D02*
X161985000Y-120015000D01*
X161985000Y-120015000D02*
X161985000Y-120015000D01*
X161985000Y-120015000D02*
X162115000Y-120015000D01*
X162115000Y-120015000D02*
X162115000Y-120015000D01*
X162115000Y-122555000D02*
X161985000Y-122555000D01*
X161985000Y-122555000D02*
X161985000Y-122555000D01*
X161985000Y-122555000D02*
X162115000Y-122555000D01*
X162115000Y-122555000D02*
X162115000Y-122555000D01*
D13*
X191012143Y-92241666D02*
X191059762Y-92289285D01*
X191107381Y-92432142D01*
X191107381Y-92527380D01*
X191059762Y-92670238D01*
X190964524Y-92765476D01*
X190869286Y-92813095D01*
X190678810Y-92860714D01*
X190535952Y-92860714D01*
X190345476Y-92813095D01*
X190250238Y-92765476D01*
X190155000Y-92670238D01*
X190107381Y-92527380D01*
X190107381Y-92432142D01*
X190155000Y-92289285D01*
X190202619Y-92241666D01*
X191107381Y-91289285D02*
X191107381Y-91860714D01*
X191107381Y-91575000D02*
X190107381Y-91575000D01*
X190250238Y-91670238D01*
X190345476Y-91765476D01*
X190393095Y-91860714D01*
X185888334Y-110692143D02*
X185840715Y-110739762D01*
X185697858Y-110787381D01*
X185602620Y-110787381D01*
X185459762Y-110739762D01*
X185364524Y-110644524D01*
X185316905Y-110549286D01*
X185269286Y-110358810D01*
X185269286Y-110215952D01*
X185316905Y-110025476D01*
X185364524Y-109930238D01*
X185459762Y-109835000D01*
X185602620Y-109787381D01*
X185697858Y-109787381D01*
X185840715Y-109835000D01*
X185888334Y-109882619D01*
X186269286Y-109882619D02*
X186316905Y-109835000D01*
X186412143Y-109787381D01*
X186650239Y-109787381D01*
X186745477Y-109835000D01*
X186793096Y-109882619D01*
X186840715Y-109977857D01*
X186840715Y-110073095D01*
X186793096Y-110215952D01*
X186221667Y-110787381D01*
X186840715Y-110787381D01*
X176998334Y-96397143D02*
X176950715Y-96444762D01*
X176807858Y-96492381D01*
X176712620Y-96492381D01*
X176569762Y-96444762D01*
X176474524Y-96349524D01*
X176426905Y-96254286D01*
X176379286Y-96063810D01*
X176379286Y-95920952D01*
X176426905Y-95730476D01*
X176474524Y-95635238D01*
X176569762Y-95540000D01*
X176712620Y-95492381D01*
X176807858Y-95492381D01*
X176950715Y-95540000D01*
X176998334Y-95587619D01*
X177331667Y-95492381D02*
X177950715Y-95492381D01*
X177617381Y-95873333D01*
X177760239Y-95873333D01*
X177855477Y-95920952D01*
X177903096Y-95968571D01*
X177950715Y-96063810D01*
X177950715Y-96301905D01*
X177903096Y-96397143D01*
X177855477Y-96444762D01*
X177760239Y-96492381D01*
X177474524Y-96492381D01*
X177379286Y-96444762D01*
X177331667Y-96397143D01*
X166838334Y-106557143D02*
X166790715Y-106604762D01*
X166647858Y-106652381D01*
X166552620Y-106652381D01*
X166409762Y-106604762D01*
X166314524Y-106509524D01*
X166266905Y-106414286D01*
X166219286Y-106223810D01*
X166219286Y-106080952D01*
X166266905Y-105890476D01*
X166314524Y-105795238D01*
X166409762Y-105700000D01*
X166552620Y-105652381D01*
X166647858Y-105652381D01*
X166790715Y-105700000D01*
X166838334Y-105747619D01*
X167695477Y-105985714D02*
X167695477Y-106652381D01*
X167457381Y-105604762D02*
X167219286Y-106319048D01*
X167838334Y-106319048D01*
X196683334Y-115137143D02*
X196635715Y-115184762D01*
X196492858Y-115232381D01*
X196397620Y-115232381D01*
X196254762Y-115184762D01*
X196159524Y-115089524D01*
X196111905Y-114994286D01*
X196064286Y-114803810D01*
X196064286Y-114660952D01*
X196111905Y-114470476D01*
X196159524Y-114375238D01*
X196254762Y-114280000D01*
X196397620Y-114232381D01*
X196492858Y-114232381D01*
X196635715Y-114280000D01*
X196683334Y-114327619D01*
X197588096Y-114232381D02*
X197111905Y-114232381D01*
X197064286Y-114708571D01*
X197111905Y-114660952D01*
X197207143Y-114613333D01*
X197445239Y-114613333D01*
X197540477Y-114660952D01*
X197588096Y-114708571D01*
X197635715Y-114803810D01*
X197635715Y-115041905D01*
X197588096Y-115137143D01*
X197540477Y-115184762D01*
X197445239Y-115232381D01*
X197207143Y-115232381D01*
X197111905Y-115184762D01*
X197064286Y-115137143D01*
X176676667Y-132952381D02*
X176676667Y-133666667D01*
X176629047Y-133809524D01*
X176533809Y-133904762D01*
X176390952Y-133952381D01*
X176295714Y-133952381D01*
X177676667Y-133952381D02*
X177105238Y-133952381D01*
X177390952Y-133952381D02*
X177390952Y-132952381D01*
X177295714Y-133095238D01*
X177200476Y-133190476D01*
X177105238Y-133238095D01*
X185888334Y-109877381D02*
X185555000Y-109401190D01*
X185316905Y-109877381D02*
X185316905Y-108877381D01*
X185697858Y-108877381D01*
X185793096Y-108925000D01*
X185840715Y-108972619D01*
X185888334Y-109067857D01*
X185888334Y-109210714D01*
X185840715Y-109305952D01*
X185793096Y-109353571D01*
X185697858Y-109401190D01*
X185316905Y-109401190D01*
X186840715Y-109877381D02*
X186269286Y-109877381D01*
X186555000Y-109877381D02*
X186555000Y-108877381D01*
X186459762Y-109020238D01*
X186364524Y-109115476D01*
X186269286Y-109163095D01*
X185888334Y-113052381D02*
X185555000Y-112576190D01*
X185316905Y-113052381D02*
X185316905Y-112052381D01*
X185697858Y-112052381D01*
X185793096Y-112100000D01*
X185840715Y-112147619D01*
X185888334Y-112242857D01*
X185888334Y-112385714D01*
X185840715Y-112480952D01*
X185793096Y-112528571D01*
X185697858Y-112576190D01*
X185316905Y-112576190D01*
X186269286Y-112147619D02*
X186316905Y-112100000D01*
X186412143Y-112052381D01*
X186650239Y-112052381D01*
X186745477Y-112100000D01*
X186793096Y-112147619D01*
X186840715Y-112242857D01*
X186840715Y-112338095D01*
X186793096Y-112480952D01*
X186221667Y-113052381D01*
X186840715Y-113052381D01*
X177187381Y-111291666D02*
X176711190Y-111625000D01*
X177187381Y-111863095D02*
X176187381Y-111863095D01*
X176187381Y-111482142D01*
X176235000Y-111386904D01*
X176282619Y-111339285D01*
X176377857Y-111291666D01*
X176520714Y-111291666D01*
X176615952Y-111339285D01*
X176663571Y-111386904D01*
X176711190Y-111482142D01*
X176711190Y-111863095D01*
X176187381Y-110958333D02*
X176187381Y-110339285D01*
X176568333Y-110672619D01*
X176568333Y-110529761D01*
X176615952Y-110434523D01*
X176663571Y-110386904D01*
X176758810Y-110339285D01*
X176996905Y-110339285D01*
X177092143Y-110386904D01*
X177139762Y-110434523D01*
X177187381Y-110529761D01*
X177187381Y-110815476D01*
X177139762Y-110910714D01*
X177092143Y-110958333D01*
X176998334Y-101622381D02*
X176665000Y-101146190D01*
X176426905Y-101622381D02*
X176426905Y-100622381D01*
X176807858Y-100622381D01*
X176903096Y-100670000D01*
X176950715Y-100717619D01*
X176998334Y-100812857D01*
X176998334Y-100955714D01*
X176950715Y-101050952D01*
X176903096Y-101098571D01*
X176807858Y-101146190D01*
X176426905Y-101146190D01*
X177855477Y-100955714D02*
X177855477Y-101622381D01*
X177617381Y-100574762D02*
X177379286Y-101289048D01*
X177998334Y-101289048D01*
X176998334Y-99082381D02*
X176665000Y-98606190D01*
X176426905Y-99082381D02*
X176426905Y-98082381D01*
X176807858Y-98082381D01*
X176903096Y-98130000D01*
X176950715Y-98177619D01*
X176998334Y-98272857D01*
X176998334Y-98415714D01*
X176950715Y-98510952D01*
X176903096Y-98558571D01*
X176807858Y-98606190D01*
X176426905Y-98606190D01*
X177903096Y-98082381D02*
X177426905Y-98082381D01*
X177379286Y-98558571D01*
X177426905Y-98510952D01*
X177522143Y-98463333D01*
X177760239Y-98463333D01*
X177855477Y-98510952D01*
X177903096Y-98558571D01*
X177950715Y-98653810D01*
X177950715Y-98891905D01*
X177903096Y-98987143D01*
X177855477Y-99034762D01*
X177760239Y-99082381D01*
X177522143Y-99082381D01*
X177426905Y-99034762D01*
X177379286Y-98987143D01*
X166838334Y-97812381D02*
X166505000Y-97336190D01*
X166266905Y-97812381D02*
X166266905Y-96812381D01*
X166647858Y-96812381D01*
X166743096Y-96860000D01*
X166790715Y-96907619D01*
X166838334Y-97002857D01*
X166838334Y-97145714D01*
X166790715Y-97240952D01*
X166743096Y-97288571D01*
X166647858Y-97336190D01*
X166266905Y-97336190D01*
X167695477Y-96812381D02*
X167505000Y-96812381D01*
X167409762Y-96860000D01*
X167362143Y-96907619D01*
X167266905Y-97050476D01*
X167219286Y-97240952D01*
X167219286Y-97621905D01*
X167266905Y-97717143D01*
X167314524Y-97764762D01*
X167409762Y-97812381D01*
X167600239Y-97812381D01*
X167695477Y-97764762D01*
X167743096Y-97717143D01*
X167790715Y-97621905D01*
X167790715Y-97383810D01*
X167743096Y-97288571D01*
X167695477Y-97240952D01*
X167600239Y-97193333D01*
X167409762Y-97193333D01*
X167314524Y-97240952D01*
X167266905Y-97288571D01*
X167219286Y-97383810D01*
X166838334Y-111782381D02*
X166505000Y-111306190D01*
X166266905Y-111782381D02*
X166266905Y-110782381D01*
X166647858Y-110782381D01*
X166743096Y-110830000D01*
X166790715Y-110877619D01*
X166838334Y-110972857D01*
X166838334Y-111115714D01*
X166790715Y-111210952D01*
X166743096Y-111258571D01*
X166647858Y-111306190D01*
X166266905Y-111306190D01*
X167171667Y-110782381D02*
X167838334Y-110782381D01*
X167409762Y-111782381D01*
X166838334Y-109242381D02*
X166505000Y-108766190D01*
X166266905Y-109242381D02*
X166266905Y-108242381D01*
X166647858Y-108242381D01*
X166743096Y-108290000D01*
X166790715Y-108337619D01*
X166838334Y-108432857D01*
X166838334Y-108575714D01*
X166790715Y-108670952D01*
X166743096Y-108718571D01*
X166647858Y-108766190D01*
X166266905Y-108766190D01*
X167409762Y-108670952D02*
X167314524Y-108623333D01*
X167266905Y-108575714D01*
X167219286Y-108480476D01*
X167219286Y-108432857D01*
X167266905Y-108337619D01*
X167314524Y-108290000D01*
X167409762Y-108242381D01*
X167600239Y-108242381D01*
X167695477Y-108290000D01*
X167743096Y-108337619D01*
X167790715Y-108432857D01*
X167790715Y-108480476D01*
X167743096Y-108575714D01*
X167695477Y-108623333D01*
X167600239Y-108670952D01*
X167409762Y-108670952D01*
X167314524Y-108718571D01*
X167266905Y-108766190D01*
X167219286Y-108861429D01*
X167219286Y-109051905D01*
X167266905Y-109147143D01*
X167314524Y-109194762D01*
X167409762Y-109242381D01*
X167600239Y-109242381D01*
X167695477Y-109194762D01*
X167743096Y-109147143D01*
X167790715Y-109051905D01*
X167790715Y-108861429D01*
X167743096Y-108766190D01*
X167695477Y-108718571D01*
X167600239Y-108670952D01*
X157313334Y-113052381D02*
X156980000Y-112576190D01*
X156741905Y-113052381D02*
X156741905Y-112052381D01*
X157122858Y-112052381D01*
X157218096Y-112100000D01*
X157265715Y-112147619D01*
X157313334Y-112242857D01*
X157313334Y-112385714D01*
X157265715Y-112480952D01*
X157218096Y-112528571D01*
X157122858Y-112576190D01*
X156741905Y-112576190D01*
X157789524Y-113052381D02*
X157980000Y-113052381D01*
X158075239Y-113004762D01*
X158122858Y-112957143D01*
X158218096Y-112814286D01*
X158265715Y-112623810D01*
X158265715Y-112242857D01*
X158218096Y-112147619D01*
X158170477Y-112100000D01*
X158075239Y-112052381D01*
X157884762Y-112052381D01*
X157789524Y-112100000D01*
X157741905Y-112147619D01*
X157694286Y-112242857D01*
X157694286Y-112480952D01*
X157741905Y-112576190D01*
X157789524Y-112623810D01*
X157884762Y-112671429D01*
X158075239Y-112671429D01*
X158170477Y-112623810D01*
X158218096Y-112576190D01*
X158265715Y-112480952D01*
X194937143Y-120672381D02*
X194603809Y-120196190D01*
X194365714Y-120672381D02*
X194365714Y-119672381D01*
X194746667Y-119672381D01*
X194841905Y-119720000D01*
X194889524Y-119767619D01*
X194937143Y-119862857D01*
X194937143Y-120005714D01*
X194889524Y-120100952D01*
X194841905Y-120148571D01*
X194746667Y-120196190D01*
X194365714Y-120196190D01*
X195889524Y-120672381D02*
X195318095Y-120672381D01*
X195603809Y-120672381D02*
X195603809Y-119672381D01*
X195508571Y-119815238D01*
X195413333Y-119910476D01*
X195318095Y-119958095D01*
X196508571Y-119672381D02*
X196603810Y-119672381D01*
X196699048Y-119720000D01*
X196746667Y-119767619D01*
X196794286Y-119862857D01*
X196841905Y-120053333D01*
X196841905Y-120291429D01*
X196794286Y-120481905D01*
X196746667Y-120577143D01*
X196699048Y-120624762D01*
X196603810Y-120672381D01*
X196508571Y-120672381D01*
X196413333Y-120624762D01*
X196365714Y-120577143D01*
X196318095Y-120481905D01*
X196270476Y-120291429D01*
X196270476Y-120053333D01*
X196318095Y-119862857D01*
X196365714Y-119767619D01*
X196413333Y-119720000D01*
X196508571Y-119672381D01*
X196207143Y-111372381D02*
X195873809Y-110896190D01*
X195635714Y-111372381D02*
X195635714Y-110372381D01*
X196016667Y-110372381D01*
X196111905Y-110420000D01*
X196159524Y-110467619D01*
X196207143Y-110562857D01*
X196207143Y-110705714D01*
X196159524Y-110800952D01*
X196111905Y-110848571D01*
X196016667Y-110896190D01*
X195635714Y-110896190D01*
X197159524Y-111372381D02*
X196588095Y-111372381D01*
X196873809Y-111372381D02*
X196873809Y-110372381D01*
X196778571Y-110515238D01*
X196683333Y-110610476D01*
X196588095Y-110658095D01*
X198111905Y-111372381D02*
X197540476Y-111372381D01*
X197826190Y-111372381D02*
X197826190Y-110372381D01*
X197730952Y-110515238D01*
X197635714Y-110610476D01*
X197540476Y-110658095D01*
X175140095Y-124887381D02*
X175140095Y-125696905D01*
X175187714Y-125792143D01*
X175235333Y-125839762D01*
X175330571Y-125887381D01*
X175521048Y-125887381D01*
X175616286Y-125839762D01*
X175663905Y-125792143D01*
X175711524Y-125696905D01*
X175711524Y-124887381D01*
X176711524Y-125887381D02*
X176140095Y-125887381D01*
X176425809Y-125887381D02*
X176425809Y-124887381D01*
X176330571Y-125030238D01*
X176235333Y-125125476D01*
X176140095Y-125173095D01*
X184658095Y-95662381D02*
X184658095Y-96471905D01*
X184705714Y-96567143D01*
X184753333Y-96614762D01*
X184848571Y-96662381D01*
X185039048Y-96662381D01*
X185134286Y-96614762D01*
X185181905Y-96567143D01*
X185229524Y-96471905D01*
X185229524Y-95662381D01*
X185658095Y-95757619D02*
X185705714Y-95710000D01*
X185800952Y-95662381D01*
X186039048Y-95662381D01*
X186134286Y-95710000D01*
X186181905Y-95757619D01*
X186229524Y-95852857D01*
X186229524Y-95948095D01*
X186181905Y-96090952D01*
X185610476Y-96662381D01*
X186229524Y-96662381D01*
X177673095Y-87717381D02*
X177673095Y-88526905D01*
X177720714Y-88622143D01*
X177768333Y-88669762D01*
X177863571Y-88717381D01*
X178054048Y-88717381D01*
X178149286Y-88669762D01*
X178196905Y-88622143D01*
X178244524Y-88526905D01*
X178244524Y-87717381D01*
X178625476Y-87717381D02*
X179244524Y-87717381D01*
X178911190Y-88098333D01*
X179054048Y-88098333D01*
X179149286Y-88145952D01*
X179196905Y-88193571D01*
X179244524Y-88288810D01*
X179244524Y-88526905D01*
X179196905Y-88622143D01*
X179149286Y-88669762D01*
X179054048Y-88717381D01*
X178768333Y-88717381D01*
X178673095Y-88669762D01*
X178625476Y-88622143D01*
X180871905Y-110982381D02*
X180871905Y-109982381D01*
X181110000Y-109982381D01*
X181252858Y-110030000D01*
X181348096Y-110125238D01*
X181395715Y-110220476D01*
X181443334Y-110410952D01*
X181443334Y-110553810D01*
X181395715Y-110744286D01*
X181348096Y-110839524D01*
X181252858Y-110934762D01*
X181110000Y-110982381D01*
X180871905Y-110982381D01*
X182395715Y-110982381D02*
X181824286Y-110982381D01*
X182110000Y-110982381D02*
X182110000Y-109982381D01*
X182014762Y-110125238D01*
X181919524Y-110220476D01*
X181824286Y-110268095D01*
X171346905Y-101457381D02*
X171346905Y-100457381D01*
X171585000Y-100457381D01*
X171727858Y-100505000D01*
X171823096Y-100600238D01*
X171870715Y-100695476D01*
X171918334Y-100885952D01*
X171918334Y-101028810D01*
X171870715Y-101219286D01*
X171823096Y-101314524D01*
X171727858Y-101409762D01*
X171585000Y-101457381D01*
X171346905Y-101457381D01*
X172299286Y-100552619D02*
X172346905Y-100505000D01*
X172442143Y-100457381D01*
X172680239Y-100457381D01*
X172775477Y-100505000D01*
X172823096Y-100552619D01*
X172870715Y-100647857D01*
X172870715Y-100743095D01*
X172823096Y-100885952D01*
X172251667Y-101457381D01*
X172870715Y-101457381D01*
X161186905Y-105902381D02*
X161186905Y-104902381D01*
X161425000Y-104902381D01*
X161567858Y-104950000D01*
X161663096Y-105045238D01*
X161710715Y-105140476D01*
X161758334Y-105330952D01*
X161758334Y-105473810D01*
X161710715Y-105664286D01*
X161663096Y-105759524D01*
X161567858Y-105854762D01*
X161425000Y-105902381D01*
X161186905Y-105902381D01*
X162091667Y-104902381D02*
X162710715Y-104902381D01*
X162377381Y-105283333D01*
X162520239Y-105283333D01*
X162615477Y-105330952D01*
X162663096Y-105378571D01*
X162710715Y-105473810D01*
X162710715Y-105711905D01*
X162663096Y-105807143D01*
X162615477Y-105854762D01*
X162520239Y-105902381D01*
X162234524Y-105902381D01*
X162139286Y-105854762D01*
X162091667Y-105807143D01*
X181514762Y-106632619D02*
X181419524Y-106585000D01*
X181324286Y-106489762D01*
X181181429Y-106346905D01*
X181086190Y-106299286D01*
X180990952Y-106299286D01*
X181038571Y-106537381D02*
X180943333Y-106489762D01*
X180848095Y-106394524D01*
X180800476Y-106204048D01*
X180800476Y-105870714D01*
X180848095Y-105680238D01*
X180943333Y-105585000D01*
X181038571Y-105537381D01*
X181229048Y-105537381D01*
X181324286Y-105585000D01*
X181419524Y-105680238D01*
X181467143Y-105870714D01*
X181467143Y-106204048D01*
X181419524Y-106394524D01*
X181324286Y-106489762D01*
X181229048Y-106537381D01*
X181038571Y-106537381D01*
X182419524Y-106537381D02*
X181848095Y-106537381D01*
X182133809Y-106537381D02*
X182133809Y-105537381D01*
X182038571Y-105680238D01*
X181943333Y-105775476D01*
X181848095Y-105823095D01*
X171989762Y-96472619D02*
X171894524Y-96425000D01*
X171799286Y-96329762D01*
X171656429Y-96186905D01*
X171561190Y-96139286D01*
X171465952Y-96139286D01*
X171513571Y-96377381D02*
X171418333Y-96329762D01*
X171323095Y-96234524D01*
X171275476Y-96044048D01*
X171275476Y-95710714D01*
X171323095Y-95520238D01*
X171418333Y-95425000D01*
X171513571Y-95377381D01*
X171704048Y-95377381D01*
X171799286Y-95425000D01*
X171894524Y-95520238D01*
X171942143Y-95710714D01*
X171942143Y-96044048D01*
X171894524Y-96234524D01*
X171799286Y-96329762D01*
X171704048Y-96377381D01*
X171513571Y-96377381D01*
X172323095Y-95472619D02*
X172370714Y-95425000D01*
X172465952Y-95377381D01*
X172704048Y-95377381D01*
X172799286Y-95425000D01*
X172846905Y-95472619D01*
X172894524Y-95567857D01*
X172894524Y-95663095D01*
X172846905Y-95805952D01*
X172275476Y-96377381D01*
X172894524Y-96377381D01*
X161829762Y-111077619D02*
X161734524Y-111030000D01*
X161639286Y-110934762D01*
X161496429Y-110791905D01*
X161401190Y-110744286D01*
X161305952Y-110744286D01*
X161353571Y-110982381D02*
X161258333Y-110934762D01*
X161163095Y-110839524D01*
X161115476Y-110649048D01*
X161115476Y-110315714D01*
X161163095Y-110125238D01*
X161258333Y-110030000D01*
X161353571Y-109982381D01*
X161544048Y-109982381D01*
X161639286Y-110030000D01*
X161734524Y-110125238D01*
X161782143Y-110315714D01*
X161782143Y-110649048D01*
X161734524Y-110839524D01*
X161639286Y-110934762D01*
X161544048Y-110982381D01*
X161353571Y-110982381D01*
X162115476Y-109982381D02*
X162734524Y-109982381D01*
X162401190Y-110363333D01*
X162544048Y-110363333D01*
X162639286Y-110410952D01*
X162686905Y-110458571D01*
X162734524Y-110553810D01*
X162734524Y-110791905D01*
X162686905Y-110887143D01*
X162639286Y-110934762D01*
X162544048Y-110982381D01*
X162258333Y-110982381D01*
X162163095Y-110934762D01*
X162115476Y-110887143D01*
X149312381Y-100456905D02*
X150121905Y-100456905D01*
X150217143Y-100409286D01*
X150264762Y-100361667D01*
X150312381Y-100266429D01*
X150312381Y-100075952D01*
X150264762Y-99980714D01*
X150217143Y-99933095D01*
X150121905Y-99885476D01*
X149312381Y-99885476D01*
X149645714Y-98980714D02*
X150312381Y-98980714D01*
X149264762Y-99218810D02*
X149979048Y-99456905D01*
X149979048Y-98837857D01*
X195611905Y-115062381D02*
X195611905Y-115871905D01*
X195659524Y-115967143D01*
X195707143Y-116014762D01*
X195802381Y-116062381D01*
X195992858Y-116062381D01*
X196088096Y-116014762D01*
X196135715Y-115967143D01*
X196183334Y-115871905D01*
X196183334Y-115062381D01*
X197183334Y-116062381D02*
X196611905Y-116062381D01*
X196897619Y-116062381D02*
X196897619Y-115062381D01*
X196802381Y-115205238D01*
X196707143Y-115300476D01*
X196611905Y-115348095D01*
X197802381Y-115062381D02*
X197897620Y-115062381D01*
X197992858Y-115110000D01*
X198040477Y-115157619D01*
X198088096Y-115252857D01*
X198135715Y-115443333D01*
X198135715Y-115681429D01*
X198088096Y-115871905D01*
X198040477Y-115967143D01*
X197992858Y-116014762D01*
X197897620Y-116062381D01*
X197802381Y-116062381D01*
X197707143Y-116014762D01*
X197659524Y-115967143D01*
X197611905Y-115871905D01*
X197564286Y-115681429D01*
X197564286Y-115443333D01*
X197611905Y-115252857D01*
X197659524Y-115157619D01*
X197707143Y-115110000D01*
X197802381Y-115062381D01*
X187197381Y-122023095D02*
X186197381Y-122023095D01*
X186197381Y-121785000D01*
X186245000Y-121642142D01*
X186340238Y-121546904D01*
X186435476Y-121499285D01*
X186625952Y-121451666D01*
X186768810Y-121451666D01*
X186959286Y-121499285D01*
X187054524Y-121546904D01*
X187149762Y-121642142D01*
X187197381Y-121785000D01*
X187197381Y-122023095D01*
X186530714Y-120594523D02*
X187197381Y-120594523D01*
X186149762Y-120832619D02*
X186864048Y-121070714D01*
X186864048Y-120451666D01*
X175767381Y-122023095D02*
X174767381Y-122023095D01*
X174767381Y-121785000D01*
X174815000Y-121642142D01*
X174910238Y-121546904D01*
X175005476Y-121499285D01*
X175195952Y-121451666D01*
X175338810Y-121451666D01*
X175529286Y-121499285D01*
X175624524Y-121546904D01*
X175719762Y-121642142D01*
X175767381Y-121785000D01*
X175767381Y-122023095D01*
X174767381Y-120546904D02*
X174767381Y-121023095D01*
X175243571Y-121070714D01*
X175195952Y-121023095D01*
X175148333Y-120927857D01*
X175148333Y-120689761D01*
X175195952Y-120594523D01*
X175243571Y-120546904D01*
X175338810Y-120499285D01*
X175576905Y-120499285D01*
X175672143Y-120546904D01*
X175719762Y-120594523D01*
X175767381Y-120689761D01*
X175767381Y-120927857D01*
X175719762Y-121023095D01*
X175672143Y-121070714D01*
X165607381Y-122023095D02*
X164607381Y-122023095D01*
X164607381Y-121785000D01*
X164655000Y-121642142D01*
X164750238Y-121546904D01*
X164845476Y-121499285D01*
X165035952Y-121451666D01*
X165178810Y-121451666D01*
X165369286Y-121499285D01*
X165464524Y-121546904D01*
X165559762Y-121642142D01*
X165607381Y-121785000D01*
X165607381Y-122023095D01*
X164607381Y-120594523D02*
X164607381Y-120785000D01*
X164655000Y-120880238D01*
X164702619Y-120927857D01*
X164845476Y-121023095D01*
X165035952Y-121070714D01*
X165416905Y-121070714D01*
X165512143Y-121023095D01*
X165559762Y-120975476D01*
X165607381Y-120880238D01*
X165607381Y-120689761D01*
X165559762Y-120594523D01*
X165512143Y-120546904D01*
X165416905Y-120499285D01*
X165178810Y-120499285D01*
X165083571Y-120546904D01*
X165035952Y-120594523D01*
X164988333Y-120689761D01*
X164988333Y-120880238D01*
X165035952Y-120975476D01*
X165083571Y-121023095D01*
X165178810Y-121070714D01*
M02*
