G04 #@! TF.FileFunction,Soldermask,Bot*
%FSLAX46Y46*%
G04 Gerber Fmt 4.6, Leading zero omitted, Abs format (unit mm)*
G04 Created by KiCad (PCBNEW 4.0.7) date 10/31/17 21:38:08*
%MOMM*%
%LPD*%
G01*
G04 APERTURE LIST*
%ADD10C,0.100000*%
%ADD11R,1.920000X1.920000*%
%ADD12C,1.920000*%
%ADD13C,4.210000*%
%ADD14C,1.924000*%
%ADD15C,1.400000*%
%ADD16R,2.200000X2.200000*%
%ADD17C,2.200000*%
G04 APERTURE END LIST*
D10*
D11*
X201930000Y-127000000D03*
D12*
X199160000Y-127000000D03*
X196390000Y-127000000D03*
X193620000Y-127000000D03*
X190860000Y-127000000D03*
X188090000Y-127000000D03*
X185320000Y-127000000D03*
X182550000Y-127000000D03*
X179780000Y-127000000D03*
D13*
X208640000Y-128420000D03*
X145140000Y-128420000D03*
D12*
X177010000Y-127000000D03*
X174240000Y-127000000D03*
X171480000Y-127000000D03*
X168710000Y-127000000D03*
X165940000Y-127000000D03*
X163170000Y-127000000D03*
X160400000Y-127000000D03*
X157630000Y-127000000D03*
X154860000Y-127000000D03*
X152100000Y-127000000D03*
X200560000Y-129840000D03*
X197790000Y-129840000D03*
X195020000Y-129840000D03*
X192250000Y-129840000D03*
X189480000Y-129840000D03*
X186720000Y-129840000D03*
X183950000Y-129840000D03*
X181180000Y-129840000D03*
X178410000Y-129840000D03*
X175640000Y-129840000D03*
X172870000Y-129840000D03*
X170100000Y-129840000D03*
X167340000Y-129840000D03*
X164570000Y-129840000D03*
X161800000Y-129840000D03*
X159030000Y-129840000D03*
X156260000Y-129840000D03*
X153490000Y-129840000D03*
D14*
X153042000Y-87335000D03*
X153042000Y-89875000D03*
X153042000Y-92415000D03*
X153042000Y-94955000D03*
X153042000Y-97495000D03*
X153042000Y-100035000D03*
X153042000Y-102575000D03*
X153042000Y-105115000D03*
X153042000Y-110195000D03*
X201302000Y-105115000D03*
X153042000Y-112735000D03*
X153042000Y-115275000D03*
X153042000Y-117815000D03*
X153042000Y-120355000D03*
X153042000Y-122895000D03*
X201302000Y-78195000D03*
X201302000Y-80735000D03*
X201302000Y-83275000D03*
X201302000Y-85815000D03*
X201302000Y-88355000D03*
X201302000Y-90895000D03*
X201302000Y-93435000D03*
X201302000Y-95975000D03*
X201302000Y-98515000D03*
X201302000Y-101055000D03*
X201302000Y-107655000D03*
X201302000Y-110195000D03*
X201302000Y-112735000D03*
X201302000Y-115275000D03*
X201302000Y-117815000D03*
X201302000Y-120355000D03*
X201302000Y-122895000D03*
D15*
X179705000Y-81915000D03*
X176165000Y-81915000D03*
X179705000Y-85455000D03*
X176165000Y-85455000D03*
X177935000Y-83685000D03*
D14*
X144780000Y-107315000D03*
X144780000Y-104775000D03*
X144780000Y-94615000D03*
X144780000Y-92075000D03*
D16*
X184785000Y-120015000D03*
D17*
X184785000Y-122555000D03*
D16*
X173355000Y-120015000D03*
D17*
X173355000Y-122555000D03*
D16*
X163195000Y-120015000D03*
D17*
X163195000Y-122555000D03*
M02*
