M48
;DRILL file {KiCad 4.0.7} date 10/31/17 21:19:15
;FORMAT={-:-/ absolute / metric / decimal}
FMAT,2
METRIC,TZ
T1C0.400
T2C0.762
T3C0.900
T4C1.020
T5C3.050
%
G90
G05
M71
T1
X168.437Y-114.415
X177.26Y-109.767
X178.23Y-104.147
T2
X144.78Y-92.075
X144.78Y-94.615
X144.78Y-104.775
X144.78Y-107.315
X153.042Y-87.335
X153.042Y-89.875
X153.042Y-92.415
X153.042Y-94.955
X153.042Y-97.495
X153.042Y-100.035
X153.042Y-102.575
X153.042Y-105.115
X153.042Y-110.195
X153.042Y-112.735
X153.042Y-115.275
X153.042Y-117.815
X153.042Y-120.355
X153.042Y-122.895
X176.165Y-81.915
X176.165Y-85.455
X177.935Y-83.685
X179.705Y-81.915
X179.705Y-85.455
X201.302Y-78.195
X201.302Y-80.735
X201.302Y-83.275
X201.302Y-85.815
X201.302Y-88.355
X201.302Y-90.895
X201.302Y-93.435
X201.302Y-95.975
X201.302Y-98.515
X201.302Y-101.055
X201.302Y-105.115
X201.302Y-107.655
X201.302Y-110.195
X201.302Y-112.735
X201.302Y-115.275
X201.302Y-117.815
X201.302Y-120.355
X201.302Y-122.895
T3
X163.195Y-120.015
X163.195Y-122.555
X173.355Y-120.015
X173.355Y-122.555
X184.785Y-120.015
X184.785Y-122.555
T4
X152.1Y-127.
X153.49Y-129.84
X154.86Y-127.
X156.26Y-129.84
X157.63Y-127.
X159.03Y-129.84
X160.4Y-127.
X161.8Y-129.84
X163.17Y-127.
X164.57Y-129.84
X165.94Y-127.
X167.34Y-129.84
X168.71Y-127.
X170.1Y-129.84
X171.48Y-127.
X172.87Y-129.84
X174.24Y-127.
X175.64Y-129.84
X177.01Y-127.
X178.41Y-129.84
X179.78Y-127.
X181.18Y-129.84
X182.55Y-127.
X183.95Y-129.84
X185.32Y-127.
X186.72Y-129.84
X188.09Y-127.
X189.48Y-129.84
X190.86Y-127.
X192.25Y-129.84
X193.62Y-127.
X195.02Y-129.84
X196.39Y-127.
X197.79Y-129.84
X199.16Y-127.
X200.56Y-129.84
X201.93Y-127.
T5
X145.14Y-128.42
X208.64Y-128.42
T0
M30
