G04 #@! TF.FileFunction,Copper,L2,Bot,Signal*
%FSLAX46Y46*%
G04 Gerber Fmt 4.6, Leading zero omitted, Abs format (unit mm)*
G04 Created by KiCad (PCBNEW 4.0.7) date 10/28/17 15:39:50*
%MOMM*%
%LPD*%
G01*
G04 APERTURE LIST*
%ADD10C,0.100000*%
%ADD11R,1.520000X1.520000*%
%ADD12C,1.520000*%
%ADD13C,3.810000*%
%ADD14C,1.524000*%
%ADD15C,1.000000*%
%ADD16C,0.600000*%
%ADD17C,0.250000*%
%ADD18C,0.350000*%
%ADD19C,0.254000*%
G04 APERTURE END LIST*
D10*
D11*
X201930000Y-127000000D03*
D12*
X199160000Y-127000000D03*
X196390000Y-127000000D03*
X193620000Y-127000000D03*
X190860000Y-127000000D03*
X188090000Y-127000000D03*
X185320000Y-127000000D03*
X182550000Y-127000000D03*
X179780000Y-127000000D03*
D13*
X208640000Y-128420000D03*
X145140000Y-128420000D03*
D12*
X177010000Y-127000000D03*
X174240000Y-127000000D03*
X171480000Y-127000000D03*
X168710000Y-127000000D03*
X165940000Y-127000000D03*
X163170000Y-127000000D03*
X160400000Y-127000000D03*
X157630000Y-127000000D03*
X154860000Y-127000000D03*
X152100000Y-127000000D03*
X200560000Y-129840000D03*
X197790000Y-129840000D03*
X195020000Y-129840000D03*
X192250000Y-129840000D03*
X189480000Y-129840000D03*
X186720000Y-129840000D03*
X183950000Y-129840000D03*
X181180000Y-129840000D03*
X178410000Y-129840000D03*
X175640000Y-129840000D03*
X172870000Y-129840000D03*
X170100000Y-129840000D03*
X167340000Y-129840000D03*
X164570000Y-129840000D03*
X161800000Y-129840000D03*
X159030000Y-129840000D03*
X156260000Y-129840000D03*
X153490000Y-129840000D03*
D14*
X153042000Y-87335000D03*
X153042000Y-89875000D03*
X153042000Y-92415000D03*
X153042000Y-94955000D03*
X153042000Y-97495000D03*
X153042000Y-100035000D03*
X153042000Y-102575000D03*
X153042000Y-105115000D03*
X153042000Y-110195000D03*
X201302000Y-105115000D03*
X153042000Y-112735000D03*
X153042000Y-115275000D03*
X153042000Y-117815000D03*
X153042000Y-120355000D03*
X153042000Y-122895000D03*
X201302000Y-78195000D03*
X201302000Y-80735000D03*
X201302000Y-83275000D03*
X201302000Y-85815000D03*
X201302000Y-88355000D03*
X201302000Y-90895000D03*
X201302000Y-93435000D03*
X201302000Y-95975000D03*
X201302000Y-98515000D03*
X201302000Y-101055000D03*
X201302000Y-107655000D03*
X201302000Y-110195000D03*
X201302000Y-112735000D03*
X201302000Y-115275000D03*
X201302000Y-117815000D03*
X201302000Y-120355000D03*
X201302000Y-122895000D03*
D15*
X179705000Y-81915000D03*
X176165000Y-81915000D03*
X179705000Y-85455000D03*
X176165000Y-85455000D03*
X177935000Y-83685000D03*
D14*
X144780000Y-107315000D03*
X144780000Y-104775000D03*
X144780000Y-94615000D03*
X144780000Y-92075000D03*
D16*
X184175500Y-120756400D03*
X178302800Y-109482200D03*
X169031500Y-119284000D03*
X165023400Y-118597600D03*
X160604500Y-114551700D03*
D17*
X179705000Y-85455000D02*
X179705000Y-81915000D01*
X153042000Y-102575000D02*
X153042000Y-100035000D01*
X177931900Y-127000000D02*
X184175500Y-120756400D01*
X177010000Y-127000000D02*
X177931900Y-127000000D01*
X178302800Y-120177200D02*
X171480000Y-127000000D01*
X178302800Y-109482200D02*
X178302800Y-120177200D01*
X165940000Y-122375500D02*
X169031500Y-119284000D01*
X165940000Y-127000000D02*
X165940000Y-122375500D01*
D18*
X156312700Y-104140000D02*
X166370000Y-94082700D01*
X153367800Y-107084900D02*
X156312700Y-104140000D01*
X156312700Y-122787300D02*
X152100000Y-127000000D01*
X167107700Y-93345000D02*
X176165000Y-84287700D01*
D17*
X166370000Y-94082700D02*
X167107700Y-93345000D01*
D18*
X167107700Y-93345000D02*
X166472700Y-93980000D01*
X166370000Y-94082700D02*
X166472700Y-93980000D01*
D17*
X152100000Y-127000000D02*
X160628900Y-118471100D01*
X164896900Y-118471100D02*
X165023400Y-118597600D01*
X160628900Y-118471100D02*
X164896900Y-118471100D01*
X160628900Y-114576100D02*
X160628900Y-118471100D01*
X160604500Y-114551700D02*
X160628900Y-114576100D01*
D18*
X176165000Y-84287700D02*
X176165000Y-81915000D01*
X153367800Y-107315000D02*
X153367800Y-107084900D01*
X144780000Y-107315000D02*
X153367800Y-107315000D01*
D17*
X153367800Y-107315000D02*
X160604500Y-114551700D01*
D19*
G36*
X200511697Y-77009990D02*
X200118371Y-77402630D01*
X199905243Y-77915900D01*
X199904758Y-78471661D01*
X200116990Y-78985303D01*
X200509630Y-79378629D01*
X200717512Y-79464949D01*
X200511697Y-79549990D01*
X200118371Y-79942630D01*
X199905243Y-80455900D01*
X199904758Y-81011661D01*
X200116990Y-81525303D01*
X200509630Y-81918629D01*
X200717512Y-82004949D01*
X200511697Y-82089990D01*
X200118371Y-82482630D01*
X199905243Y-82995900D01*
X199904758Y-83551661D01*
X200116990Y-84065303D01*
X200509630Y-84458629D01*
X200717512Y-84544949D01*
X200511697Y-84629990D01*
X200118371Y-85022630D01*
X199905243Y-85535900D01*
X199904758Y-86091661D01*
X200116990Y-86605303D01*
X200509630Y-86998629D01*
X200717512Y-87084949D01*
X200511697Y-87169990D01*
X200118371Y-87562630D01*
X199905243Y-88075900D01*
X199904758Y-88631661D01*
X200116990Y-89145303D01*
X200509630Y-89538629D01*
X200717512Y-89624949D01*
X200511697Y-89709990D01*
X200118371Y-90102630D01*
X199905243Y-90615900D01*
X199904758Y-91171661D01*
X200116990Y-91685303D01*
X200509630Y-92078629D01*
X200717512Y-92164949D01*
X200511697Y-92249990D01*
X200118371Y-92642630D01*
X199905243Y-93155900D01*
X199904758Y-93711661D01*
X200116990Y-94225303D01*
X200509630Y-94618629D01*
X200717512Y-94704949D01*
X200511697Y-94789990D01*
X200118371Y-95182630D01*
X199905243Y-95695900D01*
X199904758Y-96251661D01*
X200116990Y-96765303D01*
X200509630Y-97158629D01*
X200717512Y-97244949D01*
X200511697Y-97329990D01*
X200118371Y-97722630D01*
X199905243Y-98235900D01*
X199904758Y-98791661D01*
X200116990Y-99305303D01*
X200509630Y-99698629D01*
X200717512Y-99784949D01*
X200511697Y-99869990D01*
X200118371Y-100262630D01*
X199905243Y-100775900D01*
X199904758Y-101331661D01*
X200116990Y-101845303D01*
X200509630Y-102238629D01*
X201022900Y-102451757D01*
X201578661Y-102452242D01*
X202092303Y-102240010D01*
X202485629Y-101847370D01*
X202698757Y-101334100D01*
X202699242Y-100778339D01*
X202487010Y-100264697D01*
X202094370Y-99871371D01*
X201886488Y-99785051D01*
X202092303Y-99700010D01*
X202485629Y-99307370D01*
X202698757Y-98794100D01*
X202699242Y-98238339D01*
X202487010Y-97724697D01*
X202094370Y-97331371D01*
X201886488Y-97245051D01*
X202092303Y-97160010D01*
X202485629Y-96767370D01*
X202698757Y-96254100D01*
X202699242Y-95698339D01*
X202487010Y-95184697D01*
X202094370Y-94791371D01*
X201886488Y-94705051D01*
X202092303Y-94620010D01*
X202485629Y-94227370D01*
X202698757Y-93714100D01*
X202699242Y-93158339D01*
X202487010Y-92644697D01*
X202094370Y-92251371D01*
X201886488Y-92165051D01*
X202092303Y-92080010D01*
X202485629Y-91687370D01*
X202698757Y-91174100D01*
X202699242Y-90618339D01*
X202487010Y-90104697D01*
X202094370Y-89711371D01*
X201886488Y-89625051D01*
X202092303Y-89540010D01*
X202485629Y-89147370D01*
X202698757Y-88634100D01*
X202699242Y-88078339D01*
X202487010Y-87564697D01*
X202094370Y-87171371D01*
X201886488Y-87085051D01*
X202092303Y-87000010D01*
X202485629Y-86607370D01*
X202698757Y-86094100D01*
X202699242Y-85538339D01*
X202487010Y-85024697D01*
X202094370Y-84631371D01*
X201886488Y-84545051D01*
X202092303Y-84460010D01*
X202485629Y-84067370D01*
X202698757Y-83554100D01*
X202699242Y-82998339D01*
X202487010Y-82484697D01*
X202094370Y-82091371D01*
X201886488Y-82005051D01*
X202092303Y-81920010D01*
X202485629Y-81527370D01*
X202698757Y-81014100D01*
X202699242Y-80458339D01*
X202487010Y-79944697D01*
X202094370Y-79551371D01*
X201886488Y-79465051D01*
X202092303Y-79380010D01*
X202485629Y-78987370D01*
X202698757Y-78474100D01*
X202699242Y-77918339D01*
X202487010Y-77404697D01*
X202094370Y-77011371D01*
X201850241Y-76910000D01*
X211790000Y-76910000D01*
X211790000Y-132640000D01*
X141680000Y-132640000D01*
X141680000Y-128923021D01*
X142599560Y-128923021D01*
X142985437Y-129856915D01*
X143699327Y-130572052D01*
X144632546Y-130959559D01*
X145643021Y-130960440D01*
X146576915Y-130574563D01*
X147036013Y-130116265D01*
X152094758Y-130116265D01*
X152306687Y-130629172D01*
X152698764Y-131021934D01*
X153211300Y-131234758D01*
X153766265Y-131235242D01*
X154279172Y-131023313D01*
X154671934Y-130631236D01*
X154875238Y-130141628D01*
X155076687Y-130629172D01*
X155468764Y-131021934D01*
X155981300Y-131234758D01*
X156536265Y-131235242D01*
X157049172Y-131023313D01*
X157441934Y-130631236D01*
X157645238Y-130141628D01*
X157846687Y-130629172D01*
X158238764Y-131021934D01*
X158751300Y-131234758D01*
X159306265Y-131235242D01*
X159819172Y-131023313D01*
X160211934Y-130631236D01*
X160415238Y-130141628D01*
X160616687Y-130629172D01*
X161008764Y-131021934D01*
X161521300Y-131234758D01*
X162076265Y-131235242D01*
X162589172Y-131023313D01*
X162981934Y-130631236D01*
X163185238Y-130141628D01*
X163386687Y-130629172D01*
X163778764Y-131021934D01*
X164291300Y-131234758D01*
X164846265Y-131235242D01*
X165359172Y-131023313D01*
X165751934Y-130631236D01*
X165955238Y-130141628D01*
X166156687Y-130629172D01*
X166548764Y-131021934D01*
X167061300Y-131234758D01*
X167616265Y-131235242D01*
X168129172Y-131023313D01*
X168521934Y-130631236D01*
X168720225Y-130153699D01*
X168916687Y-130629172D01*
X169308764Y-131021934D01*
X169821300Y-131234758D01*
X170376265Y-131235242D01*
X170889172Y-131023313D01*
X171281934Y-130631236D01*
X171485238Y-130141628D01*
X171686687Y-130629172D01*
X172078764Y-131021934D01*
X172591300Y-131234758D01*
X173146265Y-131235242D01*
X173659172Y-131023313D01*
X174051934Y-130631236D01*
X174255238Y-130141628D01*
X174456687Y-130629172D01*
X174848764Y-131021934D01*
X175361300Y-131234758D01*
X175916265Y-131235242D01*
X176429172Y-131023313D01*
X176821934Y-130631236D01*
X177025238Y-130141628D01*
X177226687Y-130629172D01*
X177618764Y-131021934D01*
X178131300Y-131234758D01*
X178686265Y-131235242D01*
X179199172Y-131023313D01*
X179591934Y-130631236D01*
X179795238Y-130141628D01*
X179996687Y-130629172D01*
X180388764Y-131021934D01*
X180901300Y-131234758D01*
X181456265Y-131235242D01*
X181969172Y-131023313D01*
X182361934Y-130631236D01*
X182565238Y-130141628D01*
X182766687Y-130629172D01*
X183158764Y-131021934D01*
X183671300Y-131234758D01*
X184226265Y-131235242D01*
X184739172Y-131023313D01*
X185131934Y-130631236D01*
X185335238Y-130141628D01*
X185536687Y-130629172D01*
X185928764Y-131021934D01*
X186441300Y-131234758D01*
X186996265Y-131235242D01*
X187509172Y-131023313D01*
X187901934Y-130631236D01*
X188100225Y-130153699D01*
X188296687Y-130629172D01*
X188688764Y-131021934D01*
X189201300Y-131234758D01*
X189756265Y-131235242D01*
X190269172Y-131023313D01*
X190661934Y-130631236D01*
X190865238Y-130141628D01*
X191066687Y-130629172D01*
X191458764Y-131021934D01*
X191971300Y-131234758D01*
X192526265Y-131235242D01*
X193039172Y-131023313D01*
X193431934Y-130631236D01*
X193635238Y-130141628D01*
X193836687Y-130629172D01*
X194228764Y-131021934D01*
X194741300Y-131234758D01*
X195296265Y-131235242D01*
X195809172Y-131023313D01*
X196201934Y-130631236D01*
X196405238Y-130141628D01*
X196606687Y-130629172D01*
X196998764Y-131021934D01*
X197511300Y-131234758D01*
X198066265Y-131235242D01*
X198579172Y-131023313D01*
X198971934Y-130631236D01*
X199175238Y-130141628D01*
X199376687Y-130629172D01*
X199768764Y-131021934D01*
X200281300Y-131234758D01*
X200836265Y-131235242D01*
X201349172Y-131023313D01*
X201741934Y-130631236D01*
X201954758Y-130118700D01*
X201955242Y-129563735D01*
X201743313Y-129050828D01*
X201615729Y-128923021D01*
X206099560Y-128923021D01*
X206485437Y-129856915D01*
X207199327Y-130572052D01*
X208132546Y-130959559D01*
X209143021Y-130960440D01*
X210076915Y-130574563D01*
X210792052Y-129860673D01*
X211179559Y-128927454D01*
X211180440Y-127916979D01*
X210794563Y-126983085D01*
X210080673Y-126267948D01*
X209147454Y-125880441D01*
X208136979Y-125879560D01*
X207203085Y-126265437D01*
X206487948Y-126979327D01*
X206100441Y-127912546D01*
X206099560Y-128923021D01*
X201615729Y-128923021D01*
X201351236Y-128658066D01*
X200838700Y-128445242D01*
X200283735Y-128444758D01*
X199770828Y-128656687D01*
X199378066Y-129048764D01*
X199174762Y-129538372D01*
X198973313Y-129050828D01*
X198581236Y-128658066D01*
X198068700Y-128445242D01*
X197513735Y-128444758D01*
X197000828Y-128656687D01*
X196608066Y-129048764D01*
X196404762Y-129538372D01*
X196203313Y-129050828D01*
X195811236Y-128658066D01*
X195298700Y-128445242D01*
X194743735Y-128444758D01*
X194230828Y-128656687D01*
X193838066Y-129048764D01*
X193634762Y-129538372D01*
X193433313Y-129050828D01*
X193041236Y-128658066D01*
X192528700Y-128445242D01*
X191973735Y-128444758D01*
X191460828Y-128656687D01*
X191068066Y-129048764D01*
X190864762Y-129538372D01*
X190663313Y-129050828D01*
X190271236Y-128658066D01*
X189758700Y-128445242D01*
X189203735Y-128444758D01*
X188690828Y-128656687D01*
X188298066Y-129048764D01*
X188099775Y-129526301D01*
X187903313Y-129050828D01*
X187511236Y-128658066D01*
X186998700Y-128445242D01*
X186443735Y-128444758D01*
X185930828Y-128656687D01*
X185538066Y-129048764D01*
X185334762Y-129538372D01*
X185133313Y-129050828D01*
X184741236Y-128658066D01*
X184228700Y-128445242D01*
X183673735Y-128444758D01*
X183160828Y-128656687D01*
X182768066Y-129048764D01*
X182564762Y-129538372D01*
X182363313Y-129050828D01*
X181971236Y-128658066D01*
X181458700Y-128445242D01*
X180903735Y-128444758D01*
X180390828Y-128656687D01*
X179998066Y-129048764D01*
X179794762Y-129538372D01*
X179593313Y-129050828D01*
X179201236Y-128658066D01*
X178688700Y-128445242D01*
X178133735Y-128444758D01*
X177620828Y-128656687D01*
X177228066Y-129048764D01*
X177024762Y-129538372D01*
X176823313Y-129050828D01*
X176431236Y-128658066D01*
X175918700Y-128445242D01*
X175363735Y-128444758D01*
X174850828Y-128656687D01*
X174458066Y-129048764D01*
X174254762Y-129538372D01*
X174053313Y-129050828D01*
X173661236Y-128658066D01*
X173148700Y-128445242D01*
X172593735Y-128444758D01*
X172080828Y-128656687D01*
X171688066Y-129048764D01*
X171484762Y-129538372D01*
X171283313Y-129050828D01*
X170891236Y-128658066D01*
X170378700Y-128445242D01*
X169823735Y-128444758D01*
X169310828Y-128656687D01*
X168918066Y-129048764D01*
X168719775Y-129526301D01*
X168523313Y-129050828D01*
X168131236Y-128658066D01*
X167618700Y-128445242D01*
X167063735Y-128444758D01*
X166550828Y-128656687D01*
X166158066Y-129048764D01*
X165954762Y-129538372D01*
X165753313Y-129050828D01*
X165361236Y-128658066D01*
X164848700Y-128445242D01*
X164293735Y-128444758D01*
X163780828Y-128656687D01*
X163388066Y-129048764D01*
X163184762Y-129538372D01*
X162983313Y-129050828D01*
X162591236Y-128658066D01*
X162078700Y-128445242D01*
X161523735Y-128444758D01*
X161010828Y-128656687D01*
X160618066Y-129048764D01*
X160414762Y-129538372D01*
X160213313Y-129050828D01*
X159821236Y-128658066D01*
X159308700Y-128445242D01*
X158753735Y-128444758D01*
X158240828Y-128656687D01*
X157848066Y-129048764D01*
X157644762Y-129538372D01*
X157443313Y-129050828D01*
X157051236Y-128658066D01*
X156538700Y-128445242D01*
X155983735Y-128444758D01*
X155470828Y-128656687D01*
X155078066Y-129048764D01*
X154874762Y-129538372D01*
X154673313Y-129050828D01*
X154281236Y-128658066D01*
X153768700Y-128445242D01*
X153213735Y-128444758D01*
X152700828Y-128656687D01*
X152308066Y-129048764D01*
X152095242Y-129561300D01*
X152094758Y-130116265D01*
X147036013Y-130116265D01*
X147292052Y-129860673D01*
X147679559Y-128927454D01*
X147680440Y-127916979D01*
X147294563Y-126983085D01*
X146580673Y-126267948D01*
X145647454Y-125880441D01*
X144636979Y-125879560D01*
X143703085Y-126265437D01*
X142987948Y-126979327D01*
X142600441Y-127912546D01*
X142599560Y-128923021D01*
X141680000Y-128923021D01*
X141680000Y-110471661D01*
X151644758Y-110471661D01*
X151856990Y-110985303D01*
X152249630Y-111378629D01*
X152457512Y-111464949D01*
X152251697Y-111549990D01*
X151858371Y-111942630D01*
X151645243Y-112455900D01*
X151644758Y-113011661D01*
X151856990Y-113525303D01*
X152249630Y-113918629D01*
X152457512Y-114004949D01*
X152251697Y-114089990D01*
X151858371Y-114482630D01*
X151645243Y-114995900D01*
X151644758Y-115551661D01*
X151856990Y-116065303D01*
X152249630Y-116458629D01*
X152457512Y-116544949D01*
X152251697Y-116629990D01*
X151858371Y-117022630D01*
X151645243Y-117535900D01*
X151644758Y-118091661D01*
X151856990Y-118605303D01*
X152249630Y-118998629D01*
X152457512Y-119084949D01*
X152251697Y-119169990D01*
X151858371Y-119562630D01*
X151645243Y-120075900D01*
X151644758Y-120631661D01*
X151856990Y-121145303D01*
X152249630Y-121538629D01*
X152457512Y-121624949D01*
X152251697Y-121709990D01*
X151858371Y-122102630D01*
X151645243Y-122615900D01*
X151644758Y-123171661D01*
X151856990Y-123685303D01*
X152249630Y-124078629D01*
X152762900Y-124291757D01*
X153318661Y-124292242D01*
X153832303Y-124080010D01*
X154225629Y-123687370D01*
X154438757Y-123174100D01*
X154439242Y-122618339D01*
X154227010Y-122104697D01*
X153834370Y-121711371D01*
X153626488Y-121625051D01*
X153832303Y-121540010D01*
X154225629Y-121147370D01*
X154438757Y-120634100D01*
X154439242Y-120078339D01*
X154227010Y-119564697D01*
X153834370Y-119171371D01*
X153626488Y-119085051D01*
X153832303Y-119000010D01*
X154225629Y-118607370D01*
X154438757Y-118094100D01*
X154439242Y-117538339D01*
X154227010Y-117024697D01*
X153834370Y-116631371D01*
X153626488Y-116545051D01*
X153832303Y-116460010D01*
X154225629Y-116067370D01*
X154438757Y-115554100D01*
X154439242Y-114998339D01*
X154227010Y-114484697D01*
X153834370Y-114091371D01*
X153626488Y-114005051D01*
X153832303Y-113920010D01*
X154225629Y-113527370D01*
X154438757Y-113014100D01*
X154439242Y-112458339D01*
X154227010Y-111944697D01*
X153834370Y-111551371D01*
X153626488Y-111465051D01*
X153832303Y-111380010D01*
X154225629Y-110987370D01*
X154438757Y-110474100D01*
X154439242Y-109918339D01*
X154227010Y-109404697D01*
X153834370Y-109011371D01*
X153321100Y-108798243D01*
X152765339Y-108797758D01*
X152251697Y-109009990D01*
X151858371Y-109402630D01*
X151645243Y-109915900D01*
X151644758Y-110471661D01*
X141680000Y-110471661D01*
X141680000Y-107591661D01*
X143382758Y-107591661D01*
X143594990Y-108105303D01*
X143987630Y-108498629D01*
X144500900Y-108711757D01*
X145056661Y-108712242D01*
X145570303Y-108500010D01*
X145945968Y-108125000D01*
X153102998Y-108125000D01*
X159669378Y-114691380D01*
X159669338Y-114736867D01*
X159811383Y-115080643D01*
X159868900Y-115138260D01*
X159868900Y-118156298D01*
X155953041Y-122072157D01*
X155739943Y-122214544D01*
X152349271Y-125605216D01*
X151823735Y-125604758D01*
X151310828Y-125816687D01*
X150918066Y-126208764D01*
X150705242Y-126721300D01*
X150704758Y-127276265D01*
X150916687Y-127789172D01*
X151308764Y-128181934D01*
X151821300Y-128394758D01*
X152376265Y-128395242D01*
X152889172Y-128183313D01*
X153281934Y-127791236D01*
X153480225Y-127313699D01*
X153676687Y-127789172D01*
X154068764Y-128181934D01*
X154581300Y-128394758D01*
X155136265Y-128395242D01*
X155649172Y-128183313D01*
X156041934Y-127791236D01*
X156245238Y-127301628D01*
X156446687Y-127789172D01*
X156838764Y-128181934D01*
X157351300Y-128394758D01*
X157906265Y-128395242D01*
X158419172Y-128183313D01*
X158811934Y-127791236D01*
X159015238Y-127301628D01*
X159216687Y-127789172D01*
X159608764Y-128181934D01*
X160121300Y-128394758D01*
X160676265Y-128395242D01*
X161189172Y-128183313D01*
X161581934Y-127791236D01*
X161785238Y-127301628D01*
X161986687Y-127789172D01*
X162378764Y-128181934D01*
X162891300Y-128394758D01*
X163446265Y-128395242D01*
X163959172Y-128183313D01*
X164351934Y-127791236D01*
X164555238Y-127301628D01*
X164756687Y-127789172D01*
X165148764Y-128181934D01*
X165661300Y-128394758D01*
X166216265Y-128395242D01*
X166729172Y-128183313D01*
X167121934Y-127791236D01*
X167325238Y-127301628D01*
X167526687Y-127789172D01*
X167918764Y-128181934D01*
X168431300Y-128394758D01*
X168986265Y-128395242D01*
X169499172Y-128183313D01*
X169891934Y-127791236D01*
X170095238Y-127301628D01*
X170296687Y-127789172D01*
X170688764Y-128181934D01*
X171201300Y-128394758D01*
X171756265Y-128395242D01*
X172269172Y-128183313D01*
X172661934Y-127791236D01*
X172860225Y-127313699D01*
X173056687Y-127789172D01*
X173448764Y-128181934D01*
X173961300Y-128394758D01*
X174516265Y-128395242D01*
X175029172Y-128183313D01*
X175421934Y-127791236D01*
X175625238Y-127301628D01*
X175826687Y-127789172D01*
X176218764Y-128181934D01*
X176731300Y-128394758D01*
X177286265Y-128395242D01*
X177799172Y-128183313D01*
X178191934Y-127791236D01*
X178231303Y-127696426D01*
X178469301Y-127537401D01*
X178485828Y-127520874D01*
X178596687Y-127789172D01*
X178988764Y-128181934D01*
X179501300Y-128394758D01*
X180056265Y-128395242D01*
X180569172Y-128183313D01*
X180961934Y-127791236D01*
X181165238Y-127301628D01*
X181366687Y-127789172D01*
X181758764Y-128181934D01*
X182271300Y-128394758D01*
X182826265Y-128395242D01*
X183339172Y-128183313D01*
X183731934Y-127791236D01*
X183935238Y-127301628D01*
X184136687Y-127789172D01*
X184528764Y-128181934D01*
X185041300Y-128394758D01*
X185596265Y-128395242D01*
X186109172Y-128183313D01*
X186501934Y-127791236D01*
X186705238Y-127301628D01*
X186906687Y-127789172D01*
X187298764Y-128181934D01*
X187811300Y-128394758D01*
X188366265Y-128395242D01*
X188879172Y-128183313D01*
X189271934Y-127791236D01*
X189475238Y-127301628D01*
X189676687Y-127789172D01*
X190068764Y-128181934D01*
X190581300Y-128394758D01*
X191136265Y-128395242D01*
X191649172Y-128183313D01*
X192041934Y-127791236D01*
X192240225Y-127313699D01*
X192436687Y-127789172D01*
X192828764Y-128181934D01*
X193341300Y-128394758D01*
X193896265Y-128395242D01*
X194409172Y-128183313D01*
X194801934Y-127791236D01*
X195005238Y-127301628D01*
X195206687Y-127789172D01*
X195598764Y-128181934D01*
X196111300Y-128394758D01*
X196666265Y-128395242D01*
X197179172Y-128183313D01*
X197571934Y-127791236D01*
X197775238Y-127301628D01*
X197976687Y-127789172D01*
X198368764Y-128181934D01*
X198881300Y-128394758D01*
X199436265Y-128395242D01*
X199949172Y-128183313D01*
X200341934Y-127791236D01*
X200522560Y-127356241D01*
X200522560Y-127760000D01*
X200566838Y-127995317D01*
X200705910Y-128211441D01*
X200918110Y-128356431D01*
X201170000Y-128407440D01*
X202690000Y-128407440D01*
X202925317Y-128363162D01*
X203141441Y-128224090D01*
X203286431Y-128011890D01*
X203337440Y-127760000D01*
X203337440Y-126240000D01*
X203293162Y-126004683D01*
X203154090Y-125788559D01*
X202941890Y-125643569D01*
X202690000Y-125592560D01*
X201170000Y-125592560D01*
X200934683Y-125636838D01*
X200718559Y-125775910D01*
X200573569Y-125988110D01*
X200522560Y-126240000D01*
X200522560Y-126644639D01*
X200343313Y-126210828D01*
X199951236Y-125818066D01*
X199438700Y-125605242D01*
X198883735Y-125604758D01*
X198370828Y-125816687D01*
X197978066Y-126208764D01*
X197774762Y-126698372D01*
X197573313Y-126210828D01*
X197181236Y-125818066D01*
X196668700Y-125605242D01*
X196113735Y-125604758D01*
X195600828Y-125816687D01*
X195208066Y-126208764D01*
X195004762Y-126698372D01*
X194803313Y-126210828D01*
X194411236Y-125818066D01*
X193898700Y-125605242D01*
X193343735Y-125604758D01*
X192830828Y-125816687D01*
X192438066Y-126208764D01*
X192239775Y-126686301D01*
X192043313Y-126210828D01*
X191651236Y-125818066D01*
X191138700Y-125605242D01*
X190583735Y-125604758D01*
X190070828Y-125816687D01*
X189678066Y-126208764D01*
X189474762Y-126698372D01*
X189273313Y-126210828D01*
X188881236Y-125818066D01*
X188368700Y-125605242D01*
X187813735Y-125604758D01*
X187300828Y-125816687D01*
X186908066Y-126208764D01*
X186704762Y-126698372D01*
X186503313Y-126210828D01*
X186111236Y-125818066D01*
X185598700Y-125605242D01*
X185043735Y-125604758D01*
X184530828Y-125816687D01*
X184138066Y-126208764D01*
X183934762Y-126698372D01*
X183733313Y-126210828D01*
X183341236Y-125818066D01*
X182828700Y-125605242D01*
X182273735Y-125604758D01*
X181760828Y-125816687D01*
X181368066Y-126208764D01*
X181164762Y-126698372D01*
X180963313Y-126210828D01*
X180571236Y-125818066D01*
X180300893Y-125705809D01*
X184315180Y-121691522D01*
X184360667Y-121691562D01*
X184704443Y-121549517D01*
X184967692Y-121286727D01*
X185110338Y-120943199D01*
X185110662Y-120571233D01*
X184968617Y-120227457D01*
X184705827Y-119964208D01*
X184362299Y-119821562D01*
X183990333Y-119821238D01*
X183646557Y-119963283D01*
X183383308Y-120226073D01*
X183240662Y-120569601D01*
X183240621Y-120616477D01*
X177920030Y-125937068D01*
X177801236Y-125818066D01*
X177288700Y-125605242D01*
X176733735Y-125604758D01*
X176220828Y-125816687D01*
X175828066Y-126208764D01*
X175624762Y-126698372D01*
X175423313Y-126210828D01*
X175031236Y-125818066D01*
X174518700Y-125605242D01*
X173963735Y-125604758D01*
X173940404Y-125614398D01*
X178840201Y-120714601D01*
X179004948Y-120468040D01*
X179062800Y-120177200D01*
X179062800Y-110044663D01*
X179094992Y-110012527D01*
X179237638Y-109668999D01*
X179237962Y-109297033D01*
X179095917Y-108953257D01*
X178833127Y-108690008D01*
X178489599Y-108547362D01*
X178117633Y-108547038D01*
X177773857Y-108689083D01*
X177510608Y-108951873D01*
X177367962Y-109295401D01*
X177367638Y-109667367D01*
X177509683Y-110011143D01*
X177542800Y-110044318D01*
X177542800Y-119862398D01*
X171787851Y-125617347D01*
X171758700Y-125605242D01*
X171203735Y-125604758D01*
X170690828Y-125816687D01*
X170298066Y-126208764D01*
X170094762Y-126698372D01*
X169893313Y-126210828D01*
X169501236Y-125818066D01*
X168988700Y-125605242D01*
X168433735Y-125604758D01*
X167920828Y-125816687D01*
X167528066Y-126208764D01*
X167324762Y-126698372D01*
X167123313Y-126210828D01*
X166731236Y-125818066D01*
X166700000Y-125805096D01*
X166700000Y-122690302D01*
X169171180Y-120219122D01*
X169216667Y-120219162D01*
X169560443Y-120077117D01*
X169823692Y-119814327D01*
X169966338Y-119470799D01*
X169966662Y-119098833D01*
X169824617Y-118755057D01*
X169561827Y-118491808D01*
X169218299Y-118349162D01*
X168846333Y-118348838D01*
X168502557Y-118490883D01*
X168239308Y-118753673D01*
X168096662Y-119097201D01*
X168096621Y-119144077D01*
X165402599Y-121838099D01*
X165237852Y-122084661D01*
X165180000Y-122375500D01*
X165180000Y-125804633D01*
X165150828Y-125816687D01*
X164758066Y-126208764D01*
X164554762Y-126698372D01*
X164353313Y-126210828D01*
X163961236Y-125818066D01*
X163448700Y-125605242D01*
X162893735Y-125604758D01*
X162380828Y-125816687D01*
X161988066Y-126208764D01*
X161784762Y-126698372D01*
X161583313Y-126210828D01*
X161191236Y-125818066D01*
X160678700Y-125605242D01*
X160123735Y-125604758D01*
X159610828Y-125816687D01*
X159218066Y-126208764D01*
X159014762Y-126698372D01*
X158813313Y-126210828D01*
X158421236Y-125818066D01*
X157908700Y-125605242D01*
X157353735Y-125604758D01*
X156840828Y-125816687D01*
X156448066Y-126208764D01*
X156244762Y-126698372D01*
X156043313Y-126210828D01*
X155651236Y-125818066D01*
X155138700Y-125605242D01*
X154640705Y-125604808D01*
X156885456Y-123360057D01*
X157027843Y-123146959D01*
X160943702Y-119231100D01*
X164334658Y-119231100D01*
X164493073Y-119389792D01*
X164836601Y-119532438D01*
X165208567Y-119532762D01*
X165552343Y-119390717D01*
X165815592Y-119127927D01*
X165958238Y-118784399D01*
X165958562Y-118412433D01*
X165816517Y-118068657D01*
X165553727Y-117805408D01*
X165210199Y-117662762D01*
X164838233Y-117662438D01*
X164720462Y-117711100D01*
X161388900Y-117711100D01*
X161388900Y-115089805D01*
X161396692Y-115082027D01*
X161539338Y-114738499D01*
X161539662Y-114366533D01*
X161397617Y-114022757D01*
X161134827Y-113759508D01*
X160791299Y-113616862D01*
X160744423Y-113616821D01*
X154362907Y-107235305D01*
X156206551Y-105391661D01*
X199904758Y-105391661D01*
X200116990Y-105905303D01*
X200509630Y-106298629D01*
X200717512Y-106384949D01*
X200511697Y-106469990D01*
X200118371Y-106862630D01*
X199905243Y-107375900D01*
X199904758Y-107931661D01*
X200116990Y-108445303D01*
X200509630Y-108838629D01*
X200717512Y-108924949D01*
X200511697Y-109009990D01*
X200118371Y-109402630D01*
X199905243Y-109915900D01*
X199904758Y-110471661D01*
X200116990Y-110985303D01*
X200509630Y-111378629D01*
X200717512Y-111464949D01*
X200511697Y-111549990D01*
X200118371Y-111942630D01*
X199905243Y-112455900D01*
X199904758Y-113011661D01*
X200116990Y-113525303D01*
X200509630Y-113918629D01*
X200717512Y-114004949D01*
X200511697Y-114089990D01*
X200118371Y-114482630D01*
X199905243Y-114995900D01*
X199904758Y-115551661D01*
X200116990Y-116065303D01*
X200509630Y-116458629D01*
X200717512Y-116544949D01*
X200511697Y-116629990D01*
X200118371Y-117022630D01*
X199905243Y-117535900D01*
X199904758Y-118091661D01*
X200116990Y-118605303D01*
X200509630Y-118998629D01*
X200717512Y-119084949D01*
X200511697Y-119169990D01*
X200118371Y-119562630D01*
X199905243Y-120075900D01*
X199904758Y-120631661D01*
X200116990Y-121145303D01*
X200509630Y-121538629D01*
X200717512Y-121624949D01*
X200511697Y-121709990D01*
X200118371Y-122102630D01*
X199905243Y-122615900D01*
X199904758Y-123171661D01*
X200116990Y-123685303D01*
X200509630Y-124078629D01*
X201022900Y-124291757D01*
X201578661Y-124292242D01*
X202092303Y-124080010D01*
X202485629Y-123687370D01*
X202698757Y-123174100D01*
X202699242Y-122618339D01*
X202487010Y-122104697D01*
X202094370Y-121711371D01*
X201886488Y-121625051D01*
X202092303Y-121540010D01*
X202485629Y-121147370D01*
X202698757Y-120634100D01*
X202699242Y-120078339D01*
X202487010Y-119564697D01*
X202094370Y-119171371D01*
X201886488Y-119085051D01*
X202092303Y-119000010D01*
X202485629Y-118607370D01*
X202698757Y-118094100D01*
X202699242Y-117538339D01*
X202487010Y-117024697D01*
X202094370Y-116631371D01*
X201886488Y-116545051D01*
X202092303Y-116460010D01*
X202485629Y-116067370D01*
X202698757Y-115554100D01*
X202699242Y-114998339D01*
X202487010Y-114484697D01*
X202094370Y-114091371D01*
X201886488Y-114005051D01*
X202092303Y-113920010D01*
X202485629Y-113527370D01*
X202698757Y-113014100D01*
X202699242Y-112458339D01*
X202487010Y-111944697D01*
X202094370Y-111551371D01*
X201886488Y-111465051D01*
X202092303Y-111380010D01*
X202485629Y-110987370D01*
X202698757Y-110474100D01*
X202699242Y-109918339D01*
X202487010Y-109404697D01*
X202094370Y-109011371D01*
X201886488Y-108925051D01*
X202092303Y-108840010D01*
X202485629Y-108447370D01*
X202698757Y-107934100D01*
X202699242Y-107378339D01*
X202487010Y-106864697D01*
X202094370Y-106471371D01*
X201886488Y-106385051D01*
X202092303Y-106300010D01*
X202485629Y-105907370D01*
X202698757Y-105394100D01*
X202699242Y-104838339D01*
X202487010Y-104324697D01*
X202094370Y-103931371D01*
X201581100Y-103718243D01*
X201025339Y-103717758D01*
X200511697Y-103929990D01*
X200118371Y-104322630D01*
X199905243Y-104835900D01*
X199904758Y-105391661D01*
X156206551Y-105391661D01*
X156885457Y-104712756D01*
X156885459Y-104712753D01*
X166942756Y-94655457D01*
X166942758Y-94655454D01*
X167045457Y-94552756D01*
X167045459Y-94552753D01*
X167680457Y-93917756D01*
X167680459Y-93917753D01*
X175351550Y-86246663D01*
X175521235Y-86416645D01*
X175938244Y-86589803D01*
X176389775Y-86590197D01*
X176807086Y-86417767D01*
X176980050Y-86245104D01*
X179094501Y-86245104D01*
X179131648Y-86460217D01*
X179559972Y-86603112D01*
X180010375Y-86571217D01*
X180278352Y-86460217D01*
X180315499Y-86245104D01*
X179705000Y-85634605D01*
X179094501Y-86245104D01*
X176980050Y-86245104D01*
X177126645Y-86098765D01*
X177299803Y-85681756D01*
X177300127Y-85309972D01*
X178556888Y-85309972D01*
X178588783Y-85760375D01*
X178699783Y-86028352D01*
X178914896Y-86065499D01*
X179525395Y-85455000D01*
X179884605Y-85455000D01*
X180495104Y-86065499D01*
X180710217Y-86028352D01*
X180853112Y-85600028D01*
X180821217Y-85149625D01*
X180710217Y-84881648D01*
X180495104Y-84844501D01*
X179884605Y-85455000D01*
X179525395Y-85455000D01*
X178914896Y-84844501D01*
X178699783Y-84881648D01*
X178556888Y-85309972D01*
X177300127Y-85309972D01*
X177300197Y-85230225D01*
X177127767Y-84812914D01*
X176913166Y-84597938D01*
X176913342Y-84597674D01*
X176968812Y-84318807D01*
X176972233Y-84327086D01*
X177291235Y-84646645D01*
X177708244Y-84819803D01*
X178159775Y-84820197D01*
X178535630Y-84664896D01*
X179094501Y-84664896D01*
X179705000Y-85275395D01*
X180315499Y-84664896D01*
X180278352Y-84449783D01*
X179850028Y-84306888D01*
X179399625Y-84338783D01*
X179131648Y-84449783D01*
X179094501Y-84664896D01*
X178535630Y-84664896D01*
X178577086Y-84647767D01*
X178896645Y-84328765D01*
X179069803Y-83911756D01*
X179070197Y-83460225D01*
X178897767Y-83042914D01*
X178578765Y-82723355D01*
X178534812Y-82705104D01*
X179094501Y-82705104D01*
X179131648Y-82920217D01*
X179559972Y-83063112D01*
X180010375Y-83031217D01*
X180278352Y-82920217D01*
X180315499Y-82705104D01*
X179705000Y-82094605D01*
X179094501Y-82705104D01*
X178534812Y-82705104D01*
X178161756Y-82550197D01*
X177710225Y-82549803D01*
X177292914Y-82722233D01*
X176975000Y-83039593D01*
X176975000Y-82710146D01*
X177126645Y-82558765D01*
X177299803Y-82141756D01*
X177300127Y-81769972D01*
X178556888Y-81769972D01*
X178588783Y-82220375D01*
X178699783Y-82488352D01*
X178914896Y-82525499D01*
X179525395Y-81915000D01*
X179884605Y-81915000D01*
X180495104Y-82525499D01*
X180710217Y-82488352D01*
X180853112Y-82060028D01*
X180821217Y-81609625D01*
X180710217Y-81341648D01*
X180495104Y-81304501D01*
X179884605Y-81915000D01*
X179525395Y-81915000D01*
X178914896Y-81304501D01*
X178699783Y-81341648D01*
X178556888Y-81769972D01*
X177300127Y-81769972D01*
X177300197Y-81690225D01*
X177127767Y-81272914D01*
X176980007Y-81124896D01*
X179094501Y-81124896D01*
X179705000Y-81735395D01*
X180315499Y-81124896D01*
X180278352Y-80909783D01*
X179850028Y-80766888D01*
X179399625Y-80798783D01*
X179131648Y-80909783D01*
X179094501Y-81124896D01*
X176980007Y-81124896D01*
X176808765Y-80953355D01*
X176391756Y-80780197D01*
X175940225Y-80779803D01*
X175522914Y-80952233D01*
X175203355Y-81271235D01*
X175030197Y-81688244D01*
X175029803Y-82139775D01*
X175202233Y-82557086D01*
X175355000Y-82710120D01*
X175355000Y-83952187D01*
X166534947Y-92772241D01*
X166534944Y-92772243D01*
X165899947Y-93407241D01*
X165899944Y-93407243D01*
X165797246Y-93509942D01*
X165797243Y-93509944D01*
X155739947Y-103567241D01*
X155739944Y-103567243D01*
X154439216Y-104867971D01*
X154439242Y-104838339D01*
X154227010Y-104324697D01*
X153834370Y-103931371D01*
X153642273Y-103851605D01*
X153773143Y-103797397D01*
X153842608Y-103555213D01*
X153042000Y-102754605D01*
X152241392Y-103555213D01*
X152310857Y-103797397D01*
X152451318Y-103847509D01*
X152251697Y-103929990D01*
X151858371Y-104322630D01*
X151645243Y-104835900D01*
X151644758Y-105391661D01*
X151856990Y-105905303D01*
X152249630Y-106298629D01*
X152746627Y-106505000D01*
X145945347Y-106505000D01*
X145572370Y-106131371D01*
X145380273Y-106051605D01*
X145511143Y-105997397D01*
X145580608Y-105755213D01*
X144780000Y-104954605D01*
X143979392Y-105755213D01*
X144048857Y-105997397D01*
X144189318Y-106047509D01*
X143989697Y-106129990D01*
X143596371Y-106522630D01*
X143383243Y-107035900D01*
X143382758Y-107591661D01*
X141680000Y-107591661D01*
X141680000Y-104567302D01*
X143370856Y-104567302D01*
X143398638Y-105122368D01*
X143557603Y-105506143D01*
X143799787Y-105575608D01*
X144600395Y-104775000D01*
X144959605Y-104775000D01*
X145760213Y-105575608D01*
X146002397Y-105506143D01*
X146189144Y-104982698D01*
X146161362Y-104427632D01*
X146002397Y-104043857D01*
X145760213Y-103974392D01*
X144959605Y-104775000D01*
X144600395Y-104775000D01*
X143799787Y-103974392D01*
X143557603Y-104043857D01*
X143370856Y-104567302D01*
X141680000Y-104567302D01*
X141680000Y-103794787D01*
X143979392Y-103794787D01*
X144780000Y-104595395D01*
X145580608Y-103794787D01*
X145511143Y-103552603D01*
X144987698Y-103365856D01*
X144432632Y-103393638D01*
X144048857Y-103552603D01*
X143979392Y-103794787D01*
X141680000Y-103794787D01*
X141680000Y-102367302D01*
X151632856Y-102367302D01*
X151660638Y-102922368D01*
X151819603Y-103306143D01*
X152061787Y-103375608D01*
X152862395Y-102575000D01*
X153221605Y-102575000D01*
X154022213Y-103375608D01*
X154264397Y-103306143D01*
X154451144Y-102782698D01*
X154423362Y-102227632D01*
X154264397Y-101843857D01*
X154022213Y-101774392D01*
X153221605Y-102575000D01*
X152862395Y-102575000D01*
X152061787Y-101774392D01*
X151819603Y-101843857D01*
X151632856Y-102367302D01*
X141680000Y-102367302D01*
X141680000Y-101015213D01*
X152241392Y-101015213D01*
X152310857Y-101257397D01*
X152434344Y-101301453D01*
X152310857Y-101352603D01*
X152241392Y-101594787D01*
X153042000Y-102395395D01*
X153842608Y-101594787D01*
X153773143Y-101352603D01*
X153649656Y-101308547D01*
X153773143Y-101257397D01*
X153842608Y-101015213D01*
X153042000Y-100214605D01*
X152241392Y-101015213D01*
X141680000Y-101015213D01*
X141680000Y-99827302D01*
X151632856Y-99827302D01*
X151660638Y-100382368D01*
X151819603Y-100766143D01*
X152061787Y-100835608D01*
X152862395Y-100035000D01*
X153221605Y-100035000D01*
X154022213Y-100835608D01*
X154264397Y-100766143D01*
X154451144Y-100242698D01*
X154423362Y-99687632D01*
X154264397Y-99303857D01*
X154022213Y-99234392D01*
X153221605Y-100035000D01*
X152862395Y-100035000D01*
X152061787Y-99234392D01*
X151819603Y-99303857D01*
X151632856Y-99827302D01*
X141680000Y-99827302D01*
X141680000Y-94891661D01*
X143382758Y-94891661D01*
X143594990Y-95405303D01*
X143987630Y-95798629D01*
X144500900Y-96011757D01*
X145056661Y-96012242D01*
X145570303Y-95800010D01*
X145963629Y-95407370D01*
X146176757Y-94894100D01*
X146177242Y-94338339D01*
X145965010Y-93824697D01*
X145572370Y-93431371D01*
X145380273Y-93351605D01*
X145511143Y-93297397D01*
X145580608Y-93055213D01*
X144780000Y-92254605D01*
X143979392Y-93055213D01*
X144048857Y-93297397D01*
X144189318Y-93347509D01*
X143989697Y-93429990D01*
X143596371Y-93822630D01*
X143383243Y-94335900D01*
X143382758Y-94891661D01*
X141680000Y-94891661D01*
X141680000Y-91867302D01*
X143370856Y-91867302D01*
X143398638Y-92422368D01*
X143557603Y-92806143D01*
X143799787Y-92875608D01*
X144600395Y-92075000D01*
X144959605Y-92075000D01*
X145760213Y-92875608D01*
X146002397Y-92806143D01*
X146189144Y-92282698D01*
X146161362Y-91727632D01*
X146002397Y-91343857D01*
X145760213Y-91274392D01*
X144959605Y-92075000D01*
X144600395Y-92075000D01*
X143799787Y-91274392D01*
X143557603Y-91343857D01*
X143370856Y-91867302D01*
X141680000Y-91867302D01*
X141680000Y-91094787D01*
X143979392Y-91094787D01*
X144780000Y-91895395D01*
X145580608Y-91094787D01*
X145511143Y-90852603D01*
X144987698Y-90665856D01*
X144432632Y-90693638D01*
X144048857Y-90852603D01*
X143979392Y-91094787D01*
X141680000Y-91094787D01*
X141680000Y-87611661D01*
X151644758Y-87611661D01*
X151856990Y-88125303D01*
X152249630Y-88518629D01*
X152457512Y-88604949D01*
X152251697Y-88689990D01*
X151858371Y-89082630D01*
X151645243Y-89595900D01*
X151644758Y-90151661D01*
X151856990Y-90665303D01*
X152249630Y-91058629D01*
X152457512Y-91144949D01*
X152251697Y-91229990D01*
X151858371Y-91622630D01*
X151645243Y-92135900D01*
X151644758Y-92691661D01*
X151856990Y-93205303D01*
X152249630Y-93598629D01*
X152457512Y-93684949D01*
X152251697Y-93769990D01*
X151858371Y-94162630D01*
X151645243Y-94675900D01*
X151644758Y-95231661D01*
X151856990Y-95745303D01*
X152249630Y-96138629D01*
X152457512Y-96224949D01*
X152251697Y-96309990D01*
X151858371Y-96702630D01*
X151645243Y-97215900D01*
X151644758Y-97771661D01*
X151856990Y-98285303D01*
X152249630Y-98678629D01*
X152441727Y-98758395D01*
X152310857Y-98812603D01*
X152241392Y-99054787D01*
X153042000Y-99855395D01*
X153842608Y-99054787D01*
X153773143Y-98812603D01*
X153632682Y-98762491D01*
X153832303Y-98680010D01*
X154225629Y-98287370D01*
X154438757Y-97774100D01*
X154439242Y-97218339D01*
X154227010Y-96704697D01*
X153834370Y-96311371D01*
X153626488Y-96225051D01*
X153832303Y-96140010D01*
X154225629Y-95747370D01*
X154438757Y-95234100D01*
X154439242Y-94678339D01*
X154227010Y-94164697D01*
X153834370Y-93771371D01*
X153626488Y-93685051D01*
X153832303Y-93600010D01*
X154225629Y-93207370D01*
X154438757Y-92694100D01*
X154439242Y-92138339D01*
X154227010Y-91624697D01*
X153834370Y-91231371D01*
X153626488Y-91145051D01*
X153832303Y-91060010D01*
X154225629Y-90667370D01*
X154438757Y-90154100D01*
X154439242Y-89598339D01*
X154227010Y-89084697D01*
X153834370Y-88691371D01*
X153626488Y-88605051D01*
X153832303Y-88520010D01*
X154225629Y-88127370D01*
X154438757Y-87614100D01*
X154439242Y-87058339D01*
X154227010Y-86544697D01*
X153834370Y-86151371D01*
X153321100Y-85938243D01*
X152765339Y-85937758D01*
X152251697Y-86149990D01*
X151858371Y-86542630D01*
X151645243Y-87055900D01*
X151644758Y-87611661D01*
X141680000Y-87611661D01*
X141680000Y-76910000D01*
X200753692Y-76910000D01*
X200511697Y-77009990D01*
X200511697Y-77009990D01*
G37*
X200511697Y-77009990D02*
X200118371Y-77402630D01*
X199905243Y-77915900D01*
X199904758Y-78471661D01*
X200116990Y-78985303D01*
X200509630Y-79378629D01*
X200717512Y-79464949D01*
X200511697Y-79549990D01*
X200118371Y-79942630D01*
X199905243Y-80455900D01*
X199904758Y-81011661D01*
X200116990Y-81525303D01*
X200509630Y-81918629D01*
X200717512Y-82004949D01*
X200511697Y-82089990D01*
X200118371Y-82482630D01*
X199905243Y-82995900D01*
X199904758Y-83551661D01*
X200116990Y-84065303D01*
X200509630Y-84458629D01*
X200717512Y-84544949D01*
X200511697Y-84629990D01*
X200118371Y-85022630D01*
X199905243Y-85535900D01*
X199904758Y-86091661D01*
X200116990Y-86605303D01*
X200509630Y-86998629D01*
X200717512Y-87084949D01*
X200511697Y-87169990D01*
X200118371Y-87562630D01*
X199905243Y-88075900D01*
X199904758Y-88631661D01*
X200116990Y-89145303D01*
X200509630Y-89538629D01*
X200717512Y-89624949D01*
X200511697Y-89709990D01*
X200118371Y-90102630D01*
X199905243Y-90615900D01*
X199904758Y-91171661D01*
X200116990Y-91685303D01*
X200509630Y-92078629D01*
X200717512Y-92164949D01*
X200511697Y-92249990D01*
X200118371Y-92642630D01*
X199905243Y-93155900D01*
X199904758Y-93711661D01*
X200116990Y-94225303D01*
X200509630Y-94618629D01*
X200717512Y-94704949D01*
X200511697Y-94789990D01*
X200118371Y-95182630D01*
X199905243Y-95695900D01*
X199904758Y-96251661D01*
X200116990Y-96765303D01*
X200509630Y-97158629D01*
X200717512Y-97244949D01*
X200511697Y-97329990D01*
X200118371Y-97722630D01*
X199905243Y-98235900D01*
X199904758Y-98791661D01*
X200116990Y-99305303D01*
X200509630Y-99698629D01*
X200717512Y-99784949D01*
X200511697Y-99869990D01*
X200118371Y-100262630D01*
X199905243Y-100775900D01*
X199904758Y-101331661D01*
X200116990Y-101845303D01*
X200509630Y-102238629D01*
X201022900Y-102451757D01*
X201578661Y-102452242D01*
X202092303Y-102240010D01*
X202485629Y-101847370D01*
X202698757Y-101334100D01*
X202699242Y-100778339D01*
X202487010Y-100264697D01*
X202094370Y-99871371D01*
X201886488Y-99785051D01*
X202092303Y-99700010D01*
X202485629Y-99307370D01*
X202698757Y-98794100D01*
X202699242Y-98238339D01*
X202487010Y-97724697D01*
X202094370Y-97331371D01*
X201886488Y-97245051D01*
X202092303Y-97160010D01*
X202485629Y-96767370D01*
X202698757Y-96254100D01*
X202699242Y-95698339D01*
X202487010Y-95184697D01*
X202094370Y-94791371D01*
X201886488Y-94705051D01*
X202092303Y-94620010D01*
X202485629Y-94227370D01*
X202698757Y-93714100D01*
X202699242Y-93158339D01*
X202487010Y-92644697D01*
X202094370Y-92251371D01*
X201886488Y-92165051D01*
X202092303Y-92080010D01*
X202485629Y-91687370D01*
X202698757Y-91174100D01*
X202699242Y-90618339D01*
X202487010Y-90104697D01*
X202094370Y-89711371D01*
X201886488Y-89625051D01*
X202092303Y-89540010D01*
X202485629Y-89147370D01*
X202698757Y-88634100D01*
X202699242Y-88078339D01*
X202487010Y-87564697D01*
X202094370Y-87171371D01*
X201886488Y-87085051D01*
X202092303Y-87000010D01*
X202485629Y-86607370D01*
X202698757Y-86094100D01*
X202699242Y-85538339D01*
X202487010Y-85024697D01*
X202094370Y-84631371D01*
X201886488Y-84545051D01*
X202092303Y-84460010D01*
X202485629Y-84067370D01*
X202698757Y-83554100D01*
X202699242Y-82998339D01*
X202487010Y-82484697D01*
X202094370Y-82091371D01*
X201886488Y-82005051D01*
X202092303Y-81920010D01*
X202485629Y-81527370D01*
X202698757Y-81014100D01*
X202699242Y-80458339D01*
X202487010Y-79944697D01*
X202094370Y-79551371D01*
X201886488Y-79465051D01*
X202092303Y-79380010D01*
X202485629Y-78987370D01*
X202698757Y-78474100D01*
X202699242Y-77918339D01*
X202487010Y-77404697D01*
X202094370Y-77011371D01*
X201850241Y-76910000D01*
X211790000Y-76910000D01*
X211790000Y-132640000D01*
X141680000Y-132640000D01*
X141680000Y-128923021D01*
X142599560Y-128923021D01*
X142985437Y-129856915D01*
X143699327Y-130572052D01*
X144632546Y-130959559D01*
X145643021Y-130960440D01*
X146576915Y-130574563D01*
X147036013Y-130116265D01*
X152094758Y-130116265D01*
X152306687Y-130629172D01*
X152698764Y-131021934D01*
X153211300Y-131234758D01*
X153766265Y-131235242D01*
X154279172Y-131023313D01*
X154671934Y-130631236D01*
X154875238Y-130141628D01*
X155076687Y-130629172D01*
X155468764Y-131021934D01*
X155981300Y-131234758D01*
X156536265Y-131235242D01*
X157049172Y-131023313D01*
X157441934Y-130631236D01*
X157645238Y-130141628D01*
X157846687Y-130629172D01*
X158238764Y-131021934D01*
X158751300Y-131234758D01*
X159306265Y-131235242D01*
X159819172Y-131023313D01*
X160211934Y-130631236D01*
X160415238Y-130141628D01*
X160616687Y-130629172D01*
X161008764Y-131021934D01*
X161521300Y-131234758D01*
X162076265Y-131235242D01*
X162589172Y-131023313D01*
X162981934Y-130631236D01*
X163185238Y-130141628D01*
X163386687Y-130629172D01*
X163778764Y-131021934D01*
X164291300Y-131234758D01*
X164846265Y-131235242D01*
X165359172Y-131023313D01*
X165751934Y-130631236D01*
X165955238Y-130141628D01*
X166156687Y-130629172D01*
X166548764Y-131021934D01*
X167061300Y-131234758D01*
X167616265Y-131235242D01*
X168129172Y-131023313D01*
X168521934Y-130631236D01*
X168720225Y-130153699D01*
X168916687Y-130629172D01*
X169308764Y-131021934D01*
X169821300Y-131234758D01*
X170376265Y-131235242D01*
X170889172Y-131023313D01*
X171281934Y-130631236D01*
X171485238Y-130141628D01*
X171686687Y-130629172D01*
X172078764Y-131021934D01*
X172591300Y-131234758D01*
X173146265Y-131235242D01*
X173659172Y-131023313D01*
X174051934Y-130631236D01*
X174255238Y-130141628D01*
X174456687Y-130629172D01*
X174848764Y-131021934D01*
X175361300Y-131234758D01*
X175916265Y-131235242D01*
X176429172Y-131023313D01*
X176821934Y-130631236D01*
X177025238Y-130141628D01*
X177226687Y-130629172D01*
X177618764Y-131021934D01*
X178131300Y-131234758D01*
X178686265Y-131235242D01*
X179199172Y-131023313D01*
X179591934Y-130631236D01*
X179795238Y-130141628D01*
X179996687Y-130629172D01*
X180388764Y-131021934D01*
X180901300Y-131234758D01*
X181456265Y-131235242D01*
X181969172Y-131023313D01*
X182361934Y-130631236D01*
X182565238Y-130141628D01*
X182766687Y-130629172D01*
X183158764Y-131021934D01*
X183671300Y-131234758D01*
X184226265Y-131235242D01*
X184739172Y-131023313D01*
X185131934Y-130631236D01*
X185335238Y-130141628D01*
X185536687Y-130629172D01*
X185928764Y-131021934D01*
X186441300Y-131234758D01*
X186996265Y-131235242D01*
X187509172Y-131023313D01*
X187901934Y-130631236D01*
X188100225Y-130153699D01*
X188296687Y-130629172D01*
X188688764Y-131021934D01*
X189201300Y-131234758D01*
X189756265Y-131235242D01*
X190269172Y-131023313D01*
X190661934Y-130631236D01*
X190865238Y-130141628D01*
X191066687Y-130629172D01*
X191458764Y-131021934D01*
X191971300Y-131234758D01*
X192526265Y-131235242D01*
X193039172Y-131023313D01*
X193431934Y-130631236D01*
X193635238Y-130141628D01*
X193836687Y-130629172D01*
X194228764Y-131021934D01*
X194741300Y-131234758D01*
X195296265Y-131235242D01*
X195809172Y-131023313D01*
X196201934Y-130631236D01*
X196405238Y-130141628D01*
X196606687Y-130629172D01*
X196998764Y-131021934D01*
X197511300Y-131234758D01*
X198066265Y-131235242D01*
X198579172Y-131023313D01*
X198971934Y-130631236D01*
X199175238Y-130141628D01*
X199376687Y-130629172D01*
X199768764Y-131021934D01*
X200281300Y-131234758D01*
X200836265Y-131235242D01*
X201349172Y-131023313D01*
X201741934Y-130631236D01*
X201954758Y-130118700D01*
X201955242Y-129563735D01*
X201743313Y-129050828D01*
X201615729Y-128923021D01*
X206099560Y-128923021D01*
X206485437Y-129856915D01*
X207199327Y-130572052D01*
X208132546Y-130959559D01*
X209143021Y-130960440D01*
X210076915Y-130574563D01*
X210792052Y-129860673D01*
X211179559Y-128927454D01*
X211180440Y-127916979D01*
X210794563Y-126983085D01*
X210080673Y-126267948D01*
X209147454Y-125880441D01*
X208136979Y-125879560D01*
X207203085Y-126265437D01*
X206487948Y-126979327D01*
X206100441Y-127912546D01*
X206099560Y-128923021D01*
X201615729Y-128923021D01*
X201351236Y-128658066D01*
X200838700Y-128445242D01*
X200283735Y-128444758D01*
X199770828Y-128656687D01*
X199378066Y-129048764D01*
X199174762Y-129538372D01*
X198973313Y-129050828D01*
X198581236Y-128658066D01*
X198068700Y-128445242D01*
X197513735Y-128444758D01*
X197000828Y-128656687D01*
X196608066Y-129048764D01*
X196404762Y-129538372D01*
X196203313Y-129050828D01*
X195811236Y-128658066D01*
X195298700Y-128445242D01*
X194743735Y-128444758D01*
X194230828Y-128656687D01*
X193838066Y-129048764D01*
X193634762Y-129538372D01*
X193433313Y-129050828D01*
X193041236Y-128658066D01*
X192528700Y-128445242D01*
X191973735Y-128444758D01*
X191460828Y-128656687D01*
X191068066Y-129048764D01*
X190864762Y-129538372D01*
X190663313Y-129050828D01*
X190271236Y-128658066D01*
X189758700Y-128445242D01*
X189203735Y-128444758D01*
X188690828Y-128656687D01*
X188298066Y-129048764D01*
X188099775Y-129526301D01*
X187903313Y-129050828D01*
X187511236Y-128658066D01*
X186998700Y-128445242D01*
X186443735Y-128444758D01*
X185930828Y-128656687D01*
X185538066Y-129048764D01*
X185334762Y-129538372D01*
X185133313Y-129050828D01*
X184741236Y-128658066D01*
X184228700Y-128445242D01*
X183673735Y-128444758D01*
X183160828Y-128656687D01*
X182768066Y-129048764D01*
X182564762Y-129538372D01*
X182363313Y-129050828D01*
X181971236Y-128658066D01*
X181458700Y-128445242D01*
X180903735Y-128444758D01*
X180390828Y-128656687D01*
X179998066Y-129048764D01*
X179794762Y-129538372D01*
X179593313Y-129050828D01*
X179201236Y-128658066D01*
X178688700Y-128445242D01*
X178133735Y-128444758D01*
X177620828Y-128656687D01*
X177228066Y-129048764D01*
X177024762Y-129538372D01*
X176823313Y-129050828D01*
X176431236Y-128658066D01*
X175918700Y-128445242D01*
X175363735Y-128444758D01*
X174850828Y-128656687D01*
X174458066Y-129048764D01*
X174254762Y-129538372D01*
X174053313Y-129050828D01*
X173661236Y-128658066D01*
X173148700Y-128445242D01*
X172593735Y-128444758D01*
X172080828Y-128656687D01*
X171688066Y-129048764D01*
X171484762Y-129538372D01*
X171283313Y-129050828D01*
X170891236Y-128658066D01*
X170378700Y-128445242D01*
X169823735Y-128444758D01*
X169310828Y-128656687D01*
X168918066Y-129048764D01*
X168719775Y-129526301D01*
X168523313Y-129050828D01*
X168131236Y-128658066D01*
X167618700Y-128445242D01*
X167063735Y-128444758D01*
X166550828Y-128656687D01*
X166158066Y-129048764D01*
X165954762Y-129538372D01*
X165753313Y-129050828D01*
X165361236Y-128658066D01*
X164848700Y-128445242D01*
X164293735Y-128444758D01*
X163780828Y-128656687D01*
X163388066Y-129048764D01*
X163184762Y-129538372D01*
X162983313Y-129050828D01*
X162591236Y-128658066D01*
X162078700Y-128445242D01*
X161523735Y-128444758D01*
X161010828Y-128656687D01*
X160618066Y-129048764D01*
X160414762Y-129538372D01*
X160213313Y-129050828D01*
X159821236Y-128658066D01*
X159308700Y-128445242D01*
X158753735Y-128444758D01*
X158240828Y-128656687D01*
X157848066Y-129048764D01*
X157644762Y-129538372D01*
X157443313Y-129050828D01*
X157051236Y-128658066D01*
X156538700Y-128445242D01*
X155983735Y-128444758D01*
X155470828Y-128656687D01*
X155078066Y-129048764D01*
X154874762Y-129538372D01*
X154673313Y-129050828D01*
X154281236Y-128658066D01*
X153768700Y-128445242D01*
X153213735Y-128444758D01*
X152700828Y-128656687D01*
X152308066Y-129048764D01*
X152095242Y-129561300D01*
X152094758Y-130116265D01*
X147036013Y-130116265D01*
X147292052Y-129860673D01*
X147679559Y-128927454D01*
X147680440Y-127916979D01*
X147294563Y-126983085D01*
X146580673Y-126267948D01*
X145647454Y-125880441D01*
X144636979Y-125879560D01*
X143703085Y-126265437D01*
X142987948Y-126979327D01*
X142600441Y-127912546D01*
X142599560Y-128923021D01*
X141680000Y-128923021D01*
X141680000Y-110471661D01*
X151644758Y-110471661D01*
X151856990Y-110985303D01*
X152249630Y-111378629D01*
X152457512Y-111464949D01*
X152251697Y-111549990D01*
X151858371Y-111942630D01*
X151645243Y-112455900D01*
X151644758Y-113011661D01*
X151856990Y-113525303D01*
X152249630Y-113918629D01*
X152457512Y-114004949D01*
X152251697Y-114089990D01*
X151858371Y-114482630D01*
X151645243Y-114995900D01*
X151644758Y-115551661D01*
X151856990Y-116065303D01*
X152249630Y-116458629D01*
X152457512Y-116544949D01*
X152251697Y-116629990D01*
X151858371Y-117022630D01*
X151645243Y-117535900D01*
X151644758Y-118091661D01*
X151856990Y-118605303D01*
X152249630Y-118998629D01*
X152457512Y-119084949D01*
X152251697Y-119169990D01*
X151858371Y-119562630D01*
X151645243Y-120075900D01*
X151644758Y-120631661D01*
X151856990Y-121145303D01*
X152249630Y-121538629D01*
X152457512Y-121624949D01*
X152251697Y-121709990D01*
X151858371Y-122102630D01*
X151645243Y-122615900D01*
X151644758Y-123171661D01*
X151856990Y-123685303D01*
X152249630Y-124078629D01*
X152762900Y-124291757D01*
X153318661Y-124292242D01*
X153832303Y-124080010D01*
X154225629Y-123687370D01*
X154438757Y-123174100D01*
X154439242Y-122618339D01*
X154227010Y-122104697D01*
X153834370Y-121711371D01*
X153626488Y-121625051D01*
X153832303Y-121540010D01*
X154225629Y-121147370D01*
X154438757Y-120634100D01*
X154439242Y-120078339D01*
X154227010Y-119564697D01*
X153834370Y-119171371D01*
X153626488Y-119085051D01*
X153832303Y-119000010D01*
X154225629Y-118607370D01*
X154438757Y-118094100D01*
X154439242Y-117538339D01*
X154227010Y-117024697D01*
X153834370Y-116631371D01*
X153626488Y-116545051D01*
X153832303Y-116460010D01*
X154225629Y-116067370D01*
X154438757Y-115554100D01*
X154439242Y-114998339D01*
X154227010Y-114484697D01*
X153834370Y-114091371D01*
X153626488Y-114005051D01*
X153832303Y-113920010D01*
X154225629Y-113527370D01*
X154438757Y-113014100D01*
X154439242Y-112458339D01*
X154227010Y-111944697D01*
X153834370Y-111551371D01*
X153626488Y-111465051D01*
X153832303Y-111380010D01*
X154225629Y-110987370D01*
X154438757Y-110474100D01*
X154439242Y-109918339D01*
X154227010Y-109404697D01*
X153834370Y-109011371D01*
X153321100Y-108798243D01*
X152765339Y-108797758D01*
X152251697Y-109009990D01*
X151858371Y-109402630D01*
X151645243Y-109915900D01*
X151644758Y-110471661D01*
X141680000Y-110471661D01*
X141680000Y-107591661D01*
X143382758Y-107591661D01*
X143594990Y-108105303D01*
X143987630Y-108498629D01*
X144500900Y-108711757D01*
X145056661Y-108712242D01*
X145570303Y-108500010D01*
X145945968Y-108125000D01*
X153102998Y-108125000D01*
X159669378Y-114691380D01*
X159669338Y-114736867D01*
X159811383Y-115080643D01*
X159868900Y-115138260D01*
X159868900Y-118156298D01*
X155953041Y-122072157D01*
X155739943Y-122214544D01*
X152349271Y-125605216D01*
X151823735Y-125604758D01*
X151310828Y-125816687D01*
X150918066Y-126208764D01*
X150705242Y-126721300D01*
X150704758Y-127276265D01*
X150916687Y-127789172D01*
X151308764Y-128181934D01*
X151821300Y-128394758D01*
X152376265Y-128395242D01*
X152889172Y-128183313D01*
X153281934Y-127791236D01*
X153480225Y-127313699D01*
X153676687Y-127789172D01*
X154068764Y-128181934D01*
X154581300Y-128394758D01*
X155136265Y-128395242D01*
X155649172Y-128183313D01*
X156041934Y-127791236D01*
X156245238Y-127301628D01*
X156446687Y-127789172D01*
X156838764Y-128181934D01*
X157351300Y-128394758D01*
X157906265Y-128395242D01*
X158419172Y-128183313D01*
X158811934Y-127791236D01*
X159015238Y-127301628D01*
X159216687Y-127789172D01*
X159608764Y-128181934D01*
X160121300Y-128394758D01*
X160676265Y-128395242D01*
X161189172Y-128183313D01*
X161581934Y-127791236D01*
X161785238Y-127301628D01*
X161986687Y-127789172D01*
X162378764Y-128181934D01*
X162891300Y-128394758D01*
X163446265Y-128395242D01*
X163959172Y-128183313D01*
X164351934Y-127791236D01*
X164555238Y-127301628D01*
X164756687Y-127789172D01*
X165148764Y-128181934D01*
X165661300Y-128394758D01*
X166216265Y-128395242D01*
X166729172Y-128183313D01*
X167121934Y-127791236D01*
X167325238Y-127301628D01*
X167526687Y-127789172D01*
X167918764Y-128181934D01*
X168431300Y-128394758D01*
X168986265Y-128395242D01*
X169499172Y-128183313D01*
X169891934Y-127791236D01*
X170095238Y-127301628D01*
X170296687Y-127789172D01*
X170688764Y-128181934D01*
X171201300Y-128394758D01*
X171756265Y-128395242D01*
X172269172Y-128183313D01*
X172661934Y-127791236D01*
X172860225Y-127313699D01*
X173056687Y-127789172D01*
X173448764Y-128181934D01*
X173961300Y-128394758D01*
X174516265Y-128395242D01*
X175029172Y-128183313D01*
X175421934Y-127791236D01*
X175625238Y-127301628D01*
X175826687Y-127789172D01*
X176218764Y-128181934D01*
X176731300Y-128394758D01*
X177286265Y-128395242D01*
X177799172Y-128183313D01*
X178191934Y-127791236D01*
X178231303Y-127696426D01*
X178469301Y-127537401D01*
X178485828Y-127520874D01*
X178596687Y-127789172D01*
X178988764Y-128181934D01*
X179501300Y-128394758D01*
X180056265Y-128395242D01*
X180569172Y-128183313D01*
X180961934Y-127791236D01*
X181165238Y-127301628D01*
X181366687Y-127789172D01*
X181758764Y-128181934D01*
X182271300Y-128394758D01*
X182826265Y-128395242D01*
X183339172Y-128183313D01*
X183731934Y-127791236D01*
X183935238Y-127301628D01*
X184136687Y-127789172D01*
X184528764Y-128181934D01*
X185041300Y-128394758D01*
X185596265Y-128395242D01*
X186109172Y-128183313D01*
X186501934Y-127791236D01*
X186705238Y-127301628D01*
X186906687Y-127789172D01*
X187298764Y-128181934D01*
X187811300Y-128394758D01*
X188366265Y-128395242D01*
X188879172Y-128183313D01*
X189271934Y-127791236D01*
X189475238Y-127301628D01*
X189676687Y-127789172D01*
X190068764Y-128181934D01*
X190581300Y-128394758D01*
X191136265Y-128395242D01*
X191649172Y-128183313D01*
X192041934Y-127791236D01*
X192240225Y-127313699D01*
X192436687Y-127789172D01*
X192828764Y-128181934D01*
X193341300Y-128394758D01*
X193896265Y-128395242D01*
X194409172Y-128183313D01*
X194801934Y-127791236D01*
X195005238Y-127301628D01*
X195206687Y-127789172D01*
X195598764Y-128181934D01*
X196111300Y-128394758D01*
X196666265Y-128395242D01*
X197179172Y-128183313D01*
X197571934Y-127791236D01*
X197775238Y-127301628D01*
X197976687Y-127789172D01*
X198368764Y-128181934D01*
X198881300Y-128394758D01*
X199436265Y-128395242D01*
X199949172Y-128183313D01*
X200341934Y-127791236D01*
X200522560Y-127356241D01*
X200522560Y-127760000D01*
X200566838Y-127995317D01*
X200705910Y-128211441D01*
X200918110Y-128356431D01*
X201170000Y-128407440D01*
X202690000Y-128407440D01*
X202925317Y-128363162D01*
X203141441Y-128224090D01*
X203286431Y-128011890D01*
X203337440Y-127760000D01*
X203337440Y-126240000D01*
X203293162Y-126004683D01*
X203154090Y-125788559D01*
X202941890Y-125643569D01*
X202690000Y-125592560D01*
X201170000Y-125592560D01*
X200934683Y-125636838D01*
X200718559Y-125775910D01*
X200573569Y-125988110D01*
X200522560Y-126240000D01*
X200522560Y-126644639D01*
X200343313Y-126210828D01*
X199951236Y-125818066D01*
X199438700Y-125605242D01*
X198883735Y-125604758D01*
X198370828Y-125816687D01*
X197978066Y-126208764D01*
X197774762Y-126698372D01*
X197573313Y-126210828D01*
X197181236Y-125818066D01*
X196668700Y-125605242D01*
X196113735Y-125604758D01*
X195600828Y-125816687D01*
X195208066Y-126208764D01*
X195004762Y-126698372D01*
X194803313Y-126210828D01*
X194411236Y-125818066D01*
X193898700Y-125605242D01*
X193343735Y-125604758D01*
X192830828Y-125816687D01*
X192438066Y-126208764D01*
X192239775Y-126686301D01*
X192043313Y-126210828D01*
X191651236Y-125818066D01*
X191138700Y-125605242D01*
X190583735Y-125604758D01*
X190070828Y-125816687D01*
X189678066Y-126208764D01*
X189474762Y-126698372D01*
X189273313Y-126210828D01*
X188881236Y-125818066D01*
X188368700Y-125605242D01*
X187813735Y-125604758D01*
X187300828Y-125816687D01*
X186908066Y-126208764D01*
X186704762Y-126698372D01*
X186503313Y-126210828D01*
X186111236Y-125818066D01*
X185598700Y-125605242D01*
X185043735Y-125604758D01*
X184530828Y-125816687D01*
X184138066Y-126208764D01*
X183934762Y-126698372D01*
X183733313Y-126210828D01*
X183341236Y-125818066D01*
X182828700Y-125605242D01*
X182273735Y-125604758D01*
X181760828Y-125816687D01*
X181368066Y-126208764D01*
X181164762Y-126698372D01*
X180963313Y-126210828D01*
X180571236Y-125818066D01*
X180300893Y-125705809D01*
X184315180Y-121691522D01*
X184360667Y-121691562D01*
X184704443Y-121549517D01*
X184967692Y-121286727D01*
X185110338Y-120943199D01*
X185110662Y-120571233D01*
X184968617Y-120227457D01*
X184705827Y-119964208D01*
X184362299Y-119821562D01*
X183990333Y-119821238D01*
X183646557Y-119963283D01*
X183383308Y-120226073D01*
X183240662Y-120569601D01*
X183240621Y-120616477D01*
X177920030Y-125937068D01*
X177801236Y-125818066D01*
X177288700Y-125605242D01*
X176733735Y-125604758D01*
X176220828Y-125816687D01*
X175828066Y-126208764D01*
X175624762Y-126698372D01*
X175423313Y-126210828D01*
X175031236Y-125818066D01*
X174518700Y-125605242D01*
X173963735Y-125604758D01*
X173940404Y-125614398D01*
X178840201Y-120714601D01*
X179004948Y-120468040D01*
X179062800Y-120177200D01*
X179062800Y-110044663D01*
X179094992Y-110012527D01*
X179237638Y-109668999D01*
X179237962Y-109297033D01*
X179095917Y-108953257D01*
X178833127Y-108690008D01*
X178489599Y-108547362D01*
X178117633Y-108547038D01*
X177773857Y-108689083D01*
X177510608Y-108951873D01*
X177367962Y-109295401D01*
X177367638Y-109667367D01*
X177509683Y-110011143D01*
X177542800Y-110044318D01*
X177542800Y-119862398D01*
X171787851Y-125617347D01*
X171758700Y-125605242D01*
X171203735Y-125604758D01*
X170690828Y-125816687D01*
X170298066Y-126208764D01*
X170094762Y-126698372D01*
X169893313Y-126210828D01*
X169501236Y-125818066D01*
X168988700Y-125605242D01*
X168433735Y-125604758D01*
X167920828Y-125816687D01*
X167528066Y-126208764D01*
X167324762Y-126698372D01*
X167123313Y-126210828D01*
X166731236Y-125818066D01*
X166700000Y-125805096D01*
X166700000Y-122690302D01*
X169171180Y-120219122D01*
X169216667Y-120219162D01*
X169560443Y-120077117D01*
X169823692Y-119814327D01*
X169966338Y-119470799D01*
X169966662Y-119098833D01*
X169824617Y-118755057D01*
X169561827Y-118491808D01*
X169218299Y-118349162D01*
X168846333Y-118348838D01*
X168502557Y-118490883D01*
X168239308Y-118753673D01*
X168096662Y-119097201D01*
X168096621Y-119144077D01*
X165402599Y-121838099D01*
X165237852Y-122084661D01*
X165180000Y-122375500D01*
X165180000Y-125804633D01*
X165150828Y-125816687D01*
X164758066Y-126208764D01*
X164554762Y-126698372D01*
X164353313Y-126210828D01*
X163961236Y-125818066D01*
X163448700Y-125605242D01*
X162893735Y-125604758D01*
X162380828Y-125816687D01*
X161988066Y-126208764D01*
X161784762Y-126698372D01*
X161583313Y-126210828D01*
X161191236Y-125818066D01*
X160678700Y-125605242D01*
X160123735Y-125604758D01*
X159610828Y-125816687D01*
X159218066Y-126208764D01*
X159014762Y-126698372D01*
X158813313Y-126210828D01*
X158421236Y-125818066D01*
X157908700Y-125605242D01*
X157353735Y-125604758D01*
X156840828Y-125816687D01*
X156448066Y-126208764D01*
X156244762Y-126698372D01*
X156043313Y-126210828D01*
X155651236Y-125818066D01*
X155138700Y-125605242D01*
X154640705Y-125604808D01*
X156885456Y-123360057D01*
X157027843Y-123146959D01*
X160943702Y-119231100D01*
X164334658Y-119231100D01*
X164493073Y-119389792D01*
X164836601Y-119532438D01*
X165208567Y-119532762D01*
X165552343Y-119390717D01*
X165815592Y-119127927D01*
X165958238Y-118784399D01*
X165958562Y-118412433D01*
X165816517Y-118068657D01*
X165553727Y-117805408D01*
X165210199Y-117662762D01*
X164838233Y-117662438D01*
X164720462Y-117711100D01*
X161388900Y-117711100D01*
X161388900Y-115089805D01*
X161396692Y-115082027D01*
X161539338Y-114738499D01*
X161539662Y-114366533D01*
X161397617Y-114022757D01*
X161134827Y-113759508D01*
X160791299Y-113616862D01*
X160744423Y-113616821D01*
X154362907Y-107235305D01*
X156206551Y-105391661D01*
X199904758Y-105391661D01*
X200116990Y-105905303D01*
X200509630Y-106298629D01*
X200717512Y-106384949D01*
X200511697Y-106469990D01*
X200118371Y-106862630D01*
X199905243Y-107375900D01*
X199904758Y-107931661D01*
X200116990Y-108445303D01*
X200509630Y-108838629D01*
X200717512Y-108924949D01*
X200511697Y-109009990D01*
X200118371Y-109402630D01*
X199905243Y-109915900D01*
X199904758Y-110471661D01*
X200116990Y-110985303D01*
X200509630Y-111378629D01*
X200717512Y-111464949D01*
X200511697Y-111549990D01*
X200118371Y-111942630D01*
X199905243Y-112455900D01*
X199904758Y-113011661D01*
X200116990Y-113525303D01*
X200509630Y-113918629D01*
X200717512Y-114004949D01*
X200511697Y-114089990D01*
X200118371Y-114482630D01*
X199905243Y-114995900D01*
X199904758Y-115551661D01*
X200116990Y-116065303D01*
X200509630Y-116458629D01*
X200717512Y-116544949D01*
X200511697Y-116629990D01*
X200118371Y-117022630D01*
X199905243Y-117535900D01*
X199904758Y-118091661D01*
X200116990Y-118605303D01*
X200509630Y-118998629D01*
X200717512Y-119084949D01*
X200511697Y-119169990D01*
X200118371Y-119562630D01*
X199905243Y-120075900D01*
X199904758Y-120631661D01*
X200116990Y-121145303D01*
X200509630Y-121538629D01*
X200717512Y-121624949D01*
X200511697Y-121709990D01*
X200118371Y-122102630D01*
X199905243Y-122615900D01*
X199904758Y-123171661D01*
X200116990Y-123685303D01*
X200509630Y-124078629D01*
X201022900Y-124291757D01*
X201578661Y-124292242D01*
X202092303Y-124080010D01*
X202485629Y-123687370D01*
X202698757Y-123174100D01*
X202699242Y-122618339D01*
X202487010Y-122104697D01*
X202094370Y-121711371D01*
X201886488Y-121625051D01*
X202092303Y-121540010D01*
X202485629Y-121147370D01*
X202698757Y-120634100D01*
X202699242Y-120078339D01*
X202487010Y-119564697D01*
X202094370Y-119171371D01*
X201886488Y-119085051D01*
X202092303Y-119000010D01*
X202485629Y-118607370D01*
X202698757Y-118094100D01*
X202699242Y-117538339D01*
X202487010Y-117024697D01*
X202094370Y-116631371D01*
X201886488Y-116545051D01*
X202092303Y-116460010D01*
X202485629Y-116067370D01*
X202698757Y-115554100D01*
X202699242Y-114998339D01*
X202487010Y-114484697D01*
X202094370Y-114091371D01*
X201886488Y-114005051D01*
X202092303Y-113920010D01*
X202485629Y-113527370D01*
X202698757Y-113014100D01*
X202699242Y-112458339D01*
X202487010Y-111944697D01*
X202094370Y-111551371D01*
X201886488Y-111465051D01*
X202092303Y-111380010D01*
X202485629Y-110987370D01*
X202698757Y-110474100D01*
X202699242Y-109918339D01*
X202487010Y-109404697D01*
X202094370Y-109011371D01*
X201886488Y-108925051D01*
X202092303Y-108840010D01*
X202485629Y-108447370D01*
X202698757Y-107934100D01*
X202699242Y-107378339D01*
X202487010Y-106864697D01*
X202094370Y-106471371D01*
X201886488Y-106385051D01*
X202092303Y-106300010D01*
X202485629Y-105907370D01*
X202698757Y-105394100D01*
X202699242Y-104838339D01*
X202487010Y-104324697D01*
X202094370Y-103931371D01*
X201581100Y-103718243D01*
X201025339Y-103717758D01*
X200511697Y-103929990D01*
X200118371Y-104322630D01*
X199905243Y-104835900D01*
X199904758Y-105391661D01*
X156206551Y-105391661D01*
X156885457Y-104712756D01*
X156885459Y-104712753D01*
X166942756Y-94655457D01*
X166942758Y-94655454D01*
X167045457Y-94552756D01*
X167045459Y-94552753D01*
X167680457Y-93917756D01*
X167680459Y-93917753D01*
X175351550Y-86246663D01*
X175521235Y-86416645D01*
X175938244Y-86589803D01*
X176389775Y-86590197D01*
X176807086Y-86417767D01*
X176980050Y-86245104D01*
X179094501Y-86245104D01*
X179131648Y-86460217D01*
X179559972Y-86603112D01*
X180010375Y-86571217D01*
X180278352Y-86460217D01*
X180315499Y-86245104D01*
X179705000Y-85634605D01*
X179094501Y-86245104D01*
X176980050Y-86245104D01*
X177126645Y-86098765D01*
X177299803Y-85681756D01*
X177300127Y-85309972D01*
X178556888Y-85309972D01*
X178588783Y-85760375D01*
X178699783Y-86028352D01*
X178914896Y-86065499D01*
X179525395Y-85455000D01*
X179884605Y-85455000D01*
X180495104Y-86065499D01*
X180710217Y-86028352D01*
X180853112Y-85600028D01*
X180821217Y-85149625D01*
X180710217Y-84881648D01*
X180495104Y-84844501D01*
X179884605Y-85455000D01*
X179525395Y-85455000D01*
X178914896Y-84844501D01*
X178699783Y-84881648D01*
X178556888Y-85309972D01*
X177300127Y-85309972D01*
X177300197Y-85230225D01*
X177127767Y-84812914D01*
X176913166Y-84597938D01*
X176913342Y-84597674D01*
X176968812Y-84318807D01*
X176972233Y-84327086D01*
X177291235Y-84646645D01*
X177708244Y-84819803D01*
X178159775Y-84820197D01*
X178535630Y-84664896D01*
X179094501Y-84664896D01*
X179705000Y-85275395D01*
X180315499Y-84664896D01*
X180278352Y-84449783D01*
X179850028Y-84306888D01*
X179399625Y-84338783D01*
X179131648Y-84449783D01*
X179094501Y-84664896D01*
X178535630Y-84664896D01*
X178577086Y-84647767D01*
X178896645Y-84328765D01*
X179069803Y-83911756D01*
X179070197Y-83460225D01*
X178897767Y-83042914D01*
X178578765Y-82723355D01*
X178534812Y-82705104D01*
X179094501Y-82705104D01*
X179131648Y-82920217D01*
X179559972Y-83063112D01*
X180010375Y-83031217D01*
X180278352Y-82920217D01*
X180315499Y-82705104D01*
X179705000Y-82094605D01*
X179094501Y-82705104D01*
X178534812Y-82705104D01*
X178161756Y-82550197D01*
X177710225Y-82549803D01*
X177292914Y-82722233D01*
X176975000Y-83039593D01*
X176975000Y-82710146D01*
X177126645Y-82558765D01*
X177299803Y-82141756D01*
X177300127Y-81769972D01*
X178556888Y-81769972D01*
X178588783Y-82220375D01*
X178699783Y-82488352D01*
X178914896Y-82525499D01*
X179525395Y-81915000D01*
X179884605Y-81915000D01*
X180495104Y-82525499D01*
X180710217Y-82488352D01*
X180853112Y-82060028D01*
X180821217Y-81609625D01*
X180710217Y-81341648D01*
X180495104Y-81304501D01*
X179884605Y-81915000D01*
X179525395Y-81915000D01*
X178914896Y-81304501D01*
X178699783Y-81341648D01*
X178556888Y-81769972D01*
X177300127Y-81769972D01*
X177300197Y-81690225D01*
X177127767Y-81272914D01*
X176980007Y-81124896D01*
X179094501Y-81124896D01*
X179705000Y-81735395D01*
X180315499Y-81124896D01*
X180278352Y-80909783D01*
X179850028Y-80766888D01*
X179399625Y-80798783D01*
X179131648Y-80909783D01*
X179094501Y-81124896D01*
X176980007Y-81124896D01*
X176808765Y-80953355D01*
X176391756Y-80780197D01*
X175940225Y-80779803D01*
X175522914Y-80952233D01*
X175203355Y-81271235D01*
X175030197Y-81688244D01*
X175029803Y-82139775D01*
X175202233Y-82557086D01*
X175355000Y-82710120D01*
X175355000Y-83952187D01*
X166534947Y-92772241D01*
X166534944Y-92772243D01*
X165899947Y-93407241D01*
X165899944Y-93407243D01*
X165797246Y-93509942D01*
X165797243Y-93509944D01*
X155739947Y-103567241D01*
X155739944Y-103567243D01*
X154439216Y-104867971D01*
X154439242Y-104838339D01*
X154227010Y-104324697D01*
X153834370Y-103931371D01*
X153642273Y-103851605D01*
X153773143Y-103797397D01*
X153842608Y-103555213D01*
X153042000Y-102754605D01*
X152241392Y-103555213D01*
X152310857Y-103797397D01*
X152451318Y-103847509D01*
X152251697Y-103929990D01*
X151858371Y-104322630D01*
X151645243Y-104835900D01*
X151644758Y-105391661D01*
X151856990Y-105905303D01*
X152249630Y-106298629D01*
X152746627Y-106505000D01*
X145945347Y-106505000D01*
X145572370Y-106131371D01*
X145380273Y-106051605D01*
X145511143Y-105997397D01*
X145580608Y-105755213D01*
X144780000Y-104954605D01*
X143979392Y-105755213D01*
X144048857Y-105997397D01*
X144189318Y-106047509D01*
X143989697Y-106129990D01*
X143596371Y-106522630D01*
X143383243Y-107035900D01*
X143382758Y-107591661D01*
X141680000Y-107591661D01*
X141680000Y-104567302D01*
X143370856Y-104567302D01*
X143398638Y-105122368D01*
X143557603Y-105506143D01*
X143799787Y-105575608D01*
X144600395Y-104775000D01*
X144959605Y-104775000D01*
X145760213Y-105575608D01*
X146002397Y-105506143D01*
X146189144Y-104982698D01*
X146161362Y-104427632D01*
X146002397Y-104043857D01*
X145760213Y-103974392D01*
X144959605Y-104775000D01*
X144600395Y-104775000D01*
X143799787Y-103974392D01*
X143557603Y-104043857D01*
X143370856Y-104567302D01*
X141680000Y-104567302D01*
X141680000Y-103794787D01*
X143979392Y-103794787D01*
X144780000Y-104595395D01*
X145580608Y-103794787D01*
X145511143Y-103552603D01*
X144987698Y-103365856D01*
X144432632Y-103393638D01*
X144048857Y-103552603D01*
X143979392Y-103794787D01*
X141680000Y-103794787D01*
X141680000Y-102367302D01*
X151632856Y-102367302D01*
X151660638Y-102922368D01*
X151819603Y-103306143D01*
X152061787Y-103375608D01*
X152862395Y-102575000D01*
X153221605Y-102575000D01*
X154022213Y-103375608D01*
X154264397Y-103306143D01*
X154451144Y-102782698D01*
X154423362Y-102227632D01*
X154264397Y-101843857D01*
X154022213Y-101774392D01*
X153221605Y-102575000D01*
X152862395Y-102575000D01*
X152061787Y-101774392D01*
X151819603Y-101843857D01*
X151632856Y-102367302D01*
X141680000Y-102367302D01*
X141680000Y-101015213D01*
X152241392Y-101015213D01*
X152310857Y-101257397D01*
X152434344Y-101301453D01*
X152310857Y-101352603D01*
X152241392Y-101594787D01*
X153042000Y-102395395D01*
X153842608Y-101594787D01*
X153773143Y-101352603D01*
X153649656Y-101308547D01*
X153773143Y-101257397D01*
X153842608Y-101015213D01*
X153042000Y-100214605D01*
X152241392Y-101015213D01*
X141680000Y-101015213D01*
X141680000Y-99827302D01*
X151632856Y-99827302D01*
X151660638Y-100382368D01*
X151819603Y-100766143D01*
X152061787Y-100835608D01*
X152862395Y-100035000D01*
X153221605Y-100035000D01*
X154022213Y-100835608D01*
X154264397Y-100766143D01*
X154451144Y-100242698D01*
X154423362Y-99687632D01*
X154264397Y-99303857D01*
X154022213Y-99234392D01*
X153221605Y-100035000D01*
X152862395Y-100035000D01*
X152061787Y-99234392D01*
X151819603Y-99303857D01*
X151632856Y-99827302D01*
X141680000Y-99827302D01*
X141680000Y-94891661D01*
X143382758Y-94891661D01*
X143594990Y-95405303D01*
X143987630Y-95798629D01*
X144500900Y-96011757D01*
X145056661Y-96012242D01*
X145570303Y-95800010D01*
X145963629Y-95407370D01*
X146176757Y-94894100D01*
X146177242Y-94338339D01*
X145965010Y-93824697D01*
X145572370Y-93431371D01*
X145380273Y-93351605D01*
X145511143Y-93297397D01*
X145580608Y-93055213D01*
X144780000Y-92254605D01*
X143979392Y-93055213D01*
X144048857Y-93297397D01*
X144189318Y-93347509D01*
X143989697Y-93429990D01*
X143596371Y-93822630D01*
X143383243Y-94335900D01*
X143382758Y-94891661D01*
X141680000Y-94891661D01*
X141680000Y-91867302D01*
X143370856Y-91867302D01*
X143398638Y-92422368D01*
X143557603Y-92806143D01*
X143799787Y-92875608D01*
X144600395Y-92075000D01*
X144959605Y-92075000D01*
X145760213Y-92875608D01*
X146002397Y-92806143D01*
X146189144Y-92282698D01*
X146161362Y-91727632D01*
X146002397Y-91343857D01*
X145760213Y-91274392D01*
X144959605Y-92075000D01*
X144600395Y-92075000D01*
X143799787Y-91274392D01*
X143557603Y-91343857D01*
X143370856Y-91867302D01*
X141680000Y-91867302D01*
X141680000Y-91094787D01*
X143979392Y-91094787D01*
X144780000Y-91895395D01*
X145580608Y-91094787D01*
X145511143Y-90852603D01*
X144987698Y-90665856D01*
X144432632Y-90693638D01*
X144048857Y-90852603D01*
X143979392Y-91094787D01*
X141680000Y-91094787D01*
X141680000Y-87611661D01*
X151644758Y-87611661D01*
X151856990Y-88125303D01*
X152249630Y-88518629D01*
X152457512Y-88604949D01*
X152251697Y-88689990D01*
X151858371Y-89082630D01*
X151645243Y-89595900D01*
X151644758Y-90151661D01*
X151856990Y-90665303D01*
X152249630Y-91058629D01*
X152457512Y-91144949D01*
X152251697Y-91229990D01*
X151858371Y-91622630D01*
X151645243Y-92135900D01*
X151644758Y-92691661D01*
X151856990Y-93205303D01*
X152249630Y-93598629D01*
X152457512Y-93684949D01*
X152251697Y-93769990D01*
X151858371Y-94162630D01*
X151645243Y-94675900D01*
X151644758Y-95231661D01*
X151856990Y-95745303D01*
X152249630Y-96138629D01*
X152457512Y-96224949D01*
X152251697Y-96309990D01*
X151858371Y-96702630D01*
X151645243Y-97215900D01*
X151644758Y-97771661D01*
X151856990Y-98285303D01*
X152249630Y-98678629D01*
X152441727Y-98758395D01*
X152310857Y-98812603D01*
X152241392Y-99054787D01*
X153042000Y-99855395D01*
X153842608Y-99054787D01*
X153773143Y-98812603D01*
X153632682Y-98762491D01*
X153832303Y-98680010D01*
X154225629Y-98287370D01*
X154438757Y-97774100D01*
X154439242Y-97218339D01*
X154227010Y-96704697D01*
X153834370Y-96311371D01*
X153626488Y-96225051D01*
X153832303Y-96140010D01*
X154225629Y-95747370D01*
X154438757Y-95234100D01*
X154439242Y-94678339D01*
X154227010Y-94164697D01*
X153834370Y-93771371D01*
X153626488Y-93685051D01*
X153832303Y-93600010D01*
X154225629Y-93207370D01*
X154438757Y-92694100D01*
X154439242Y-92138339D01*
X154227010Y-91624697D01*
X153834370Y-91231371D01*
X153626488Y-91145051D01*
X153832303Y-91060010D01*
X154225629Y-90667370D01*
X154438757Y-90154100D01*
X154439242Y-89598339D01*
X154227010Y-89084697D01*
X153834370Y-88691371D01*
X153626488Y-88605051D01*
X153832303Y-88520010D01*
X154225629Y-88127370D01*
X154438757Y-87614100D01*
X154439242Y-87058339D01*
X154227010Y-86544697D01*
X153834370Y-86151371D01*
X153321100Y-85938243D01*
X152765339Y-85937758D01*
X152251697Y-86149990D01*
X151858371Y-86542630D01*
X151645243Y-87055900D01*
X151644758Y-87611661D01*
X141680000Y-87611661D01*
X141680000Y-76910000D01*
X200753692Y-76910000D01*
X200511697Y-77009990D01*
M02*
