G04 #@! TF.FileFunction,Soldermask,Top*
%FSLAX46Y46*%
G04 Gerber Fmt 4.6, Leading zero omitted, Abs format (unit mm)*
G04 Created by KiCad (PCBNEW 4.0.7) date 10/28/17 15:39:51*
%MOMM*%
%LPD*%
G01*
G04 APERTURE LIST*
%ADD10C,0.100000*%
%ADD11R,1.650000X1.900000*%
%ADD12R,1.900000X1.650000*%
%ADD13R,1.920000X1.920000*%
%ADD14C,1.920000*%
%ADD15C,4.210000*%
%ADD16R,1.900000X1.700000*%
%ADD17R,1.700000X1.900000*%
%ADD18C,1.924000*%
%ADD19R,1.950000X1.000000*%
%ADD20C,1.400000*%
%ADD21R,1.300000X1.200000*%
G04 APERTURE END LIST*
D10*
D11*
X192405000Y-93325000D03*
X192405000Y-90825000D03*
D12*
X184130000Y-116840000D03*
X181630000Y-116840000D03*
X176550000Y-102870000D03*
X179050000Y-102870000D03*
X166390000Y-113030000D03*
X168890000Y-113030000D03*
X198100000Y-113030000D03*
X195600000Y-113030000D03*
D13*
X201930000Y-127000000D03*
D14*
X199160000Y-127000000D03*
X196390000Y-127000000D03*
X193620000Y-127000000D03*
X190860000Y-127000000D03*
X188090000Y-127000000D03*
X185320000Y-127000000D03*
X182550000Y-127000000D03*
X179780000Y-127000000D03*
D15*
X208640000Y-128420000D03*
X145140000Y-128420000D03*
D14*
X177010000Y-127000000D03*
X174240000Y-127000000D03*
X171480000Y-127000000D03*
X168710000Y-127000000D03*
X165940000Y-127000000D03*
X163170000Y-127000000D03*
X160400000Y-127000000D03*
X157630000Y-127000000D03*
X154860000Y-127000000D03*
X152100000Y-127000000D03*
X200560000Y-129840000D03*
X197790000Y-129840000D03*
X195020000Y-129840000D03*
X192250000Y-129840000D03*
X189480000Y-129840000D03*
X186720000Y-129840000D03*
X183950000Y-129840000D03*
X181180000Y-129840000D03*
X178410000Y-129840000D03*
X175640000Y-129840000D03*
X172870000Y-129840000D03*
X170100000Y-129840000D03*
X167340000Y-129840000D03*
X164570000Y-129840000D03*
X161800000Y-129840000D03*
X159030000Y-129840000D03*
X156260000Y-129840000D03*
X153490000Y-129840000D03*
D16*
X181530000Y-119380000D03*
X184230000Y-119380000D03*
X181530000Y-121920000D03*
X184230000Y-121920000D03*
D17*
X173990000Y-123270000D03*
X173990000Y-120570000D03*
D16*
X176450000Y-107950000D03*
X179150000Y-107950000D03*
X176450000Y-105410000D03*
X179150000Y-105410000D03*
X166290000Y-104140000D03*
X168990000Y-104140000D03*
X166290000Y-118110000D03*
X168990000Y-118110000D03*
X166290000Y-115570000D03*
X168990000Y-115570000D03*
X156130000Y-114300000D03*
X158830000Y-114300000D03*
X194230000Y-121920000D03*
X196930000Y-121920000D03*
X198200000Y-109220000D03*
X195500000Y-109220000D03*
D18*
X153042000Y-87335000D03*
X153042000Y-89875000D03*
X153042000Y-92415000D03*
X153042000Y-94955000D03*
X153042000Y-97495000D03*
X153042000Y-100035000D03*
X153042000Y-102575000D03*
X153042000Y-105115000D03*
X153042000Y-110195000D03*
X201302000Y-105115000D03*
X153042000Y-112735000D03*
X153042000Y-115275000D03*
X153042000Y-117815000D03*
X153042000Y-120355000D03*
X153042000Y-122895000D03*
X201302000Y-78195000D03*
X201302000Y-80735000D03*
X201302000Y-83275000D03*
X201302000Y-85815000D03*
X201302000Y-88355000D03*
X201302000Y-90895000D03*
X201302000Y-93435000D03*
X201302000Y-95975000D03*
X201302000Y-98515000D03*
X201302000Y-101055000D03*
X201302000Y-107655000D03*
X201302000Y-110195000D03*
X201302000Y-112735000D03*
X201302000Y-115275000D03*
X201302000Y-117815000D03*
X201302000Y-120355000D03*
X201302000Y-122895000D03*
D19*
X188120000Y-94615000D03*
X188120000Y-93345000D03*
X188120000Y-92075000D03*
X188120000Y-90805000D03*
X182720000Y-90805000D03*
X182720000Y-92075000D03*
X182720000Y-93345000D03*
X182720000Y-94615000D03*
D20*
X179705000Y-81915000D03*
X176165000Y-81915000D03*
X179705000Y-85455000D03*
X176165000Y-85455000D03*
X177935000Y-83685000D03*
D21*
X177435000Y-120335000D03*
X177435000Y-122235000D03*
X179435000Y-121285000D03*
X171720000Y-107635000D03*
X171720000Y-109535000D03*
X173720000Y-108585000D03*
X161560000Y-112080000D03*
X161560000Y-113980000D03*
X163560000Y-113030000D03*
X177435000Y-115890000D03*
X177435000Y-117790000D03*
X179435000Y-116840000D03*
X171720000Y-102555000D03*
X171720000Y-104455000D03*
X173720000Y-103505000D03*
X161560000Y-117160000D03*
X161560000Y-119060000D03*
X163560000Y-118110000D03*
D18*
X144780000Y-107315000D03*
X144780000Y-104775000D03*
X144780000Y-94615000D03*
X144780000Y-92075000D03*
D21*
X195850000Y-117160000D03*
X195850000Y-119060000D03*
X197850000Y-118110000D03*
M02*
